<svg xmlns="http://www.w3.org/2000/svg" xmlns:xlink="http://www.w3.org/1999/xlink" width="500" zoomAndPan="magnify" viewBox="0 0 375 374.999991" height="500" preserveAspectRatio="xMidYMid meet" version="1.0"><defs><g/><clipPath id="67df421b70"><path d="M 160 115.070312 L 216 115.070312 L 216 168 L 160 168 Z M 160 115.070312 " clip-rule="nonzero"/></clipPath><clipPath id="50995c84ea"><path d="M 159.121094 115.070312 L 216.121094 115.070312 L 216.121094 168.320312 L 159.121094 168.320312 Z M 159.121094 115.070312 " clip-rule="nonzero"/></clipPath></defs><rect x="-37.5" width="450" fill="#ffffff" y="-37.499999" height="449.999989" fill-opacity="1"/><rect x="-37.5" width="450" fill="#000000" y="-37.499999" height="449.999989" fill-opacity="1"/><g clip-path="url(#67df421b70)"><path fill="#e1c340" d="M 213 154.320312 C 212.6875 154.007812 212.351562 153.726562 211.992188 153.472656 C 211.636719 153.222656 211.257812 153 210.859375 152.8125 C 210.464844 152.625 210.054688 152.46875 209.632812 152.351562 C 209.207031 152.234375 208.777344 152.152344 208.339844 152.109375 C 207.90625 152.0625 207.46875 152.054688 207.027344 152.085938 C 206.589844 152.117188 206.160156 152.183594 205.730469 152.289062 C 205.304688 152.394531 204.890625 152.535156 204.488281 152.710938 C 204.085938 152.886719 203.699219 153.09375 203.335938 153.335938 C 203.027344 153.539062 202.769531 153.742188 202.515625 153.941406 C 202.007812 154.34375 201.570312 154.691406 200.875 154.921875 C 199.832031 155.273438 199.023438 154.941406 197.6875 153.605469 L 194.503906 150.425781 C 193.648438 149.574219 193.292969 149.222656 193.03125 147.945312 C 192.839844 147.019531 192.925781 146.460938 193.160156 145.820312 C 193.375 145.214844 193.707031 144.683594 194.15625 144.226562 C 202.34375 135.78125 211.121094 125.558594 212.257812 116.089844 C 212.277344 115.921875 212.246094 115.765625 212.164062 115.617188 C 212.082031 115.46875 211.964844 115.359375 211.816406 115.285156 C 211.664062 115.210938 211.503906 115.1875 211.335938 115.214844 C 211.171875 115.246094 211.027344 115.316406 210.910156 115.4375 L 187.6875 138.65625 L 164.464844 115.433594 C 164.347656 115.316406 164.203125 115.242188 164.039062 115.214844 C 163.871094 115.1875 163.710938 115.210938 163.558594 115.28125 C 163.410156 115.355469 163.292969 115.46875 163.210938 115.613281 C 163.128906 115.761719 163.097656 115.921875 163.117188 116.089844 C 164.246094 125.492188 172.796875 135.539062 181.21875 144.21875 C 181.664062 144.667969 181.992188 145.191406 182.207031 145.785156 C 182.445312 146.4375 182.535156 146.992188 182.335938 147.9375 C 182.074219 149.21875 181.71875 149.570312 180.863281 150.417969 L 177.691406 153.605469 C 176.359375 154.9375 175.554688 155.273438 174.5 154.921875 C 173.808594 154.691406 173.371094 154.34375 172.863281 153.941406 C 172.609375 153.746094 172.351562 153.539062 172.042969 153.335938 C 171.640625 153.070312 171.21875 152.84375 170.769531 152.660156 C 170.324219 152.472656 169.867188 152.332031 169.394531 152.230469 C 168.921875 152.132812 168.445312 152.078125 167.960938 152.070312 C 167.480469 152.058594 167 152.097656 166.523438 152.175781 C 166.046875 152.257812 165.582031 152.382812 165.132812 152.550781 C 164.679688 152.71875 164.246094 152.929688 163.832031 153.179688 C 163.421875 153.429688 163.035156 153.71875 162.675781 154.039062 C 162.316406 154.363281 161.992188 154.714844 161.699219 155.101562 C 161.40625 155.484375 161.152344 155.894531 160.9375 156.324219 C 160.722656 156.757812 160.550781 157.207031 160.417969 157.671875 C 160.289062 158.136719 160.203125 158.609375 160.160156 159.089844 C 160.117188 159.570312 160.121094 160.050781 160.171875 160.53125 C 160.21875 161.011719 160.3125 161.480469 160.449219 161.945312 C 160.585938 162.40625 160.765625 162.851562 160.988281 163.28125 C 161.210938 163.710938 161.46875 164.117188 161.769531 164.496094 C 162.066406 164.875 162.398438 165.222656 162.761719 165.542969 C 163.125 165.859375 163.515625 166.140625 163.929688 166.382812 C 164.347656 166.628906 164.785156 166.832031 165.238281 166.992188 C 165.691406 167.15625 166.160156 167.273438 166.636719 167.347656 C 167.113281 167.421875 167.59375 167.449219 168.074219 167.433594 C 168.558594 167.417969 169.035156 167.355469 169.503906 167.25 C 169.976562 167.144531 170.433594 166.996094 170.875 166.804688 C 171.320312 166.609375 171.738281 166.378906 172.140625 166.105469 C 172.539062 165.835938 172.910156 165.527344 173.25 165.1875 L 187.691406 150.746094 L 202.136719 165.1875 C 202.496094 165.546875 202.882812 165.863281 203.300781 166.144531 C 203.722656 166.425781 204.164062 166.660156 204.632812 166.855469 C 205.097656 167.046875 205.578125 167.195312 206.074219 167.292969 C 206.566406 167.390625 207.066406 167.441406 207.574219 167.441406 C 208.078125 167.441406 208.578125 167.390625 209.070312 167.292969 C 209.566406 167.195312 210.046875 167.050781 210.515625 166.855469 C 210.980469 166.664062 211.421875 166.425781 211.84375 166.144531 C 212.261719 165.867188 212.652344 165.546875 213.007812 165.191406 C 213.363281 164.832031 213.683594 164.445312 213.964844 164.023438 C 214.246094 163.605469 214.480469 163.164062 214.675781 162.695312 C 214.867188 162.230469 215.011719 161.75 215.109375 161.253906 C 215.210938 160.757812 215.257812 160.257812 215.257812 159.753906 C 215.257812 159.25 215.207031 158.75 215.109375 158.253906 C 215.011719 157.761719 214.867188 157.277344 214.671875 156.8125 C 214.480469 156.347656 214.242188 155.902344 213.960938 155.484375 C 213.679688 155.066406 213.363281 154.675781 213.003906 154.320312 Z M 182.148438 144.195312 C 173.664062 135.496094 164.921875 125.375 163.796875 116.007812 C 163.789062 115.957031 163.808594 115.917969 163.859375 115.898438 C 163.902344 115.875 163.945312 115.882812 163.976562 115.917969 L 187.203125 139.140625 Z M 172.761719 164.699219 C 172.566406 164.894531 172.363281 165.074219 172.148438 165.246094 C 171.933594 165.414062 171.710938 165.570312 171.476562 165.714844 C 171.242188 165.859375 171 165.988281 170.753906 166.105469 C 170.503906 166.21875 170.25 166.320312 169.988281 166.40625 C 169.730469 166.492188 169.464844 166.5625 169.195312 166.613281 C 168.925781 166.667969 168.65625 166.707031 168.382812 166.730469 C 168.109375 166.753906 167.835938 166.757812 167.5625 166.75 C 167.289062 166.742188 167.015625 166.714844 166.746094 166.671875 C 166.472656 166.632812 166.207031 166.574219 165.941406 166.5 C 165.679688 166.429688 165.417969 166.339844 165.164062 166.238281 C 164.910156 166.132812 164.664062 166.015625 164.425781 165.882812 C 164.183594 165.75 163.953125 165.605469 163.730469 165.445312 C 163.507812 165.285156 163.292969 165.113281 163.09375 164.929688 C 162.890625 164.746094 162.699219 164.550781 162.519531 164.34375 C 162.339844 164.136719 162.171875 163.917969 162.019531 163.691406 C 161.863281 163.464844 161.722656 163.230469 161.597656 162.988281 C 161.46875 162.746094 161.359375 162.496094 161.261719 162.238281 C 161.164062 161.984375 161.082031 161.722656 161.015625 161.457031 C 160.949219 161.191406 160.898438 160.921875 160.863281 160.648438 C 160.828125 160.378906 160.808594 160.105469 160.804688 159.832031 C 160.800781 159.558594 160.8125 159.285156 160.84375 159.011719 C 160.871094 158.738281 160.917969 158.46875 160.976562 158.203125 C 161.039062 157.933594 161.113281 157.671875 161.207031 157.414062 C 161.296875 157.15625 161.402344 156.902344 161.523438 156.65625 C 161.644531 156.410156 161.78125 156.171875 161.929688 155.941406 C 162.078125 155.710938 162.242188 155.492188 162.417969 155.28125 C 162.589844 155.070312 162.777344 154.871094 162.976562 154.679688 C 163.175781 154.492188 163.382812 154.316406 163.601562 154.152344 C 163.824219 153.988281 164.050781 153.835938 164.289062 153.699219 C 164.523438 153.558594 164.769531 153.4375 165.019531 153.328125 C 165.273438 153.21875 165.527344 153.125 165.792969 153.046875 C 166.054688 152.96875 166.320312 152.902344 166.589844 152.855469 C 167.492188 152.699219 168.394531 152.71875 169.292969 152.910156 C 170.144531 153.09375 170.933594 153.425781 171.65625 153.90625 C 171.9375 154.089844 172.1875 154.289062 172.425781 154.476562 C 172.9375 154.882812 173.472656 155.300781 174.273438 155.570312 C 175.777344 156.070312 176.878906 155.375 178.164062 154.089844 L 181.347656 150.917969 C 182.222656 150.046875 182.707031 149.570312 183.007812 148.085938 C 183.246094 146.925781 183.09375 145.820312 182.542969 144.769531 L 211.390625 115.917969 C 211.429688 115.875 211.472656 115.867188 211.523438 115.898438 C 211.574219 115.917969 211.59375 115.957031 211.582031 116.011719 C 210.230469 127.234375 197.761719 139.703125 188.660156 148.804688 Z M 212.515625 164.699219 C 212.191406 165.023438 211.835938 165.316406 211.453125 165.570312 C 211.074219 165.824219 210.667969 166.042969 210.246094 166.21875 C 209.820312 166.394531 209.382812 166.527344 208.929688 166.617188 C 208.480469 166.703125 208.023438 166.75 207.566406 166.75 C 207.105469 166.75 206.648438 166.703125 206.199219 166.617188 C 205.746094 166.527344 205.308594 166.394531 204.886719 166.21875 C 204.460938 166.042969 204.058594 165.824219 203.675781 165.570312 C 203.292969 165.316406 202.9375 165.023438 202.613281 164.699219 L 188.171875 150.265625 L 189.140625 149.292969 C 190.1875 148.25 191.265625 147.171875 192.371094 146.050781 C 192.226562 146.726562 192.226562 147.40625 192.371094 148.082031 C 192.671875 149.566406 193.152344 150.039062 194.03125 150.914062 L 197.214844 154.09375 C 198.5 155.378906 199.597656 156.074219 201.101562 155.574219 C 201.90625 155.304688 202.4375 154.886719 202.949219 154.480469 C 203.1875 154.292969 203.4375 154.089844 203.71875 153.910156 C 204.078125 153.671875 204.453125 153.472656 204.851562 153.304688 C 205.246094 153.136719 205.65625 153.007812 206.074219 152.914062 C 206.496094 152.824219 206.921875 152.769531 207.351562 152.757812 C 207.78125 152.742188 208.207031 152.769531 208.632812 152.835938 C 209.058594 152.898438 209.472656 153.003906 209.878906 153.144531 C 210.285156 153.285156 210.675781 153.464844 211.046875 153.675781 C 211.421875 153.890625 211.773438 154.136719 212.101562 154.414062 C 212.429688 154.691406 212.726562 155 213 155.332031 C 213.269531 155.664062 213.511719 156.019531 213.714844 156.398438 C 213.921875 156.773438 214.09375 157.167969 214.226562 157.574219 C 214.359375 157.984375 214.457031 158.402344 214.511719 158.828125 C 214.570312 159.253906 214.585938 159.683594 214.566406 160.113281 C 214.542969 160.542969 214.484375 160.964844 214.382812 161.382812 C 214.28125 161.800781 214.144531 162.207031 213.972656 162.601562 C 213.796875 162.992188 213.585938 163.367188 213.34375 163.722656 C 213.101562 164.074219 212.828125 164.40625 212.523438 164.707031 Z M 212.515625 164.699219 " fill-opacity="1" fill-rule="nonzero"/></g><g clip-path="url(#50995c84ea)"><path stroke-linecap="butt" transform="matrix(0.130592, 0, 0, 0.130592, 160.060117, 115.135972)" fill="none" stroke-linejoin="miter" d="M 405.384259 300.051942 C 402.991307 297.65899 400.418884 295.505334 397.666989 293.561061 C 394.945007 291.646699 392.043553 289.941721 388.99254 288.50595 C 385.971438 287.070179 382.830689 285.873703 379.600204 284.976346 C 376.339808 284.07899 373.049499 283.45084 369.699367 283.121809 C 366.379146 282.762866 363.029014 282.703042 359.64897 282.942338 C 356.298838 283.181633 353.008529 283.690135 349.71822 284.497756 C 346.457824 285.305377 343.287163 286.382206 340.206238 287.728241 C 337.125312 289.074276 334.164035 290.659607 331.382228 292.514144 C 329.019189 294.069563 327.045003 295.624981 325.10073 297.150488 C 321.212184 300.231413 317.862051 302.893572 312.537734 304.658374 C 304.551258 307.350445 298.359495 304.807933 288.129627 294.578065 L 263.751432 270.229782 C 257.200727 263.708988 254.478744 261.016918 252.474647 251.235728 C 251.008964 244.146609 251.667026 239.869208 253.46174 234.963657 C 255.106894 230.327313 257.649405 226.259295 261.089273 222.759603 C 323.784607 158.090084 390.996637 79.810653 399.700998 7.304217 C 399.850558 6.018006 399.611263 4.82153 398.983113 3.684878 C 398.354963 2.548226 397.457606 1.710693 396.320954 1.142367 C 395.15439 0.574041 393.928002 0.394569 392.641791 0.603953 C 391.385491 0.843248 390.278751 1.381662 389.381394 2.308931 L 211.555174 180.10524 L 33.728953 2.279019 C 32.831596 1.381662 31.724856 0.813336 30.468556 0.603953 C 29.182345 0.394569 27.955957 0.574041 26.789393 1.112455 C 25.652741 1.680781 24.755384 2.548226 24.127234 3.654966 C 23.499084 4.791618 23.259789 6.018006 23.409349 7.304217 C 32.053887 79.302151 97.531027 156.235547 162.021074 222.699779 C 165.43103 226.139647 167.943629 230.147841 169.588784 234.69445 C 171.413409 239.689736 172.101383 243.937225 170.575876 251.175904 C 168.571779 260.987006 165.849797 263.679077 159.299092 270.169958 L 135.010632 294.578065 C 124.810676 304.778021 118.648825 307.350445 110.572613 304.658374 C 105.278208 302.893572 101.928075 300.231413 98.039529 297.150488 C 96.095256 295.654893 94.121071 294.069563 91.758031 292.514144 C 88.677105 290.480135 85.446621 288.745245 82.006753 287.339386 C 78.596797 285.903615 75.097105 284.826787 71.477765 284.049078 C 67.858426 283.30128 64.209175 282.882514 60.5001 282.82269 C 56.820936 282.732954 53.141773 283.032073 49.492522 283.630311 C 45.843271 284.258461 42.283755 285.215642 38.843887 286.501853 C 35.374107 287.788065 32.053887 289.403307 28.883226 291.317668 C 25.742477 293.23203 22.781199 295.44551 20.029305 297.898285 C 17.27741 300.380973 14.794723 303.073043 12.551331 306.034321 C 10.307938 308.965687 8.363665 312.106436 6.718511 315.396744 C 5.073357 318.716965 3.757233 322.156833 2.740229 325.716349 C 1.753136 329.275864 1.095074 332.895204 0.766044 336.574367 C 0.437013 340.25353 0.466925 343.932693 0.855779 347.611856 C 1.214722 351.291019 1.932608 354.880447 2.979524 358.439963 C 4.02644 361.969566 5.402387 365.379522 7.107366 368.669831 C 8.812344 371.96014 10.786529 375.070977 13.089745 377.972431 C 15.363049 380.873884 17.90556 383.536043 20.687366 385.988819 C 23.469173 388.411682 26.460362 390.565339 29.631023 392.419876 C 32.831596 394.304326 36.181728 395.859744 39.651508 397.086132 C 43.121288 398.342432 46.710716 399.239789 50.359967 399.808115 C 54.009218 400.376441 57.688381 400.585824 61.367545 400.466176 C 65.07662 400.346529 68.725871 399.867938 72.315298 399.060317 C 75.934638 398.252696 79.43433 397.116044 82.814374 395.650361 C 86.22433 394.154766 89.424903 392.389964 92.505828 390.296132 C 95.556842 388.232211 98.398472 385.869171 101.000807 383.266836 L 211.585085 272.682557 L 322.199276 383.266836 C 324.951171 386.018731 327.912448 388.441594 331.113021 390.595251 C 334.343506 392.748907 337.72355 394.543621 341.312978 396.039216 C 344.872493 397.504899 348.551656 398.641551 352.350467 399.389348 C 356.119366 400.137145 359.948089 400.526 363.836635 400.526 C 367.69527 400.526 371.523992 400.137145 375.292891 399.389348 C 379.091702 398.641551 382.770865 397.53481 386.360293 396.039216 C 389.919808 394.573533 393.299853 392.748907 396.530337 390.595251 C 399.73091 388.471506 402.7221 386.018731 405.444082 383.296748 C 408.166065 380.544854 410.61884 377.583576 412.772497 374.353091 C 414.926153 371.152518 416.720867 367.772474 418.216462 364.183047 C 419.682145 360.623531 420.788885 356.944368 421.536682 353.145557 C 422.314392 349.346746 422.673334 345.518024 422.673334 341.659389 C 422.673334 337.800754 422.28448 333.972032 421.536682 330.173221 C 420.788885 326.404322 419.682145 322.695247 418.18655 319.135731 C 416.720867 315.576216 414.896241 312.16626 412.742585 308.965687 C 410.588928 305.765114 408.166065 302.773924 405.41417 300.051942 Z M 169.140105 222.520308 C 104.171468 155.906516 37.228645 78.404794 28.614019 6.676068 C 28.554195 6.287213 28.703754 5.988094 29.092609 5.838535 C 29.42164 5.659063 29.750671 5.718887 29.989966 5.988094 L 207.846098 183.814315 Z M 97.26182 379.527849 C 95.766225 381.023444 94.210806 382.399391 92.565652 383.715515 C 90.920498 385.001726 89.21552 386.198202 87.420806 387.304942 C 85.626092 388.411682 83.771555 389.398775 81.887105 390.296132 C 79.972744 391.163577 78.028471 391.941286 76.024374 392.599348 C 74.050188 393.257409 72.01618 393.795823 69.952259 394.184678 C 67.888338 394.603445 65.824417 394.902564 63.730584 395.082035 C 61.636752 395.261506 59.542919 395.291418 57.449086 395.231594 C 55.355254 395.171771 53.261421 394.962387 51.1975 394.633357 C 49.103667 394.334238 47.069658 393.885559 45.035649 393.317233 C 43.031552 392.778819 41.027455 392.090845 39.083182 391.313136 C 37.138909 390.505515 35.25446 389.608158 33.429834 388.591154 C 31.575296 387.574149 29.810494 386.467409 28.105516 385.241021 C 26.400538 384.014634 24.755384 382.69851 23.229877 381.292651 C 21.674459 379.886792 20.208776 378.391197 18.832829 376.805867 C 17.456882 375.220536 16.17067 373.54547 15.004106 371.81058 C 13.80763 370.07569 12.730802 368.280976 11.773621 366.426439 C 10.786529 364.571901 9.948996 362.65754 9.201198 360.683355 C 8.453401 358.739082 7.825251 356.734985 7.316749 354.700976 C 6.808247 352.666967 6.419392 350.603046 6.150185 348.509213 C 5.880978 346.445292 5.731418 344.35146 5.701506 342.257627 C 5.671595 340.163794 5.76133 338.069962 6.000625 335.976129 C 6.210009 333.882296 6.568951 331.818375 7.01763 329.784366 C 7.49622 327.720446 8.064546 325.716349 8.782432 323.742163 C 9.470405 321.767978 10.278027 319.823705 11.205295 317.939256 C 12.132564 316.054806 13.17948 314.230181 14.316132 312.465379 C 15.452784 310.700577 16.709084 309.025511 18.055119 307.410268 C 19.371243 305.795026 20.807014 304.269519 22.332521 302.803836 C 23.858027 301.368065 25.443358 300.02203 27.118424 298.76573 C 28.823402 297.509431 30.558292 296.342867 32.382918 295.29595 C 34.177631 294.219122 36.062081 293.291853 37.976442 292.45432 C 39.920715 291.616787 41.864989 290.898902 43.898997 290.300664 C 45.903094 289.702426 47.937103 289.193924 50.001024 288.834981 C 56.910672 287.638505 63.82032 287.788065 70.700056 289.253748 C 77.220849 290.659607 83.263052 293.202118 88.796753 296.881281 C 90.95041 298.28714 92.864771 299.812647 94.689397 301.248418 C 98.607855 304.359255 102.705785 307.559828 108.837723 309.623749 C 120.353803 313.452471 128.788958 308.128154 138.629972 298.28714 L 163.008167 273.998681 C 169.708431 267.328328 173.417506 263.679077 175.720722 252.312556 C 177.545348 243.428723 176.378784 234.963657 172.161207 226.917357 L 393.060557 5.988094 C 393.359676 5.659063 393.688707 5.599239 394.077562 5.838535 C 394.466417 5.988094 394.615976 6.287213 394.52624 6.705979 C 384.176724 92.642856 288.697953 188.121628 219.003236 257.816345 Z M 401.675183 379.527849 C 399.192496 382.010537 396.470514 384.253929 393.539148 386.198202 C 390.637694 388.142475 387.526857 389.817541 384.296372 391.163577 C 381.035975 392.509612 377.685843 393.526616 374.216063 394.21459 C 370.776195 394.872652 367.276503 395.231594 363.776811 395.231594 C 360.247208 395.231594 356.747516 394.872652 353.307648 394.21459 C 349.837868 393.526616 346.487736 392.509612 343.257251 391.163577 C 339.996854 389.817541 336.915929 388.142475 333.984563 386.198202 C 331.053197 384.253929 328.331215 382.010537 325.848528 379.527849 L 215.264249 269.003394 L 222.682399 261.555332 C 230.698787 253.568856 238.95447 245.313173 247.419537 236.728458 C 246.312797 241.903216 246.312797 247.107886 247.419537 252.282644 C 249.722753 263.649165 253.401916 267.268504 260.132092 273.968769 L 284.510288 298.317052 C 294.351301 308.158066 302.756544 313.482383 314.272624 309.65366 C 320.434474 307.58974 324.502492 304.389167 328.420951 301.27833 C 330.245576 299.842559 332.159938 298.28714 334.313594 296.911193 C 337.065488 295.086567 339.93703 293.561061 342.988044 292.274849 C 346.009145 290.988637 349.149894 290.001545 352.350467 289.283659 C 355.580952 288.595686 358.841349 288.176919 362.131657 288.087184 C 365.421966 287.967536 368.682362 288.176919 371.942759 288.685422 C 375.203156 289.164012 378.373817 289.971633 381.484654 291.048461 C 384.595491 292.12529 387.586681 293.501237 390.428311 295.116479 C 393.299853 296.761633 395.991923 298.646083 398.504523 300.769827 C 401.017122 302.893572 403.290426 305.256612 405.384259 307.799123 C 407.448179 310.341634 409.302717 313.063617 410.858136 315.965071 C 412.443466 318.836613 413.759589 321.857714 414.776594 324.968551 C 415.793598 328.1093 416.541396 331.309873 416.960162 334.57027 C 417.408841 337.830666 417.528488 341.120975 417.378929 344.411283 C 417.199457 347.701592 416.750779 350.932077 415.97307 354.13265 C 415.19536 357.333222 414.148444 360.44406 412.832321 363.465161 C 411.486285 366.456351 409.871043 369.327893 408.016505 372.049875 C 406.161968 374.741946 404.068135 377.284457 401.735007 379.587673 Z M 401.675183 379.527849 " stroke="#ad844b" stroke-width="1" stroke-opacity="1" stroke-miterlimit="10"/></g><path stroke-linecap="butt" transform="matrix(0.130592, 0, 0, 0.130592, 160.060117, 115.135972)" fill-opacity="1" fill="#e1c340" fill-rule="nonzero" stroke-linejoin="miter" d="M 80.690629 309.17507 C 78.058382 307.44018 75.276576 306.064233 72.285387 305.017317 C 69.324109 304.000312 66.273096 303.312339 63.132346 303.01322 C 60.021509 302.714101 56.88076 302.803836 53.769923 303.282427 C 50.659086 303.731105 47.637984 304.568638 44.736531 305.765114 C 41.835077 306.96159 39.113094 308.487097 36.570583 310.341634 C 34.028072 312.226084 31.754768 314.349828 29.720759 316.772692 C 27.716662 319.195555 26.011684 321.79789 24.635737 324.63952 C 23.259789 327.451239 22.242785 330.412516 21.584723 333.493441 C 20.926661 336.574367 20.657454 339.685204 20.74719 342.825953 C 20.836926 345.966702 21.315516 349.047627 22.182961 352.098641 C 23.020494 355.119742 24.21697 357.991284 25.772389 360.743179 C 27.327807 363.465161 29.182345 365.97776 31.365913 368.280976 C 33.51957 370.55428 35.912521 372.558377 38.57468 374.233444 C 41.236839 375.938422 44.048557 377.284457 47.009835 378.301461 C 50.001024 379.318466 53.052038 379.976528 56.192787 380.215823 C 59.333536 380.48503 62.444373 380.395294 65.55521 379.886792 C 68.666047 379.408202 71.657237 378.540757 74.558691 377.314369 C 77.460145 376.087981 80.182127 374.532563 82.694726 372.648113 C 85.207326 370.763664 87.48063 368.610007 89.454815 366.187144 C 91.458912 363.734368 93.133978 361.102121 94.480013 358.260491 C 95.826049 355.418861 96.843053 352.457583 97.471203 349.376658 C 98.099353 346.295733 98.338648 343.184896 98.219 340.044147 C 98.099353 336.903398 97.59085 333.822472 96.693494 330.771459 C 95.826049 327.750357 94.599661 324.878815 93.01433 322.156833 C 89.933405 316.892339 85.805563 312.555114 80.690629 309.17507 Z M 83.143405 365.439346 C 81.258955 367.293884 79.195035 368.939038 76.951642 370.314985 C 74.70825 371.690932 72.315298 372.797673 69.832611 373.605294 C 67.320012 374.442827 64.747589 374.951329 62.115342 375.160712 C 59.483095 375.400008 56.88076 375.310272 54.248513 374.891505 C 51.646178 374.502651 49.133579 373.814677 46.680804 372.797673 C 44.228028 371.81058 41.924812 370.55428 39.801068 369.028774 C 37.647411 367.473355 35.703138 365.708553 33.968248 363.734368 C 32.233358 361.730271 30.767675 359.576615 29.541287 357.243487 C 28.3149 354.880447 27.387631 352.457583 26.729569 349.88516 C 26.101419 347.342649 25.742477 344.740314 25.712565 342.078156 C 25.682653 339.445909 25.95186 336.843574 26.520186 334.271151 C 27.118424 331.698728 27.985869 329.21604 29.122521 326.853001 C 30.289085 324.489961 31.724856 322.276481 33.399922 320.242472 C 35.074988 318.208463 36.959438 316.383837 39.083182 314.798507 C 41.177015 313.213176 43.450319 311.897053 45.843271 310.820224 C 48.266134 309.773308 50.778733 308.995599 53.381068 308.54692 C 57.269615 307.858947 61.188073 307.858947 65.07662 308.54692 C 71.268382 309.623749 76.742259 312.226084 81.468339 316.353925 C 86.164506 320.511679 89.484727 325.566789 91.369176 331.549168 C 93.283537 337.531547 93.463009 343.57375 91.997326 349.675777 C 90.501731 355.777804 87.540453 361.042298 83.083581 365.469258 Z M 83.143405 365.439346 " stroke="#ad844b" stroke-width="1" stroke-opacity="1" stroke-miterlimit="10"/><path stroke-linecap="butt" transform="matrix(0.130592, 0, 0, 0.130592, 160.060117, 115.135972)" fill-opacity="1" fill="#e1c340" fill-rule="nonzero" stroke-linejoin="miter" d="M 391.235932 314.170357 C 387.975535 310.90996 384.26646 308.307625 380.078795 306.393264 C 375.891129 304.448991 371.494081 303.282427 366.887649 302.923484 C 362.311129 302.534629 357.794432 302.983308 353.33756 304.209695 C 348.910599 305.436083 344.81267 307.410268 341.073683 310.102339 C 337.992757 312.315819 335.330599 314.888242 332.997471 317.879432 C 331.501876 319.853617 330.185752 321.94745 329.0491 324.16093 C 327.94236 326.37441 327.045003 328.677626 326.35703 331.070578 C 325.698968 333.46353 325.25029 335.886393 325.040906 338.36908 C 324.831523 340.821856 324.861435 343.304543 325.10073 345.757319 C 325.369937 348.240006 325.878439 350.66287 326.596325 353.025909 C 327.31421 355.418861 328.271391 357.692165 329.437955 359.875734 C 330.604519 362.089214 331.950554 364.153135 333.505973 366.067496 C 335.091303 368.011769 336.796281 369.776571 338.710643 371.361902 C 340.595092 372.977144 342.629101 374.383003 344.81267 375.579479 C 346.966326 376.805867 349.23963 377.792959 351.60267 378.570668 C 353.935798 379.348378 356.358661 379.886792 358.811437 380.215823 C 361.294124 380.514942 363.7469 380.604677 366.229587 380.455118 C 368.712274 380.275647 371.16505 379.886792 373.558001 379.258642 C 375.950953 378.630492 378.284081 377.792959 380.527473 376.716131 C 382.770865 375.669215 384.864698 374.383003 386.868795 372.91732 C 388.872892 371.421725 390.697518 369.776571 392.402496 367.951945 C 394.077562 366.12732 395.543245 364.153135 396.859368 362.02939 C 398.175492 359.935557 399.25232 357.692165 400.119765 355.388949 C 401.017122 353.055821 401.645272 350.66287 402.064038 348.210094 C 402.482805 345.787231 402.662276 343.304543 402.632364 340.821856 C 402.57254 338.339169 402.273421 335.886393 401.764919 333.46353 C 401.226505 331.040666 400.478708 328.677626 399.521527 326.404322 C 398.534434 324.131018 397.36787 321.94745 395.962011 319.883529 C 394.586064 317.819608 393.000734 315.935159 391.235932 314.170357 Z M 387.556769 365.439346 C 384.505755 368.49036 381.035975 370.853399 377.087605 372.558377 C 373.169147 374.263355 369.041305 375.190624 364.763904 375.310272 C 360.456591 375.429919 356.298838 374.771858 352.260732 373.306175 C 348.222626 371.840492 344.603286 369.686835 341.402713 366.845205 C 338.202141 364.003575 335.629717 360.653443 333.685444 356.82472 C 331.771083 352.995998 330.604519 348.92798 330.215664 344.650579 C 329.856722 340.373178 330.275488 336.185512 331.501876 332.087582 C 332.728264 327.959741 334.672537 324.220754 337.334696 320.84071 C 339.129409 318.567405 341.223242 316.533397 343.55637 314.768595 C 346.966326 312.196172 350.705313 310.341634 354.803243 309.204982 C 358.901172 308.098242 363.088838 307.739299 367.306415 308.187978 C 371.553904 308.636656 375.562098 309.833132 379.330997 311.807317 C 383.099896 313.781502 386.390205 316.383837 389.172011 319.58441 C 391.953817 322.814895 394.077562 326.404322 395.483421 330.442428 C 396.919192 334.450622 397.547342 338.578464 397.397782 342.825953 C 397.248223 347.103354 396.320954 351.171372 394.615976 355.059918 C 392.910998 358.978377 390.547958 362.418245 387.556769 365.439346 Z M 387.556769 365.439346 " stroke="#ad844b" stroke-width="1" stroke-opacity="1" stroke-miterlimit="10"/><path stroke-linecap="butt" transform="matrix(0.130592, 0, 0, 0.130592, 160.060117, 115.135972)" fill-opacity="1" fill="#e1c340" fill-rule="nonzero" stroke-linejoin="miter" d="M 224.148082 223.985991 C 224.148082 222.041718 223.729315 220.18718 222.86187 218.422378 C 221.994425 216.657576 220.797949 215.191893 219.242531 213.995418 C 217.687112 212.798942 215.952222 212.021232 214.037861 211.632378 C 212.093588 211.243523 210.209138 211.303347 208.294777 211.811849 C 206.410327 212.320351 204.735261 213.217708 203.269578 214.50392 C 201.773984 215.790131 200.667243 217.34555 199.919446 219.170176 C 199.171649 220.964889 198.87253 222.849339 198.992177 224.793612 C 199.111825 226.767797 199.650239 228.592423 200.637332 230.267489 C 201.624424 231.972467 202.910636 233.378326 204.55579 234.455154 C 206.171032 235.561895 207.965746 236.219956 209.910019 236.489163 C 211.854293 236.728458 213.738742 236.548987 215.59328 235.920837 C 217.447817 235.292687 219.063059 234.305595 220.468919 232.899736 C 222.921694 230.44696 224.177994 227.485683 224.148082 223.985991 Z M 216.759843 229.220573 C 215.952222 230.028194 215.024953 230.59652 213.918213 230.985374 C 212.841385 231.344317 211.734645 231.434053 210.597993 231.284493 C 209.461341 231.134934 208.414425 230.746079 207.487156 230.117929 C 206.529975 229.48978 205.752266 228.682158 205.18394 227.665154 C 204.615614 226.678061 204.286583 225.631145 204.226759 224.494493 C 204.137023 223.327929 204.346407 222.251101 204.765173 221.174273 C 205.213852 220.127356 205.871913 219.229999 206.709446 218.45229 C 207.576891 217.704493 208.563984 217.19599 209.670724 216.896872 C 210.777464 216.597753 211.884204 216.567841 213.020856 216.777224 C 214.127597 217.016519 215.144601 217.465198 216.041958 218.153171 C 216.969227 218.871057 217.6572 219.70859 218.165703 220.755506 C 218.674205 221.772511 218.943412 222.849339 218.943412 223.985991 C 218.943412 226.049912 218.225526 227.814713 216.759843 229.250484 Z M 216.759843 229.220573 " stroke="#ad844b" stroke-width="1" stroke-opacity="1" stroke-miterlimit="10"/><g fill="#e1c340" fill-opacity="1"><g transform="translate(43.848656, 198.68067)"><g><path d="M -0.28125 0 L -0.28125 -0.265625 C -0.0703125 -0.328125 0.128906 -0.425781 0.328125 -0.5625 C 0.523438 -0.695312 0.738281 -0.9375 0.96875 -1.28125 C 1.195312 -1.625 1.453125 -2.140625 1.734375 -2.828125 L 6.71875 -15.171875 C 6.84375 -15.484375 6.828125 -15.800781 6.671875 -16.125 L 6.53125 -16.4375 L 7.75 -16.96875 L 13.578125 -2.8125 C 13.867188 -2.132812 14.117188 -1.625 14.328125 -1.28125 C 14.535156 -0.9375 14.726562 -0.695312 14.90625 -0.5625 C 15.082031 -0.425781 15.25 -0.328125 15.40625 -0.265625 L 15.40625 0 L 12.390625 0 L 12.390625 -0.265625 C 12.609375 -0.328125 12.75 -0.425781 12.8125 -0.5625 C 12.875 -0.695312 12.859375 -0.9375 12.765625 -1.28125 C 12.671875 -1.625 12.476562 -2.132812 12.1875 -2.8125 L 10.703125 -6.40625 L 3.546875 -6.40625 L 2.109375 -2.828125 C 1.804688 -2.078125 1.660156 -1.484375 1.671875 -1.046875 C 1.691406 -0.609375 1.910156 -0.347656 2.328125 -0.265625 L 2.328125 0 Z M 3.703125 -6.75 L 10.5625 -6.75 L 7.078125 -15.171875 Z M 3.703125 -6.75 "/></g></g></g><g fill="#e1c340" fill-opacity="1"><g transform="translate(63.91269, 198.68067)"><g><path d="M 5.0625 0 L 5.0625 -0.265625 C 5.289062 -0.328125 5.472656 -0.429688 5.609375 -0.578125 C 5.753906 -0.734375 5.859375 -1 5.921875 -1.375 C 5.992188 -1.75 6.03125 -2.304688 6.03125 -3.046875 L 6.03125 -16.484375 L 4.375 -16.484375 C 3.644531 -16.484375 3.050781 -16.414062 2.59375 -16.28125 C 2.144531 -16.144531 1.769531 -15.921875 1.46875 -15.609375 C 1.175781 -15.296875 0.910156 -14.882812 0.671875 -14.375 L 0.453125 -14.421875 L 0.59375 -16.796875 L 12.765625 -16.796875 L 12.90625 -14.421875 L 12.703125 -14.375 C 12.460938 -14.882812 12.191406 -15.296875 11.890625 -15.609375 C 11.597656 -15.921875 11.222656 -16.144531 10.765625 -16.28125 C 10.304688 -16.414062 9.71875 -16.484375 9 -16.484375 L 7.390625 -16.484375 L 7.390625 -3.046875 C 7.390625 -2.304688 7.421875 -1.75 7.484375 -1.375 C 7.546875 -1 7.648438 -0.734375 7.796875 -0.578125 C 7.941406 -0.429688 8.128906 -0.328125 8.359375 -0.265625 L 8.359375 0 Z M 5.0625 0 "/></g></g></g><g fill="#e1c340" fill-opacity="1"><g transform="translate(82.080712, 198.68067)"><g><path d="M 1.3125 0 L 1.3125 -0.265625 C 1.539062 -0.328125 1.726562 -0.429688 1.875 -0.578125 C 2.019531 -0.734375 2.125 -1 2.1875 -1.375 C 2.25 -1.75 2.28125 -2.304688 2.28125 -3.046875 L 2.28125 -13.75 C 2.28125 -14.488281 2.25 -15.046875 2.1875 -15.421875 C 2.125 -15.796875 2.019531 -16.0625 1.875 -16.21875 C 1.726562 -16.382812 1.539062 -16.488281 1.3125 -16.53125 L 1.3125 -16.796875 L 12.09375 -16.796875 L 12.390625 -13.9375 L 12.171875 -13.890625 C 11.796875 -14.835938 11.269531 -15.503906 10.59375 -15.890625 C 9.914062 -16.285156 9.03125 -16.484375 7.9375 -16.484375 L 3.625 -16.484375 L 3.625 -9.09375 L 7.5625 -9.09375 C 8.394531 -9.09375 9.03125 -9.148438 9.46875 -9.265625 C 9.90625 -9.390625 10.21875 -9.5625 10.40625 -9.78125 C 10.59375 -10 10.71875 -10.25 10.78125 -10.53125 L 11.046875 -10.53125 L 11.046875 -7.34375 L 10.78125 -7.34375 C 10.71875 -7.644531 10.59375 -7.898438 10.40625 -8.109375 C 10.21875 -8.316406 9.90625 -8.476562 9.46875 -8.59375 C 9.03125 -8.71875 8.394531 -8.78125 7.5625 -8.78125 L 3.625 -8.78125 L 3.625 -1.265625 C 3.625 -0.628906 3.941406 -0.3125 4.578125 -0.3125 L 8.59375 -0.3125 C 9.675781 -0.3125 10.550781 -0.488281 11.21875 -0.84375 C 11.882812 -1.207031 12.414062 -1.894531 12.8125 -2.90625 L 13.03125 -2.859375 L 12.8125 0 Z M 1.3125 0 "/></g></g></g><g fill="#e1c340" fill-opacity="1"><g transform="translate(100.82474, 198.68067)"><g><path d="M 1.3125 0 L 1.3125 -0.265625 C 1.539062 -0.328125 1.726562 -0.429688 1.875 -0.578125 C 2.019531 -0.734375 2.125 -1 2.1875 -1.375 C 2.25 -1.75 2.28125 -2.304688 2.28125 -3.046875 L 2.28125 -13.75 C 2.28125 -14.488281 2.25 -15.046875 2.1875 -15.421875 C 2.125 -15.796875 2.019531 -16.0625 1.875 -16.21875 C 1.726562 -16.382812 1.539062 -16.488281 1.3125 -16.53125 L 1.3125 -16.796875 L 4.578125 -16.796875 L 4.578125 -16.53125 C 4.359375 -16.488281 4.175781 -16.382812 4.03125 -16.21875 C 3.882812 -16.0625 3.78125 -15.796875 3.71875 -15.421875 C 3.65625 -15.046875 3.625 -14.488281 3.625 -13.75 L 3.625 -1.265625 C 3.625 -0.628906 3.941406 -0.3125 4.578125 -0.3125 L 8.421875 -0.3125 C 9.140625 -0.3125 9.726562 -0.378906 10.1875 -0.515625 C 10.644531 -0.648438 11.019531 -0.875 11.3125 -1.1875 C 11.613281 -1.5 11.882812 -1.910156 12.125 -2.421875 L 12.34375 -2.375 L 12.1875 0 Z M 1.3125 0 "/></g></g></g><g fill="#e1c340" fill-opacity="1"><g transform="translate(118.464766, 198.68067)"><g><path d="M 1.3125 0 L 1.3125 -0.265625 C 1.539062 -0.328125 1.726562 -0.429688 1.875 -0.578125 C 2.019531 -0.734375 2.125 -1 2.1875 -1.375 C 2.25 -1.75 2.28125 -2.304688 2.28125 -3.046875 L 2.28125 -13.75 C 2.28125 -14.488281 2.25 -15.046875 2.1875 -15.421875 C 2.125 -15.796875 2.019531 -16.0625 1.875 -16.21875 C 1.726562 -16.382812 1.539062 -16.488281 1.3125 -16.53125 L 1.3125 -16.796875 L 4.578125 -16.796875 L 4.578125 -16.53125 C 4.359375 -16.488281 4.175781 -16.382812 4.03125 -16.21875 C 3.882812 -16.0625 3.78125 -15.796875 3.71875 -15.421875 C 3.65625 -15.046875 3.625 -14.488281 3.625 -13.75 L 3.625 -3.046875 C 3.625 -2.304688 3.65625 -1.75 3.71875 -1.375 C 3.78125 -1 3.882812 -0.734375 4.03125 -0.578125 C 4.175781 -0.429688 4.359375 -0.328125 4.578125 -0.265625 L 4.578125 0 Z M 1.3125 0 "/></g></g></g><g fill="#e1c340" fill-opacity="1"><g transform="translate(129.120771, 198.68067)"><g><path d="M 1.3125 0 L 1.3125 -0.265625 C 1.539062 -0.328125 1.726562 -0.429688 1.875 -0.578125 C 2.019531 -0.734375 2.125 -1 2.1875 -1.375 C 2.25 -1.75 2.28125 -2.304688 2.28125 -3.046875 L 2.28125 -13.75 C 2.28125 -14.488281 2.25 -15.046875 2.1875 -15.421875 C 2.125 -15.796875 2.019531 -16.0625 1.875 -16.21875 C 1.726562 -16.382812 1.539062 -16.488281 1.3125 -16.53125 L 1.3125 -16.796875 L 12.09375 -16.796875 L 12.390625 -13.9375 L 12.171875 -13.890625 C 11.796875 -14.835938 11.269531 -15.503906 10.59375 -15.890625 C 9.914062 -16.285156 9.03125 -16.484375 7.9375 -16.484375 L 3.625 -16.484375 L 3.625 -9.09375 L 7.5625 -9.09375 C 8.394531 -9.09375 9.03125 -9.148438 9.46875 -9.265625 C 9.90625 -9.390625 10.21875 -9.5625 10.40625 -9.78125 C 10.59375 -10 10.71875 -10.25 10.78125 -10.53125 L 11.046875 -10.53125 L 11.046875 -7.34375 L 10.78125 -7.34375 C 10.71875 -7.644531 10.59375 -7.898438 10.40625 -8.109375 C 10.21875 -8.316406 9.90625 -8.476562 9.46875 -8.59375 C 9.03125 -8.71875 8.394531 -8.78125 7.5625 -8.78125 L 3.625 -8.78125 L 3.625 -1.265625 C 3.625 -0.628906 3.941406 -0.3125 4.578125 -0.3125 L 8.59375 -0.3125 C 9.675781 -0.3125 10.550781 -0.488281 11.21875 -0.84375 C 11.882812 -1.207031 12.414062 -1.894531 12.8125 -2.90625 L 13.03125 -2.859375 L 12.8125 0 Z M 1.3125 0 "/></g></g></g><g fill="#e1c340" fill-opacity="1"><g transform="translate(147.864802, 198.68067)"><g><path d="M 13.5625 0.171875 C 12.988281 0.171875 12.546875 0.0234375 12.234375 -0.265625 C 11.921875 -0.566406 11.65625 -0.984375 11.4375 -1.515625 C 11.21875 -2.054688 10.945312 -2.6875 10.625 -3.40625 C 10.289062 -4.175781 9.992188 -4.890625 9.734375 -5.546875 C 9.484375 -6.203125 9.191406 -6.765625 8.859375 -7.234375 C 8.523438 -7.703125 8.078125 -8.066406 7.515625 -8.328125 C 6.953125 -8.597656 6.207031 -8.734375 5.28125 -8.734375 L 3.625 -8.734375 L 3.625 -3.046875 C 3.625 -2.304688 3.65625 -1.75 3.71875 -1.375 C 3.78125 -1 3.882812 -0.734375 4.03125 -0.578125 C 4.175781 -0.429688 4.359375 -0.328125 4.578125 -0.265625 L 4.578125 0 L 1.3125 0 L 1.3125 -0.265625 C 1.539062 -0.328125 1.726562 -0.429688 1.875 -0.578125 C 2.019531 -0.734375 2.125 -1 2.1875 -1.375 C 2.25 -1.75 2.28125 -2.304688 2.28125 -3.046875 L 2.28125 -13.75 C 2.28125 -14.488281 2.25 -15.046875 2.1875 -15.421875 C 2.125 -15.796875 2.019531 -16.0625 1.875 -16.21875 C 1.726562 -16.382812 1.539062 -16.488281 1.3125 -16.53125 L 1.3125 -16.796875 L 5.734375 -16.796875 C 7.972656 -16.796875 9.582031 -16.476562 10.5625 -15.84375 C 11.539062 -15.21875 12.03125 -14.320312 12.03125 -13.15625 C 12.03125 -12 11.609375 -11.019531 10.765625 -10.21875 C 9.921875 -9.425781 8.734375 -8.945312 7.203125 -8.78125 C 8.003906 -8.664062 8.648438 -8.46875 9.140625 -8.1875 C 9.640625 -7.914062 10.039062 -7.5625 10.34375 -7.125 C 10.644531 -6.695312 10.90625 -6.203125 11.125 -5.640625 C 11.351562 -5.078125 11.597656 -4.460938 11.859375 -3.796875 C 12.367188 -2.523438 12.8125 -1.601562 13.1875 -1.03125 C 13.5625 -0.46875 13.941406 -0.1875 14.328125 -0.1875 C 14.410156 -0.1875 14.484375 -0.191406 14.546875 -0.203125 C 14.609375 -0.210938 14.671875 -0.222656 14.734375 -0.234375 L 14.734375 0 C 14.648438 0.03125 14.5 0.0664062 14.28125 0.109375 C 14.070312 0.148438 13.832031 0.171875 13.5625 0.171875 Z M 3.625 -9.078125 L 6.171875 -9.078125 C 7.554688 -9.078125 8.628906 -9.382812 9.390625 -10 C 10.148438 -10.625 10.53125 -11.5 10.53125 -12.625 C 10.53125 -13.8125 10.101562 -14.75 9.25 -15.4375 C 8.394531 -16.132812 6.921875 -16.484375 4.828125 -16.484375 C 4.628906 -16.484375 4.429688 -16.476562 4.234375 -16.46875 C 4.046875 -16.46875 3.84375 -16.457031 3.625 -16.4375 Z M 3.625 -9.078125 "/></g></g></g><g fill="#e1c340" fill-opacity="1"><g transform="translate(167.136834, 198.68067)"><g><path d="M 6.8125 0.234375 C 5.96875 0.234375 5.1875 0.144531 4.46875 -0.03125 C 3.75 -0.21875 3.113281 -0.441406 2.5625 -0.703125 C 2.019531 -0.972656 1.582031 -1.226562 1.25 -1.46875 L 1.078125 -4.53125 L 1.3125 -4.5625 C 1.59375 -3.789062 1.957031 -3.066406 2.40625 -2.390625 C 2.863281 -1.722656 3.476562 -1.175781 4.25 -0.75 C 5.019531 -0.332031 5.988281 -0.125 7.15625 -0.125 C 7.882812 -0.125 8.546875 -0.269531 9.140625 -0.5625 C 9.734375 -0.863281 10.207031 -1.265625 10.5625 -1.765625 C 10.925781 -2.265625 11.109375 -2.835938 11.109375 -3.484375 C 11.109375 -4.085938 10.957031 -4.617188 10.65625 -5.078125 C 10.351562 -5.546875 9.957031 -5.953125 9.46875 -6.296875 C 8.976562 -6.640625 8.445312 -6.9375 7.875 -7.1875 C 7.300781 -7.445312 6.75 -7.679688 6.21875 -7.890625 C 4.601562 -8.535156 3.410156 -9.203125 2.640625 -9.890625 C 1.867188 -10.578125 1.484375 -11.488281 1.484375 -12.625 C 1.484375 -13.5 1.710938 -14.257812 2.171875 -14.90625 C 2.640625 -15.5625 3.285156 -16.066406 4.109375 -16.421875 C 4.941406 -16.785156 5.898438 -16.96875 6.984375 -16.96875 C 8.304688 -16.96875 9.351562 -16.816406 10.125 -16.515625 C 10.894531 -16.210938 11.429688 -15.960938 11.734375 -15.765625 L 11.828125 -13.34375 L 11.640625 -13.296875 C 11.378906 -13.859375 11.039062 -14.390625 10.625 -14.890625 C 10.21875 -15.390625 9.671875 -15.800781 8.984375 -16.125 C 8.304688 -16.445312 7.429688 -16.609375 6.359375 -16.609375 C 5.703125 -16.609375 5.082031 -16.484375 4.5 -16.234375 C 3.925781 -15.984375 3.460938 -15.613281 3.109375 -15.125 C 2.765625 -14.644531 2.59375 -14.023438 2.59375 -13.265625 C 2.59375 -12.679688 2.734375 -12.171875 3.015625 -11.734375 C 3.296875 -11.304688 3.664062 -10.929688 4.125 -10.609375 C 4.59375 -10.285156 5.101562 -9.992188 5.65625 -9.734375 C 6.21875 -9.484375 6.769531 -9.25 7.3125 -9.03125 C 8.28125 -8.644531 9.132812 -8.242188 9.875 -7.828125 C 10.613281 -7.410156 11.195312 -6.925781 11.625 -6.375 C 12.050781 -5.820312 12.265625 -5.117188 12.265625 -4.265625 C 12.265625 -3.390625 12.007812 -2.609375 11.5 -1.921875 C 11 -1.242188 10.335938 -0.710938 9.515625 -0.328125 C 8.691406 0.046875 7.789062 0.234375 6.8125 0.234375 Z M 6.8125 0.234375 "/></g></g></g><g fill="#e1c340" fill-opacity="1"><g transform="translate(185.040863, 198.68067)"><g/></g></g><g fill="#e1c340" fill-opacity="1"><g transform="translate(195.072868, 198.68067)"><g><path d="M 1.3125 0 L 1.3125 -0.265625 C 1.539062 -0.328125 1.726562 -0.429688 1.875 -0.578125 C 2.019531 -0.734375 2.125 -1 2.1875 -1.375 C 2.25 -1.75 2.28125 -2.304688 2.28125 -3.046875 L 2.28125 -13.75 C 2.28125 -14.488281 2.25 -15.046875 2.1875 -15.421875 C 2.125 -15.796875 2.019531 -16.0625 1.875 -16.21875 C 1.726562 -16.382812 1.539062 -16.488281 1.3125 -16.53125 L 1.3125 -16.796875 L 6.796875 -16.796875 C 8.359375 -16.796875 9.710938 -16.578125 10.859375 -16.140625 C 12.015625 -15.703125 12.972656 -15.101562 13.734375 -14.34375 C 14.492188 -13.59375 15.066406 -12.726562 15.453125 -11.75 C 15.835938 -10.78125 16.03125 -9.757812 16.03125 -8.6875 C 16.03125 -7.46875 15.828125 -6.332031 15.421875 -5.28125 C 15.023438 -4.226562 14.445312 -3.300781 13.6875 -2.5 C 12.925781 -1.707031 12.015625 -1.09375 10.953125 -0.65625 C 9.890625 -0.21875 8.695312 0 7.375 0 Z M 3.625 -2.09375 C 3.625 -1.53125 3.71875 -1.097656 3.90625 -0.796875 C 4.101562 -0.492188 4.53125 -0.34375 5.1875 -0.34375 L 7.4375 -0.34375 C 9.726562 -0.34375 11.476562 -1.003906 12.6875 -2.328125 C 13.90625 -3.648438 14.515625 -5.53125 14.515625 -7.96875 C 14.515625 -9.132812 14.320312 -10.226562 13.9375 -11.25 C 13.5625 -12.28125 13.003906 -13.1875 12.265625 -13.96875 C 11.523438 -14.75 10.625 -15.363281 9.5625 -15.8125 C 8.507812 -16.257812 7.3125 -16.484375 5.96875 -16.484375 L 3.625 -16.484375 Z M 3.625 -2.09375 "/></g></g></g><g fill="#e1c340" fill-opacity="1"><g transform="translate(217.056898, 198.68067)"><g><path d="M 1.3125 0 L 1.3125 -0.265625 C 1.539062 -0.328125 1.726562 -0.429688 1.875 -0.578125 C 2.019531 -0.734375 2.125 -1 2.1875 -1.375 C 2.25 -1.75 2.28125 -2.304688 2.28125 -3.046875 L 2.28125 -13.75 C 2.28125 -14.488281 2.25 -15.046875 2.1875 -15.421875 C 2.125 -15.796875 2.019531 -16.0625 1.875 -16.21875 C 1.726562 -16.382812 1.539062 -16.488281 1.3125 -16.53125 L 1.3125 -16.796875 L 12.09375 -16.796875 L 12.390625 -13.9375 L 12.171875 -13.890625 C 11.796875 -14.835938 11.269531 -15.503906 10.59375 -15.890625 C 9.914062 -16.285156 9.03125 -16.484375 7.9375 -16.484375 L 3.625 -16.484375 L 3.625 -9.09375 L 7.5625 -9.09375 C 8.394531 -9.09375 9.03125 -9.148438 9.46875 -9.265625 C 9.90625 -9.390625 10.21875 -9.5625 10.40625 -9.78125 C 10.59375 -10 10.71875 -10.25 10.78125 -10.53125 L 11.046875 -10.53125 L 11.046875 -7.34375 L 10.78125 -7.34375 C 10.71875 -7.644531 10.59375 -7.898438 10.40625 -8.109375 C 10.21875 -8.316406 9.90625 -8.476562 9.46875 -8.59375 C 9.03125 -8.71875 8.394531 -8.78125 7.5625 -8.78125 L 3.625 -8.78125 L 3.625 -1.265625 C 3.625 -0.628906 3.941406 -0.3125 4.578125 -0.3125 L 8.59375 -0.3125 C 9.675781 -0.3125 10.550781 -0.488281 11.21875 -0.84375 C 11.882812 -1.207031 12.414062 -1.894531 12.8125 -2.90625 L 13.03125 -2.859375 L 12.8125 0 Z M 1.3125 0 "/></g></g></g><g fill="#e1c340" fill-opacity="1"><g transform="translate(235.800923, 198.68067)"><g/></g></g><g fill="#e1c340" fill-opacity="1"><g transform="translate(245.832927, 198.68067)"><g><path d="M 6.8125 0.234375 C 5.96875 0.234375 5.1875 0.144531 4.46875 -0.03125 C 3.75 -0.21875 3.113281 -0.441406 2.5625 -0.703125 C 2.019531 -0.972656 1.582031 -1.226562 1.25 -1.46875 L 1.078125 -4.53125 L 1.3125 -4.5625 C 1.59375 -3.789062 1.957031 -3.066406 2.40625 -2.390625 C 2.863281 -1.722656 3.476562 -1.175781 4.25 -0.75 C 5.019531 -0.332031 5.988281 -0.125 7.15625 -0.125 C 7.882812 -0.125 8.546875 -0.269531 9.140625 -0.5625 C 9.734375 -0.863281 10.207031 -1.265625 10.5625 -1.765625 C 10.925781 -2.265625 11.109375 -2.835938 11.109375 -3.484375 C 11.109375 -4.085938 10.957031 -4.617188 10.65625 -5.078125 C 10.351562 -5.546875 9.957031 -5.953125 9.46875 -6.296875 C 8.976562 -6.640625 8.445312 -6.9375 7.875 -7.1875 C 7.300781 -7.445312 6.75 -7.679688 6.21875 -7.890625 C 4.601562 -8.535156 3.410156 -9.203125 2.640625 -9.890625 C 1.867188 -10.578125 1.484375 -11.488281 1.484375 -12.625 C 1.484375 -13.5 1.710938 -14.257812 2.171875 -14.90625 C 2.640625 -15.5625 3.285156 -16.066406 4.109375 -16.421875 C 4.941406 -16.785156 5.898438 -16.96875 6.984375 -16.96875 C 8.304688 -16.96875 9.351562 -16.816406 10.125 -16.515625 C 10.894531 -16.210938 11.429688 -15.960938 11.734375 -15.765625 L 11.828125 -13.34375 L 11.640625 -13.296875 C 11.378906 -13.859375 11.039062 -14.390625 10.625 -14.890625 C 10.21875 -15.390625 9.671875 -15.800781 8.984375 -16.125 C 8.304688 -16.445312 7.429688 -16.609375 6.359375 -16.609375 C 5.703125 -16.609375 5.082031 -16.484375 4.5 -16.234375 C 3.925781 -15.984375 3.460938 -15.613281 3.109375 -15.125 C 2.765625 -14.644531 2.59375 -14.023438 2.59375 -13.265625 C 2.59375 -12.679688 2.734375 -12.171875 3.015625 -11.734375 C 3.296875 -11.304688 3.664062 -10.929688 4.125 -10.609375 C 4.59375 -10.285156 5.101562 -9.992188 5.65625 -9.734375 C 6.21875 -9.484375 6.769531 -9.25 7.3125 -9.03125 C 8.28125 -8.644531 9.132812 -8.242188 9.875 -7.828125 C 10.613281 -7.410156 11.195312 -6.925781 11.625 -6.375 C 12.050781 -5.820312 12.265625 -5.117188 12.265625 -4.265625 C 12.265625 -3.390625 12.007812 -2.609375 11.5 -1.921875 C 11 -1.242188 10.335938 -0.710938 9.515625 -0.328125 C 8.691406 0.046875 7.789062 0.234375 6.8125 0.234375 Z M 6.8125 0.234375 "/></g></g></g><g fill="#e1c340" fill-opacity="1"><g transform="translate(263.736956, 198.68067)"><g><path d="M 5.0625 0 L 5.0625 -0.265625 C 5.289062 -0.328125 5.472656 -0.429688 5.609375 -0.578125 C 5.753906 -0.734375 5.859375 -1 5.921875 -1.375 C 5.992188 -1.75 6.03125 -2.304688 6.03125 -3.046875 L 6.03125 -16.484375 L 4.375 -16.484375 C 3.644531 -16.484375 3.050781 -16.414062 2.59375 -16.28125 C 2.144531 -16.144531 1.769531 -15.921875 1.46875 -15.609375 C 1.175781 -15.296875 0.910156 -14.882812 0.671875 -14.375 L 0.453125 -14.421875 L 0.59375 -16.796875 L 12.765625 -16.796875 L 12.90625 -14.421875 L 12.703125 -14.375 C 12.460938 -14.882812 12.191406 -15.296875 11.890625 -15.609375 C 11.597656 -15.921875 11.222656 -16.144531 10.765625 -16.28125 C 10.304688 -16.414062 9.71875 -16.484375 9 -16.484375 L 7.390625 -16.484375 L 7.390625 -3.046875 C 7.390625 -2.304688 7.421875 -1.75 7.484375 -1.375 C 7.546875 -1 7.648438 -0.734375 7.796875 -0.578125 C 7.941406 -0.429688 8.128906 -0.328125 8.359375 -0.265625 L 8.359375 0 Z M 5.0625 0 "/></g></g></g><g fill="#e1c340" fill-opacity="1"><g transform="translate(281.904978, 198.68067)"><g><path d="M 4.65625 0 L 4.65625 -0.265625 C 4.875 -0.328125 5.054688 -0.429688 5.203125 -0.578125 C 5.347656 -0.734375 5.453125 -1 5.515625 -1.375 C 5.578125 -1.75 5.609375 -2.304688 5.609375 -3.046875 L 5.59375 -7.4375 L 1.890625 -14.140625 C 1.546875 -14.773438 1.238281 -15.253906 0.96875 -15.578125 C 0.707031 -15.898438 0.476562 -16.128906 0.28125 -16.265625 C 0.09375 -16.398438 -0.078125 -16.488281 -0.234375 -16.53125 L -0.234375 -16.796875 L 2.8125 -16.796875 L 2.8125 -16.53125 C 2.582031 -16.488281 2.445312 -16.398438 2.40625 -16.265625 C 2.375 -16.128906 2.429688 -15.898438 2.578125 -15.578125 C 2.734375 -15.253906 2.988281 -14.773438 3.34375 -14.140625 L 6.8125 -7.9375 L 10.3125 -14.140625 C 10.726562 -14.859375 10.960938 -15.414062 11.015625 -15.8125 C 11.066406 -16.21875 10.882812 -16.457031 10.46875 -16.53125 L 10.46875 -16.796875 L 13.078125 -16.796875 L 13.078125 -16.53125 C 12.890625 -16.488281 12.675781 -16.398438 12.4375 -16.265625 C 12.207031 -16.128906 11.957031 -15.898438 11.6875 -15.578125 C 11.414062 -15.253906 11.097656 -14.773438 10.734375 -14.140625 L 6.984375 -7.484375 L 6.984375 -3.046875 C 6.984375 -2.304688 7.015625 -1.75 7.078125 -1.375 C 7.140625 -1 7.242188 -0.734375 7.390625 -0.578125 C 7.535156 -0.429688 7.71875 -0.328125 7.9375 -0.265625 L 7.9375 0 Z M 4.65625 0 "/></g></g></g><g fill="#e1c340" fill-opacity="1"><g transform="translate(299.497018, 198.68067)"><g><path d="M 1.3125 0 L 1.3125 -0.265625 C 1.539062 -0.328125 1.726562 -0.429688 1.875 -0.578125 C 2.019531 -0.734375 2.125 -1 2.1875 -1.375 C 2.25 -1.75 2.28125 -2.304688 2.28125 -3.046875 L 2.28125 -13.75 C 2.28125 -14.488281 2.25 -15.046875 2.1875 -15.421875 C 2.125 -15.796875 2.019531 -16.0625 1.875 -16.21875 C 1.726562 -16.382812 1.539062 -16.488281 1.3125 -16.53125 L 1.3125 -16.796875 L 4.578125 -16.796875 L 4.578125 -16.53125 C 4.359375 -16.488281 4.175781 -16.382812 4.03125 -16.21875 C 3.882812 -16.0625 3.78125 -15.796875 3.71875 -15.421875 C 3.65625 -15.046875 3.625 -14.488281 3.625 -13.75 L 3.625 -1.265625 C 3.625 -0.628906 3.941406 -0.3125 4.578125 -0.3125 L 8.421875 -0.3125 C 9.140625 -0.3125 9.726562 -0.378906 10.1875 -0.515625 C 10.644531 -0.648438 11.019531 -0.875 11.3125 -1.1875 C 11.613281 -1.5 11.882812 -1.910156 12.125 -2.421875 L 12.34375 -2.375 L 12.1875 0 Z M 1.3125 0 "/></g></g></g><g fill="#e1c340" fill-opacity="1"><g transform="translate(317.137054, 198.68067)"><g><path d="M 1.3125 0 L 1.3125 -0.265625 C 1.539062 -0.328125 1.726562 -0.429688 1.875 -0.578125 C 2.019531 -0.734375 2.125 -1 2.1875 -1.375 C 2.25 -1.75 2.28125 -2.304688 2.28125 -3.046875 L 2.28125 -13.75 C 2.28125 -14.488281 2.25 -15.046875 2.1875 -15.421875 C 2.125 -15.796875 2.019531 -16.0625 1.875 -16.21875 C 1.726562 -16.382812 1.539062 -16.488281 1.3125 -16.53125 L 1.3125 -16.796875 L 12.09375 -16.796875 L 12.390625 -13.9375 L 12.171875 -13.890625 C 11.796875 -14.835938 11.269531 -15.503906 10.59375 -15.890625 C 9.914062 -16.285156 9.03125 -16.484375 7.9375 -16.484375 L 3.625 -16.484375 L 3.625 -9.09375 L 7.5625 -9.09375 C 8.394531 -9.09375 9.03125 -9.148438 9.46875 -9.265625 C 9.90625 -9.390625 10.21875 -9.5625 10.40625 -9.78125 C 10.59375 -10 10.71875 -10.25 10.78125 -10.53125 L 11.046875 -10.53125 L 11.046875 -7.34375 L 10.78125 -7.34375 C 10.71875 -7.644531 10.59375 -7.898438 10.40625 -8.109375 C 10.21875 -8.316406 9.90625 -8.476562 9.46875 -8.59375 C 9.03125 -8.71875 8.394531 -8.78125 7.5625 -8.78125 L 3.625 -8.78125 L 3.625 -1.265625 C 3.625 -0.628906 3.941406 -0.3125 4.578125 -0.3125 L 8.59375 -0.3125 C 9.675781 -0.3125 10.550781 -0.488281 11.21875 -0.84375 C 11.882812 -1.207031 12.414062 -1.894531 12.8125 -2.90625 L 13.03125 -2.859375 L 12.8125 0 Z M 1.3125 0 "/></g></g></g><g fill="#e1c340" fill-opacity="1"><g transform="translate(112.260312, 219.62628)"><g><path d="M 2.0625 0.140625 C 1.695312 0.140625 1.429688 0.015625 1.265625 -0.234375 C 1.097656 -0.484375 1.015625 -0.78125 1.015625 -1.125 C 1.015625 -1.375 1.039062 -1.671875 1.09375 -2.015625 C 1.144531 -2.359375 1.203125 -2.648438 1.265625 -2.890625 L 2.625 -9.515625 C 2.644531 -9.609375 2.660156 -9.695312 2.671875 -9.78125 C 2.679688 -9.863281 2.6875 -9.929688 2.6875 -9.984375 C 2.6875 -10.191406 2.609375 -10.328125 2.453125 -10.390625 C 2.304688 -10.460938 2.117188 -10.5 1.890625 -10.5 L 1.515625 -10.5 L 1.546875 -10.640625 L 3.765625 -10.640625 L 2.09375 -2.625 C 2.050781 -2.457031 2.007812 -2.234375 1.96875 -1.953125 C 1.925781 -1.679688 1.90625 -1.453125 1.90625 -1.265625 C 1.90625 -0.941406 1.945312 -0.6875 2.03125 -0.5 C 2.113281 -0.320312 2.265625 -0.234375 2.484375 -0.234375 C 2.671875 -0.234375 2.851562 -0.273438 3.03125 -0.359375 C 3.207031 -0.441406 3.382812 -0.554688 3.5625 -0.703125 L 3.640625 -0.59375 C 3.429688 -0.40625 3.191406 -0.234375 2.921875 -0.078125 C 2.648438 0.0664062 2.363281 0.140625 2.0625 0.140625 Z M 2.0625 0.140625 "/></g></g></g><g fill="#e1c340" fill-opacity="1"><g transform="translate(118.502159, 219.62628)"><g><path d="M 6.015625 0.140625 C 5.679688 0.140625 5.429688 0.015625 5.265625 -0.234375 C 5.109375 -0.484375 5.03125 -0.796875 5.03125 -1.171875 C 5.03125 -1.265625 5.03125 -1.378906 5.03125 -1.515625 C 5.039062 -1.660156 5.054688 -1.820312 5.078125 -2 L 5.046875 -2 C 4.710938 -1.34375 4.328125 -0.820312 3.890625 -0.4375 C 3.460938 -0.0625 2.953125 0.125 2.359375 0.125 C 1.835938 0.125 1.46875 -0.03125 1.25 -0.34375 C 1.03125 -0.65625 0.921875 -1.015625 0.921875 -1.421875 C 0.921875 -1.660156 0.953125 -1.929688 1.015625 -2.234375 C 1.085938 -2.535156 1.15625 -2.816406 1.21875 -3.078125 L 1.84375 -5.828125 C 1.882812 -6.003906 1.921875 -6.191406 1.953125 -6.390625 C 1.992188 -6.597656 2.015625 -6.75 2.015625 -6.84375 C 2.015625 -7.070312 1.9375 -7.210938 1.78125 -7.265625 C 1.625 -7.328125 1.398438 -7.359375 1.109375 -7.359375 L 0.90625 -7.359375 L 0.9375 -7.5 L 3.125 -7.5 L 2.15625 -3.28125 C 2.09375 -3.007812 2.023438 -2.695312 1.953125 -2.34375 C 1.878906 -1.988281 1.84375 -1.707031 1.84375 -1.5 C 1.84375 -1.070312 1.910156 -0.742188 2.046875 -0.515625 C 2.191406 -0.285156 2.425781 -0.171875 2.75 -0.171875 C 3.050781 -0.171875 3.335938 -0.257812 3.609375 -0.4375 C 3.878906 -0.625 4.125 -0.851562 4.34375 -1.125 C 4.5625 -1.40625 4.742188 -1.695312 4.890625 -2 C 5.035156 -2.300781 5.132812 -2.5625 5.1875 -2.78125 L 6.171875 -7.5 L 7.09375 -7.5 L 6.125 -2.921875 C 6.070312 -2.710938 6.019531 -2.4375 5.96875 -2.09375 C 5.914062 -1.75 5.890625 -1.460938 5.890625 -1.234375 C 5.890625 -0.910156 5.929688 -0.65625 6.015625 -0.46875 C 6.109375 -0.289062 6.253906 -0.203125 6.453125 -0.203125 C 6.628906 -0.203125 6.789062 -0.242188 6.9375 -0.328125 C 7.09375 -0.410156 7.25 -0.515625 7.40625 -0.640625 L 7.484375 -0.546875 C 7.316406 -0.390625 7.101562 -0.234375 6.84375 -0.078125 C 6.59375 0.0664062 6.316406 0.140625 6.015625 0.140625 Z M 6.015625 0.140625 "/></g></g></g><g fill="#e1c340" fill-opacity="1"><g transform="translate(128.605849, 219.62628)"><g><path d="M -0.328125 0 L -0.296875 -0.140625 L -0.109375 -0.140625 C 0.0976562 -0.140625 0.269531 -0.15625 0.40625 -0.1875 C 0.539062 -0.21875 0.675781 -0.289062 0.8125 -0.40625 C 0.945312 -0.53125 1.109375 -0.722656 1.296875 -0.984375 L 3.234375 -3.6875 L 2.21875 -6.484375 C 2.082031 -6.847656 1.96875 -7.082031 1.875 -7.1875 C 1.789062 -7.300781 1.640625 -7.359375 1.421875 -7.359375 L 1.1875 -7.359375 L 1.21875 -7.5 L 2.765625 -7.5 L 3.84375 -4.34375 L 6.0625 -7.5 L 7.1875 -7.5 L 7.140625 -7.359375 L 6.9375 -7.359375 C 6.695312 -7.359375 6.472656 -7.304688 6.265625 -7.203125 C 6.066406 -7.109375 5.828125 -6.863281 5.546875 -6.46875 L 3.921875 -4.1875 L 5.0625 -0.953125 C 5.144531 -0.722656 5.210938 -0.550781 5.265625 -0.4375 C 5.328125 -0.320312 5.398438 -0.242188 5.484375 -0.203125 C 5.578125 -0.160156 5.710938 -0.140625 5.890625 -0.140625 L 6.046875 -0.140625 L 6.015625 0 L 4.484375 0 L 3.296875 -3.53125 L 0.8125 0 Z M -0.328125 0 "/></g></g></g><g fill="#e1c340" fill-opacity="1"><g transform="translate(137.939968, 219.62628)"><g><path d="M 6.015625 0.140625 C 5.679688 0.140625 5.429688 0.015625 5.265625 -0.234375 C 5.109375 -0.484375 5.03125 -0.796875 5.03125 -1.171875 C 5.03125 -1.265625 5.03125 -1.378906 5.03125 -1.515625 C 5.039062 -1.660156 5.054688 -1.820312 5.078125 -2 L 5.046875 -2 C 4.710938 -1.34375 4.328125 -0.820312 3.890625 -0.4375 C 3.460938 -0.0625 2.953125 0.125 2.359375 0.125 C 1.835938 0.125 1.46875 -0.03125 1.25 -0.34375 C 1.03125 -0.65625 0.921875 -1.015625 0.921875 -1.421875 C 0.921875 -1.660156 0.953125 -1.929688 1.015625 -2.234375 C 1.085938 -2.535156 1.15625 -2.816406 1.21875 -3.078125 L 1.84375 -5.828125 C 1.882812 -6.003906 1.921875 -6.191406 1.953125 -6.390625 C 1.992188 -6.597656 2.015625 -6.75 2.015625 -6.84375 C 2.015625 -7.070312 1.9375 -7.210938 1.78125 -7.265625 C 1.625 -7.328125 1.398438 -7.359375 1.109375 -7.359375 L 0.90625 -7.359375 L 0.9375 -7.5 L 3.125 -7.5 L 2.15625 -3.28125 C 2.09375 -3.007812 2.023438 -2.695312 1.953125 -2.34375 C 1.878906 -1.988281 1.84375 -1.707031 1.84375 -1.5 C 1.84375 -1.070312 1.910156 -0.742188 2.046875 -0.515625 C 2.191406 -0.285156 2.425781 -0.171875 2.75 -0.171875 C 3.050781 -0.171875 3.335938 -0.257812 3.609375 -0.4375 C 3.878906 -0.625 4.125 -0.851562 4.34375 -1.125 C 4.5625 -1.40625 4.742188 -1.695312 4.890625 -2 C 5.035156 -2.300781 5.132812 -2.5625 5.1875 -2.78125 L 6.171875 -7.5 L 7.09375 -7.5 L 6.125 -2.921875 C 6.070312 -2.710938 6.019531 -2.4375 5.96875 -2.09375 C 5.914062 -1.75 5.890625 -1.460938 5.890625 -1.234375 C 5.890625 -0.910156 5.929688 -0.65625 6.015625 -0.46875 C 6.109375 -0.289062 6.253906 -0.203125 6.453125 -0.203125 C 6.628906 -0.203125 6.789062 -0.242188 6.9375 -0.328125 C 7.09375 -0.410156 7.25 -0.515625 7.40625 -0.640625 L 7.484375 -0.546875 C 7.316406 -0.390625 7.101562 -0.234375 6.84375 -0.078125 C 6.59375 0.0664062 6.316406 0.140625 6.015625 0.140625 Z M 6.015625 0.140625 "/></g></g></g><g fill="#e1c340" fill-opacity="1"><g transform="translate(148.043659, 219.62628)"><g><path d="M 0.75 0 L 2.03125 -6.125 C 2.0625 -6.269531 2.082031 -6.398438 2.09375 -6.515625 C 2.101562 -6.628906 2.109375 -6.71875 2.109375 -6.78125 C 2.109375 -7.03125 2.015625 -7.1875 1.828125 -7.25 C 1.640625 -7.320312 1.398438 -7.359375 1.109375 -7.359375 L 0.90625 -7.359375 L 0.9375 -7.5 L 3.0625 -7.5 L 2.75 -5.578125 L 2.765625 -5.578125 C 2.941406 -5.941406 3.132812 -6.28125 3.34375 -6.59375 C 3.550781 -6.914062 3.789062 -7.171875 4.0625 -7.359375 C 4.34375 -7.546875 4.671875 -7.640625 5.046875 -7.640625 C 5.429688 -7.640625 5.707031 -7.550781 5.875 -7.375 C 6.039062 -7.195312 6.125 -6.988281 6.125 -6.75 C 6.125 -6.507812 6.050781 -6.320312 5.90625 -6.1875 C 5.769531 -6.050781 5.566406 -5.984375 5.296875 -5.984375 C 5.304688 -6.046875 5.3125 -6.101562 5.3125 -6.15625 C 5.3125 -6.21875 5.3125 -6.269531 5.3125 -6.3125 C 5.3125 -6.976562 5.085938 -7.3125 4.640625 -7.3125 C 4.390625 -7.3125 4.15625 -7.222656 3.9375 -7.046875 C 3.71875 -6.867188 3.519531 -6.640625 3.34375 -6.359375 C 3.164062 -6.078125 3.015625 -5.78125 2.890625 -5.46875 C 2.765625 -5.15625 2.675781 -4.867188 2.625 -4.609375 L 1.65625 0 Z M 0.75 0 "/></g></g></g><g fill="#e1c340" fill-opacity="1"><g transform="translate(156.426318, 219.62628)"><g><path d="M -0.84375 3.359375 C -1.300781 3.359375 -1.707031 3.273438 -2.0625 3.109375 L -2.015625 2.984375 C -1.898438 3.023438 -1.75 3.0625 -1.5625 3.09375 C -1.382812 3.132812 -1.15625 3.15625 -0.875 3.15625 C -0.269531 3.15625 0.269531 3.0625 0.75 2.875 C 1.226562 2.695312 1.671875 2.398438 2.078125 1.984375 C 2.484375 1.578125 2.890625 1.039062 3.296875 0.375 L 1.171875 -6.703125 C 1.085938 -6.972656 1 -7.148438 0.90625 -7.234375 C 0.820312 -7.316406 0.65625 -7.359375 0.40625 -7.359375 L 0.234375 -7.359375 L 0.265625 -7.5 L 1.890625 -7.5 L 3.203125 -3.125 C 3.265625 -2.882812 3.34375 -2.59375 3.4375 -2.25 C 3.53125 -1.90625 3.617188 -1.566406 3.703125 -1.234375 C 3.785156 -0.910156 3.84375 -0.664062 3.875 -0.5 L 3.90625 -0.5 C 4.164062 -0.914062 4.425781 -1.359375 4.6875 -1.828125 C 4.957031 -2.296875 5.203125 -2.769531 5.421875 -3.25 C 5.648438 -3.726562 5.832031 -4.195312 5.96875 -4.65625 C 6.113281 -5.113281 6.1875 -5.539062 6.1875 -5.9375 C 6.1875 -6.28125 6.101562 -6.523438 5.9375 -6.671875 C 5.769531 -6.828125 5.5 -6.90625 5.125 -6.90625 C 5.125 -7.125 5.191406 -7.296875 5.328125 -7.421875 C 5.460938 -7.546875 5.613281 -7.609375 5.78125 -7.609375 C 6.007812 -7.609375 6.1875 -7.515625 6.3125 -7.328125 C 6.445312 -7.148438 6.515625 -6.859375 6.515625 -6.453125 C 6.515625 -5.609375 6.296875 -4.710938 5.859375 -3.765625 C 5.421875 -2.828125 4.878906 -1.816406 4.234375 -0.734375 C 3.785156 -0.00390625 3.378906 0.617188 3.015625 1.140625 C 2.660156 1.671875 2.296875 2.097656 1.921875 2.421875 C 1.554688 2.742188 1.15625 2.976562 0.71875 3.125 C 0.28125 3.28125 -0.238281 3.359375 -0.84375 3.359375 Z M -0.84375 3.359375 "/></g></g></g><g fill="#e1c340" fill-opacity="1"><g transform="translate(165.620521, 219.62628)"><g/></g></g><g fill="#e1c340" fill-opacity="1"><g transform="translate(171.498572, 219.62628)"><g><path d="M 6.078125 0.140625 C 5.710938 0.140625 5.4375 0.0195312 5.25 -0.21875 C 5.0625 -0.46875 4.96875 -0.800781 4.96875 -1.21875 C 4.96875 -1.644531 5.050781 -2.238281 5.21875 -3 L 5.546875 -4.421875 C 5.597656 -4.660156 5.65625 -4.9375 5.71875 -5.25 C 5.789062 -5.570312 5.828125 -5.878906 5.828125 -6.171875 C 5.828125 -6.460938 5.765625 -6.726562 5.640625 -6.96875 C 5.523438 -7.207031 5.289062 -7.328125 4.9375 -7.328125 C 4.644531 -7.328125 4.359375 -7.226562 4.078125 -7.03125 C 3.804688 -6.84375 3.5625 -6.601562 3.34375 -6.3125 C 3.125 -6.03125 2.941406 -5.742188 2.796875 -5.453125 C 2.648438 -5.171875 2.550781 -4.9375 2.5 -4.75 L 1.515625 0 L 0.609375 0 L 2.5625 -9.375 C 2.601562 -9.519531 2.628906 -9.644531 2.640625 -9.75 C 2.648438 -9.851562 2.65625 -9.929688 2.65625 -9.984375 C 2.65625 -10.191406 2.570312 -10.328125 2.40625 -10.390625 C 2.25 -10.460938 2.015625 -10.5 1.703125 -10.5 L 1.515625 -10.5 L 1.546875 -10.640625 L 3.71875 -10.640625 L 3.09375 -7.640625 C 3.019531 -7.265625 2.941406 -6.890625 2.859375 -6.515625 C 2.773438 -6.148438 2.703125 -5.863281 2.640625 -5.65625 L 2.6875 -5.65625 C 3.070312 -6.3125 3.472656 -6.800781 3.890625 -7.125 C 4.316406 -7.445312 4.785156 -7.609375 5.296875 -7.609375 C 5.828125 -7.609375 6.195312 -7.457031 6.40625 -7.15625 C 6.625 -6.863281 6.734375 -6.515625 6.734375 -6.109375 C 6.734375 -5.878906 6.703125 -5.625 6.640625 -5.34375 C 6.578125 -5.070312 6.523438 -4.820312 6.484375 -4.59375 L 6.09375 -2.84375 C 6.019531 -2.53125 5.960938 -2.234375 5.921875 -1.953125 C 5.878906 -1.671875 5.859375 -1.414062 5.859375 -1.1875 C 5.859375 -0.53125 6.082031 -0.203125 6.53125 -0.203125 C 6.800781 -0.203125 7.113281 -0.359375 7.46875 -0.671875 L 7.546875 -0.5625 C 7.328125 -0.375 7.101562 -0.207031 6.875 -0.0625 C 6.644531 0.0703125 6.378906 0.140625 6.078125 0.140625 Z M 6.078125 0.140625 "/></g></g></g><g fill="#e1c340" fill-opacity="1"><g transform="translate(181.64424, 219.62628)"><g><path d="M 2.171875 0.140625 C 1.578125 0.140625 1.144531 -0.0820312 0.875 -0.53125 C 0.601562 -0.976562 0.46875 -1.585938 0.46875 -2.359375 C 0.46875 -2.796875 0.519531 -3.253906 0.625 -3.734375 C 0.738281 -4.222656 0.90625 -4.695312 1.125 -5.15625 C 1.351562 -5.625 1.628906 -6.039062 1.953125 -6.40625 C 2.273438 -6.78125 2.644531 -7.078125 3.0625 -7.296875 C 3.488281 -7.523438 3.957031 -7.640625 4.46875 -7.640625 C 4.800781 -7.640625 5.082031 -7.585938 5.3125 -7.484375 C 5.550781 -7.378906 5.757812 -7.238281 5.9375 -7.0625 L 6.484375 -7.484375 L 6.796875 -7.484375 L 5.78125 -2.90625 C 5.75 -2.769531 5.710938 -2.585938 5.671875 -2.359375 C 5.640625 -2.140625 5.609375 -1.921875 5.578125 -1.703125 C 5.554688 -1.484375 5.546875 -1.300781 5.546875 -1.15625 C 5.546875 -0.507812 5.738281 -0.1875 6.125 -0.1875 C 6.300781 -0.1875 6.472656 -0.226562 6.640625 -0.3125 C 6.804688 -0.40625 6.992188 -0.535156 7.203125 -0.703125 L 7.28125 -0.59375 C 7.082031 -0.40625 6.832031 -0.234375 6.53125 -0.078125 C 6.238281 0.0664062 5.941406 0.140625 5.640625 0.140625 C 5.328125 0.140625 5.082031 0.0351562 4.90625 -0.171875 C 4.726562 -0.378906 4.640625 -0.664062 4.640625 -1.03125 C 4.640625 -1.195312 4.65625 -1.378906 4.6875 -1.578125 C 4.71875 -1.773438 4.75 -1.976562 4.78125 -2.1875 L 4.75 -2.1875 C 4.382812 -1.382812 3.984375 -0.796875 3.546875 -0.421875 C 3.109375 -0.046875 2.648438 0.140625 2.171875 0.140625 Z M 2.484375 -0.125 C 2.765625 -0.125 3.035156 -0.222656 3.296875 -0.421875 C 3.566406 -0.628906 3.8125 -0.894531 4.03125 -1.21875 C 4.257812 -1.550781 4.453125 -1.90625 4.609375 -2.28125 C 4.773438 -2.664062 4.894531 -3.03125 4.96875 -3.375 L 5.734375 -6.9375 C 5.617188 -7.125 5.453125 -7.257812 5.234375 -7.34375 C 5.015625 -7.4375 4.78125 -7.484375 4.53125 -7.484375 C 4.132812 -7.484375 3.769531 -7.367188 3.4375 -7.140625 C 3.113281 -6.910156 2.828125 -6.597656 2.578125 -6.203125 C 2.328125 -5.816406 2.113281 -5.394531 1.9375 -4.9375 C 1.769531 -4.476562 1.640625 -4.019531 1.546875 -3.5625 C 1.453125 -3.113281 1.40625 -2.703125 1.40625 -2.328125 C 1.40625 -1.503906 1.507812 -0.929688 1.71875 -0.609375 C 1.925781 -0.285156 2.179688 -0.125 2.484375 -0.125 Z M 2.484375 -0.125 "/></g></g></g><g fill="#e1c340" fill-opacity="1"><g transform="translate(191.524061, 219.62628)"><g><path d="M 2.9375 -9.1875 C 2.789062 -9.1875 2.671875 -9.226562 2.578125 -9.3125 C 2.484375 -9.40625 2.4375 -9.550781 2.4375 -9.75 C 2.4375 -10.207031 2.617188 -10.4375 2.984375 -10.4375 C 3.128906 -10.4375 3.25 -10.394531 3.34375 -10.3125 C 3.445312 -10.226562 3.5 -10.085938 3.5 -9.890625 C 3.5 -9.617188 3.4375 -9.429688 3.3125 -9.328125 C 3.195312 -9.234375 3.070312 -9.1875 2.9375 -9.1875 Z M 2.03125 0.140625 C 1.675781 0.140625 1.414062 0.015625 1.25 -0.234375 C 1.082031 -0.484375 1 -0.796875 1 -1.171875 C 1 -1.441406 1.023438 -1.75 1.078125 -2.09375 C 1.140625 -2.445312 1.203125 -2.75 1.265625 -3 L 1.96875 -6.546875 C 2 -6.679688 2.015625 -6.789062 2.015625 -6.875 C 2.015625 -7.082031 1.941406 -7.210938 1.796875 -7.265625 C 1.660156 -7.328125 1.441406 -7.359375 1.140625 -7.359375 L 0.90625 -7.359375 L 0.9375 -7.5 L 3.0625 -7.5 L 2.015625 -2.453125 C 1.972656 -2.296875 1.9375 -2.085938 1.90625 -1.828125 C 1.875 -1.578125 1.859375 -1.375 1.859375 -1.21875 C 1.859375 -0.875 1.910156 -0.625 2.015625 -0.46875 C 2.117188 -0.3125 2.265625 -0.234375 2.453125 -0.234375 C 2.660156 -0.234375 2.84375 -0.273438 3 -0.359375 C 3.164062 -0.441406 3.335938 -0.554688 3.515625 -0.703125 L 3.59375 -0.59375 C 3.394531 -0.40625 3.15625 -0.234375 2.875 -0.078125 C 2.601562 0.0664062 2.320312 0.140625 2.03125 0.140625 Z M 2.03125 0.140625 "/></g></g></g><g fill="#e1c340" fill-opacity="1"><g transform="translate(197.723932, 219.62628)"><g><path d="M 0.75 0 L 2.03125 -6.125 C 2.0625 -6.269531 2.082031 -6.398438 2.09375 -6.515625 C 2.101562 -6.628906 2.109375 -6.71875 2.109375 -6.78125 C 2.109375 -7.03125 2.015625 -7.1875 1.828125 -7.25 C 1.640625 -7.320312 1.398438 -7.359375 1.109375 -7.359375 L 0.90625 -7.359375 L 0.9375 -7.5 L 3.0625 -7.5 L 2.75 -5.578125 L 2.765625 -5.578125 C 2.941406 -5.941406 3.132812 -6.28125 3.34375 -6.59375 C 3.550781 -6.914062 3.789062 -7.171875 4.0625 -7.359375 C 4.34375 -7.546875 4.671875 -7.640625 5.046875 -7.640625 C 5.429688 -7.640625 5.707031 -7.550781 5.875 -7.375 C 6.039062 -7.195312 6.125 -6.988281 6.125 -6.75 C 6.125 -6.507812 6.050781 -6.320312 5.90625 -6.1875 C 5.769531 -6.050781 5.566406 -5.984375 5.296875 -5.984375 C 5.304688 -6.046875 5.3125 -6.101562 5.3125 -6.15625 C 5.3125 -6.21875 5.3125 -6.269531 5.3125 -6.3125 C 5.3125 -6.976562 5.085938 -7.3125 4.640625 -7.3125 C 4.390625 -7.3125 4.15625 -7.222656 3.9375 -7.046875 C 3.71875 -6.867188 3.519531 -6.640625 3.34375 -6.359375 C 3.164062 -6.078125 3.015625 -5.78125 2.890625 -5.46875 C 2.765625 -5.15625 2.675781 -4.867188 2.625 -4.609375 L 1.65625 0 Z M 0.75 0 "/></g></g></g><g fill="#e1c340" fill-opacity="1"><g transform="translate(206.106591, 219.62628)"><g/></g></g><g fill="#e1c340" fill-opacity="1"><g transform="translate(211.984637, 219.62628)"><g><path d="M 2.546875 0.140625 C 1.867188 0.140625 1.34375 -0.0195312 0.96875 -0.34375 C 0.601562 -0.664062 0.421875 -1.054688 0.421875 -1.515625 C 0.421875 -1.796875 0.5 -1.984375 0.65625 -2.078125 C 0.8125 -2.179688 0.972656 -2.234375 1.140625 -2.234375 C 1.128906 -2.160156 1.125 -2.09375 1.125 -2.03125 C 1.125 -1.96875 1.125 -1.898438 1.125 -1.828125 C 1.125 -1.285156 1.238281 -0.84375 1.46875 -0.5 C 1.695312 -0.164062 2.066406 0 2.578125 0 C 3.117188 0 3.539062 -0.148438 3.84375 -0.453125 C 4.15625 -0.765625 4.3125 -1.191406 4.3125 -1.734375 C 4.3125 -2.140625 4.195312 -2.476562 3.96875 -2.75 C 3.75 -3.019531 3.390625 -3.273438 2.890625 -3.515625 C 2.367188 -3.773438 1.96875 -4.054688 1.6875 -4.359375 C 1.414062 -4.671875 1.28125 -5.085938 1.28125 -5.609375 C 1.28125 -6.222656 1.5 -6.710938 1.9375 -7.078125 C 2.375 -7.453125 2.945312 -7.640625 3.65625 -7.640625 C 4.125 -7.640625 4.503906 -7.566406 4.796875 -7.421875 C 5.085938 -7.285156 5.300781 -7.101562 5.4375 -6.875 C 5.570312 -6.65625 5.640625 -6.429688 5.640625 -6.203125 C 5.640625 -5.984375 5.566406 -5.816406 5.421875 -5.703125 C 5.285156 -5.585938 5.109375 -5.53125 4.890625 -5.53125 C 4.898438 -5.59375 4.90625 -5.65625 4.90625 -5.71875 C 4.90625 -5.789062 4.90625 -5.859375 4.90625 -5.921875 C 4.90625 -6.378906 4.804688 -6.753906 4.609375 -7.046875 C 4.421875 -7.347656 4.085938 -7.5 3.609375 -7.5 C 3.109375 -7.5 2.726562 -7.347656 2.46875 -7.046875 C 2.21875 -6.753906 2.09375 -6.363281 2.09375 -5.875 C 2.09375 -5.46875 2.203125 -5.140625 2.421875 -4.890625 C 2.648438 -4.648438 3 -4.421875 3.46875 -4.203125 C 3.976562 -3.960938 4.378906 -3.675781 4.671875 -3.34375 C 4.960938 -3.007812 5.109375 -2.585938 5.109375 -2.078125 C 5.109375 -1.441406 4.882812 -0.910156 4.4375 -0.484375 C 4 -0.0664062 3.367188 0.140625 2.546875 0.140625 Z M 2.546875 0.140625 "/></g></g></g><g fill="#e1c340" fill-opacity="1"><g transform="translate(220.437254, 219.62628)"><g><path d="M 2.171875 0.140625 C 1.578125 0.140625 1.144531 -0.0820312 0.875 -0.53125 C 0.601562 -0.976562 0.46875 -1.585938 0.46875 -2.359375 C 0.46875 -2.796875 0.519531 -3.253906 0.625 -3.734375 C 0.738281 -4.222656 0.90625 -4.695312 1.125 -5.15625 C 1.351562 -5.625 1.628906 -6.039062 1.953125 -6.40625 C 2.273438 -6.78125 2.644531 -7.078125 3.0625 -7.296875 C 3.488281 -7.523438 3.957031 -7.640625 4.46875 -7.640625 C 4.800781 -7.640625 5.082031 -7.585938 5.3125 -7.484375 C 5.550781 -7.378906 5.757812 -7.238281 5.9375 -7.0625 L 6.484375 -7.484375 L 6.796875 -7.484375 L 5.78125 -2.90625 C 5.75 -2.769531 5.710938 -2.585938 5.671875 -2.359375 C 5.640625 -2.140625 5.609375 -1.921875 5.578125 -1.703125 C 5.554688 -1.484375 5.546875 -1.300781 5.546875 -1.15625 C 5.546875 -0.507812 5.738281 -0.1875 6.125 -0.1875 C 6.300781 -0.1875 6.472656 -0.226562 6.640625 -0.3125 C 6.804688 -0.40625 6.992188 -0.535156 7.203125 -0.703125 L 7.28125 -0.59375 C 7.082031 -0.40625 6.832031 -0.234375 6.53125 -0.078125 C 6.238281 0.0664062 5.941406 0.140625 5.640625 0.140625 C 5.328125 0.140625 5.082031 0.0351562 4.90625 -0.171875 C 4.726562 -0.378906 4.640625 -0.664062 4.640625 -1.03125 C 4.640625 -1.195312 4.65625 -1.378906 4.6875 -1.578125 C 4.71875 -1.773438 4.75 -1.976562 4.78125 -2.1875 L 4.75 -2.1875 C 4.382812 -1.382812 3.984375 -0.796875 3.546875 -0.421875 C 3.109375 -0.046875 2.648438 0.140625 2.171875 0.140625 Z M 2.484375 -0.125 C 2.765625 -0.125 3.035156 -0.222656 3.296875 -0.421875 C 3.566406 -0.628906 3.8125 -0.894531 4.03125 -1.21875 C 4.257812 -1.550781 4.453125 -1.90625 4.609375 -2.28125 C 4.773438 -2.664062 4.894531 -3.03125 4.96875 -3.375 L 5.734375 -6.9375 C 5.617188 -7.125 5.453125 -7.257812 5.234375 -7.34375 C 5.015625 -7.4375 4.78125 -7.484375 4.53125 -7.484375 C 4.132812 -7.484375 3.769531 -7.367188 3.4375 -7.140625 C 3.113281 -6.910156 2.828125 -6.597656 2.578125 -6.203125 C 2.328125 -5.816406 2.113281 -5.394531 1.9375 -4.9375 C 1.769531 -4.476562 1.640625 -4.019531 1.546875 -3.5625 C 1.453125 -3.113281 1.40625 -2.703125 1.40625 -2.328125 C 1.40625 -1.503906 1.507812 -0.929688 1.71875 -0.609375 C 1.925781 -0.285156 2.179688 -0.125 2.484375 -0.125 Z M 2.484375 -0.125 "/></g></g></g><g fill="#e1c340" fill-opacity="1"><g transform="translate(230.317075, 219.62628)"><g><path d="M 2.0625 0.140625 C 1.695312 0.140625 1.429688 0.015625 1.265625 -0.234375 C 1.097656 -0.484375 1.015625 -0.78125 1.015625 -1.125 C 1.015625 -1.375 1.039062 -1.671875 1.09375 -2.015625 C 1.144531 -2.359375 1.203125 -2.648438 1.265625 -2.890625 L 2.625 -9.515625 C 2.644531 -9.609375 2.660156 -9.695312 2.671875 -9.78125 C 2.679688 -9.863281 2.6875 -9.929688 2.6875 -9.984375 C 2.6875 -10.191406 2.609375 -10.328125 2.453125 -10.390625 C 2.304688 -10.460938 2.117188 -10.5 1.890625 -10.5 L 1.515625 -10.5 L 1.546875 -10.640625 L 3.765625 -10.640625 L 2.09375 -2.625 C 2.050781 -2.457031 2.007812 -2.234375 1.96875 -1.953125 C 1.925781 -1.679688 1.90625 -1.453125 1.90625 -1.265625 C 1.90625 -0.941406 1.945312 -0.6875 2.03125 -0.5 C 2.113281 -0.320312 2.265625 -0.234375 2.484375 -0.234375 C 2.671875 -0.234375 2.851562 -0.273438 3.03125 -0.359375 C 3.207031 -0.441406 3.382812 -0.554688 3.5625 -0.703125 L 3.640625 -0.59375 C 3.429688 -0.40625 3.191406 -0.234375 2.921875 -0.078125 C 2.648438 0.0664062 2.363281 0.140625 2.0625 0.140625 Z M 2.0625 0.140625 "/></g></g></g><g fill="#e1c340" fill-opacity="1"><g transform="translate(236.558922, 219.62628)"><g><path d="M 3.046875 0.140625 C 2.304688 0.140625 1.703125 -0.09375 1.234375 -0.5625 C 0.765625 -1.03125 0.53125 -1.75 0.53125 -2.71875 C 0.53125 -3.21875 0.609375 -3.753906 0.765625 -4.328125 C 0.929688 -4.898438 1.171875 -5.4375 1.484375 -5.9375 C 1.804688 -6.4375 2.210938 -6.84375 2.703125 -7.15625 C 3.203125 -7.476562 3.785156 -7.640625 4.453125 -7.640625 C 4.921875 -7.640625 5.34375 -7.539062 5.71875 -7.34375 C 6.09375 -7.15625 6.390625 -6.847656 6.609375 -6.421875 C 6.835938 -6.003906 6.953125 -5.457031 6.953125 -4.78125 C 6.953125 -4.382812 6.898438 -3.960938 6.796875 -3.515625 C 6.703125 -3.066406 6.554688 -2.625 6.359375 -2.1875 C 6.160156 -1.757812 5.90625 -1.367188 5.59375 -1.015625 C 5.28125 -0.660156 4.910156 -0.378906 4.484375 -0.171875 C 4.066406 0.0351562 3.585938 0.140625 3.046875 0.140625 Z M 3.0625 0 C 3.46875 0 3.828125 -0.101562 4.140625 -0.3125 C 4.460938 -0.519531 4.738281 -0.800781 4.96875 -1.15625 C 5.195312 -1.507812 5.382812 -1.898438 5.53125 -2.328125 C 5.6875 -2.753906 5.800781 -3.191406 5.875 -3.640625 C 5.945312 -4.085938 5.984375 -4.507812 5.984375 -4.90625 C 5.984375 -5.820312 5.847656 -6.484375 5.578125 -6.890625 C 5.316406 -7.296875 4.925781 -7.5 4.40625 -7.5 C 3.914062 -7.5 3.488281 -7.335938 3.125 -7.015625 C 2.757812 -6.703125 2.457031 -6.296875 2.21875 -5.796875 C 1.976562 -5.296875 1.796875 -4.757812 1.671875 -4.1875 C 1.554688 -3.613281 1.5 -3.078125 1.5 -2.578125 C 1.5 -1.628906 1.640625 -0.960938 1.921875 -0.578125 C 2.210938 -0.191406 2.59375 0 3.0625 0 Z M 3.0625 0 "/></g></g></g><g fill="#e1c340" fill-opacity="1"><g transform="translate(246.424747, 219.62628)"><g><path d="M 6.140625 0.140625 C 5.773438 0.140625 5.5 0.0234375 5.3125 -0.203125 C 5.132812 -0.429688 5.046875 -0.75 5.046875 -1.15625 C 5.046875 -1.394531 5.066406 -1.664062 5.109375 -1.96875 C 5.160156 -2.28125 5.222656 -2.625 5.296875 -3 L 5.625 -4.5 C 5.644531 -4.59375 5.675781 -4.734375 5.71875 -4.921875 C 5.769531 -5.117188 5.8125 -5.328125 5.84375 -5.546875 C 5.882812 -5.765625 5.90625 -5.960938 5.90625 -6.140625 C 5.90625 -6.296875 5.878906 -6.457031 5.828125 -6.625 C 5.785156 -6.800781 5.695312 -6.953125 5.5625 -7.078125 C 5.425781 -7.203125 5.226562 -7.265625 4.96875 -7.265625 C 4.675781 -7.265625 4.394531 -7.171875 4.125 -6.984375 C 3.851562 -6.804688 3.609375 -6.570312 3.390625 -6.28125 C 3.171875 -6 2.988281 -5.703125 2.84375 -5.390625 C 2.695312 -5.078125 2.59375 -4.796875 2.53125 -4.546875 L 1.578125 0 L 0.6875 0 L 1.953125 -6.125 C 1.972656 -6.226562 1.988281 -6.34375 2 -6.46875 C 2.019531 -6.59375 2.03125 -6.695312 2.03125 -6.78125 C 2.03125 -7.03125 1.953125 -7.1875 1.796875 -7.25 C 1.648438 -7.320312 1.421875 -7.359375 1.109375 -7.359375 L 0.90625 -7.359375 L 0.9375 -7.5 L 3.125 -7.5 L 2.71875 -5.5 L 2.75 -5.5 C 3.132812 -6.21875 3.539062 -6.75 3.96875 -7.09375 C 4.394531 -7.4375 4.863281 -7.609375 5.375 -7.609375 C 5.894531 -7.609375 6.257812 -7.457031 6.46875 -7.15625 C 6.6875 -6.863281 6.796875 -6.519531 6.796875 -6.125 C 6.796875 -5.882812 6.765625 -5.625 6.703125 -5.34375 C 6.648438 -5.070312 6.597656 -4.820312 6.546875 -4.59375 L 6.140625 -2.75 C 6.078125 -2.488281 6.023438 -2.21875 5.984375 -1.9375 C 5.941406 -1.65625 5.921875 -1.390625 5.921875 -1.140625 C 5.921875 -0.847656 5.96875 -0.617188 6.0625 -0.453125 C 6.164062 -0.296875 6.332031 -0.21875 6.5625 -0.21875 C 6.707031 -0.21875 6.859375 -0.25 7.015625 -0.3125 C 7.171875 -0.382812 7.347656 -0.503906 7.546875 -0.671875 L 7.625 -0.5625 C 7.394531 -0.351562 7.160156 -0.179688 6.921875 -0.046875 C 6.691406 0.078125 6.429688 0.140625 6.140625 0.140625 Z M 6.140625 0.140625 "/></g></g></g><g fill="#e1c340" fill-opacity="1"><g transform="translate(256.654369, 219.62628)"><g><path d="M 2.546875 0.140625 C 1.867188 0.140625 1.34375 -0.0195312 0.96875 -0.34375 C 0.601562 -0.664062 0.421875 -1.054688 0.421875 -1.515625 C 0.421875 -1.796875 0.5 -1.984375 0.65625 -2.078125 C 0.8125 -2.179688 0.972656 -2.234375 1.140625 -2.234375 C 1.128906 -2.160156 1.125 -2.09375 1.125 -2.03125 C 1.125 -1.96875 1.125 -1.898438 1.125 -1.828125 C 1.125 -1.285156 1.238281 -0.84375 1.46875 -0.5 C 1.695312 -0.164062 2.066406 0 2.578125 0 C 3.117188 0 3.539062 -0.148438 3.84375 -0.453125 C 4.15625 -0.765625 4.3125 -1.191406 4.3125 -1.734375 C 4.3125 -2.140625 4.195312 -2.476562 3.96875 -2.75 C 3.75 -3.019531 3.390625 -3.273438 2.890625 -3.515625 C 2.367188 -3.773438 1.96875 -4.054688 1.6875 -4.359375 C 1.414062 -4.671875 1.28125 -5.085938 1.28125 -5.609375 C 1.28125 -6.222656 1.5 -6.710938 1.9375 -7.078125 C 2.375 -7.453125 2.945312 -7.640625 3.65625 -7.640625 C 4.125 -7.640625 4.503906 -7.566406 4.796875 -7.421875 C 5.085938 -7.285156 5.300781 -7.101562 5.4375 -6.875 C 5.570312 -6.65625 5.640625 -6.429688 5.640625 -6.203125 C 5.640625 -5.984375 5.566406 -5.816406 5.421875 -5.703125 C 5.285156 -5.585938 5.109375 -5.53125 4.890625 -5.53125 C 4.898438 -5.59375 4.90625 -5.65625 4.90625 -5.71875 C 4.90625 -5.789062 4.90625 -5.859375 4.90625 -5.921875 C 4.90625 -6.378906 4.804688 -6.753906 4.609375 -7.046875 C 4.421875 -7.347656 4.085938 -7.5 3.609375 -7.5 C 3.109375 -7.5 2.726562 -7.347656 2.46875 -7.046875 C 2.21875 -6.753906 2.09375 -6.363281 2.09375 -5.875 C 2.09375 -5.46875 2.203125 -5.140625 2.421875 -4.890625 C 2.648438 -4.648438 3 -4.421875 3.46875 -4.203125 C 3.976562 -3.960938 4.378906 -3.675781 4.671875 -3.34375 C 4.960938 -3.007812 5.109375 -2.585938 5.109375 -2.078125 C 5.109375 -1.441406 4.882812 -0.910156 4.4375 -0.484375 C 4 -0.0664062 3.367188 0.140625 2.546875 0.140625 Z M 2.546875 0.140625 "/></g></g></g><g fill="#e1c340" fill-opacity="1"><g transform="translate(162.7064, 238.32334)"><g><path d="M 1.953125 0.09375 C 1.648438 0.09375 1.378906 0.0234375 1.140625 -0.109375 C 0.898438 -0.253906 0.707031 -0.460938 0.5625 -0.734375 C 0.414062 -1.003906 0.34375 -1.34375 0.34375 -1.75 C 0.34375 -2.082031 0.394531 -2.429688 0.5 -2.796875 C 0.601562 -3.171875 0.757812 -3.515625 0.96875 -3.828125 C 1.175781 -4.148438 1.429688 -4.410156 1.734375 -4.609375 C 2.046875 -4.804688 2.40625 -4.90625 2.8125 -4.90625 C 3.15625 -4.90625 3.425781 -4.816406 3.625 -4.640625 C 3.820312 -4.460938 3.921875 -4.210938 3.921875 -3.890625 C 3.921875 -3.578125 3.804688 -3.289062 3.578125 -3.03125 C 3.347656 -2.78125 3.039062 -2.582031 2.65625 -2.4375 C 2.28125 -2.300781 1.851562 -2.234375 1.375 -2.234375 L 1.015625 -2.234375 C 0.992188 -2.171875 0.976562 -2.085938 0.96875 -1.984375 C 0.96875 -1.878906 0.96875 -1.785156 0.96875 -1.703125 C 0.96875 -1.179688 1.0625 -0.765625 1.25 -0.453125 C 1.4375 -0.148438 1.679688 0 1.984375 0 C 2.335938 0 2.613281 -0.09375 2.8125 -0.28125 C 3.007812 -0.476562 3.160156 -0.726562 3.265625 -1.03125 C 3.347656 -1 3.390625 -0.925781 3.390625 -0.8125 C 3.390625 -0.6875 3.332031 -0.550781 3.21875 -0.40625 C 3.113281 -0.269531 2.953125 -0.148438 2.734375 -0.046875 C 2.523438 0.046875 2.265625 0.09375 1.953125 0.09375 Z M 1.03125 -2.328125 L 1.34375 -2.328125 C 1.925781 -2.328125 2.394531 -2.472656 2.75 -2.765625 C 3.113281 -3.054688 3.296875 -3.445312 3.296875 -3.9375 C 3.296875 -4.238281 3.242188 -4.457031 3.140625 -4.59375 C 3.046875 -4.738281 2.898438 -4.8125 2.703125 -4.8125 C 2.484375 -4.8125 2.285156 -4.742188 2.109375 -4.609375 C 1.929688 -4.472656 1.769531 -4.285156 1.625 -4.046875 C 1.488281 -3.804688 1.367188 -3.535156 1.265625 -3.234375 C 1.160156 -2.941406 1.082031 -2.640625 1.03125 -2.328125 Z M 1.03125 -2.328125 "/></g></g></g><g fill="#e1c340" fill-opacity="1"><g transform="translate(168.277423, 238.32334)"><g><path d="M 1.640625 0.09375 C 1.203125 0.09375 0.863281 -0.0078125 0.625 -0.21875 C 0.382812 -0.425781 0.265625 -0.675781 0.265625 -0.96875 C 0.265625 -1.144531 0.316406 -1.265625 0.421875 -1.328125 C 0.523438 -1.398438 0.628906 -1.4375 0.734375 -1.4375 C 0.722656 -1.394531 0.71875 -1.347656 0.71875 -1.296875 C 0.71875 -1.253906 0.71875 -1.210938 0.71875 -1.171875 C 0.71875 -0.828125 0.789062 -0.546875 0.9375 -0.328125 C 1.09375 -0.109375 1.332031 0 1.65625 0 C 2 0 2.269531 -0.0976562 2.46875 -0.296875 C 2.664062 -0.492188 2.765625 -0.765625 2.765625 -1.109375 C 2.765625 -1.367188 2.691406 -1.585938 2.546875 -1.765625 C 2.410156 -1.941406 2.179688 -2.109375 1.859375 -2.265625 C 1.523438 -2.429688 1.269531 -2.613281 1.09375 -2.8125 C 0.914062 -3.007812 0.828125 -3.273438 0.828125 -3.609375 C 0.828125 -3.992188 0.96875 -4.304688 1.25 -4.546875 C 1.53125 -4.785156 1.894531 -4.90625 2.34375 -4.90625 C 2.644531 -4.90625 2.890625 -4.859375 3.078125 -4.765625 C 3.265625 -4.679688 3.398438 -4.566406 3.484375 -4.421875 C 3.578125 -4.285156 3.625 -4.140625 3.625 -3.984375 C 3.625 -3.847656 3.578125 -3.742188 3.484375 -3.671875 C 3.398438 -3.597656 3.285156 -3.5625 3.140625 -3.5625 C 3.148438 -3.601562 3.15625 -3.644531 3.15625 -3.6875 C 3.15625 -3.726562 3.15625 -3.769531 3.15625 -3.8125 C 3.15625 -4.101562 3.09375 -4.34375 2.96875 -4.53125 C 2.84375 -4.726562 2.628906 -4.828125 2.328125 -4.828125 C 2.003906 -4.828125 1.757812 -4.726562 1.59375 -4.53125 C 1.425781 -4.34375 1.34375 -4.09375 1.34375 -3.78125 C 1.34375 -3.519531 1.414062 -3.3125 1.5625 -3.15625 C 1.707031 -3 1.929688 -2.847656 2.234375 -2.703125 C 2.554688 -2.546875 2.8125 -2.359375 3 -2.140625 C 3.1875 -1.929688 3.28125 -1.660156 3.28125 -1.328125 C 3.28125 -0.921875 3.140625 -0.582031 2.859375 -0.3125 C 2.578125 -0.0390625 2.171875 0.09375 1.640625 0.09375 Z M 1.640625 0.09375 "/></g></g></g><g fill="#e1c340" fill-opacity="1"><g transform="translate(173.713451, 238.32334)"><g><path d="M 1.484375 0.09375 C 1.179688 0.09375 0.960938 0.015625 0.828125 -0.140625 C 0.691406 -0.304688 0.625 -0.535156 0.625 -0.828125 C 0.625 -0.929688 0.632812 -1.050781 0.65625 -1.1875 C 0.675781 -1.332031 0.707031 -1.507812 0.75 -1.71875 L 1.390625 -4.734375 L 0.71875 -4.734375 L 0.734375 -4.8125 C 1.015625 -4.8125 1.238281 -4.835938 1.40625 -4.890625 C 1.570312 -4.953125 1.707031 -5.0625 1.8125 -5.21875 C 1.925781 -5.375 2.035156 -5.613281 2.140625 -5.9375 L 2.21875 -5.9375 L 2 -4.828125 L 3.03125 -4.828125 L 3.015625 -4.734375 L 1.96875 -4.734375 L 1.328125 -1.671875 C 1.273438 -1.441406 1.238281 -1.257812 1.21875 -1.125 C 1.195312 -0.988281 1.1875 -0.875 1.1875 -0.78125 C 1.1875 -0.332031 1.367188 -0.109375 1.734375 -0.109375 C 1.867188 -0.109375 2 -0.128906 2.125 -0.171875 C 2.257812 -0.210938 2.382812 -0.265625 2.5 -0.328125 L 2.546875 -0.25 C 2.378906 -0.144531 2.203125 -0.0625 2.015625 0 C 1.835938 0.0625 1.660156 0.09375 1.484375 0.09375 Z M 1.484375 0.09375 "/></g></g></g><g fill="#e1c340" fill-opacity="1"><g transform="translate(178.231468, 238.32334)"><g><path d="M 1.375 0.09375 C 0.988281 0.09375 0.710938 -0.0546875 0.546875 -0.359375 C 0.378906 -0.660156 0.296875 -1.046875 0.296875 -1.515625 C 0.296875 -1.796875 0.332031 -2.09375 0.40625 -2.40625 C 0.476562 -2.71875 0.582031 -3.019531 0.71875 -3.3125 C 0.863281 -3.613281 1.039062 -3.882812 1.25 -4.125 C 1.457031 -4.363281 1.695312 -4.550781 1.96875 -4.6875 C 2.238281 -4.832031 2.539062 -4.90625 2.875 -4.90625 C 3.039062 -4.90625 3.195312 -4.878906 3.34375 -4.828125 C 3.5 -4.785156 3.628906 -4.722656 3.734375 -4.640625 C 3.753906 -4.734375 3.773438 -4.832031 3.796875 -4.9375 C 3.816406 -5.039062 3.84375 -5.148438 3.875 -5.265625 L 4.0625 -6.125 C 4.070312 -6.1875 4.082031 -6.242188 4.09375 -6.296875 C 4.101562 -6.347656 4.109375 -6.394531 4.109375 -6.4375 C 4.109375 -6.570312 4.0625 -6.65625 3.96875 -6.6875 C 3.875 -6.726562 3.757812 -6.75 3.625 -6.75 L 3.359375 -6.75 L 3.390625 -6.84375 L 4.78125 -6.84375 L 3.71875 -1.875 C 3.695312 -1.78125 3.675781 -1.664062 3.65625 -1.53125 C 3.632812 -1.394531 3.613281 -1.253906 3.59375 -1.109375 C 3.570312 -0.972656 3.5625 -0.863281 3.5625 -0.78125 C 3.5625 -0.550781 3.585938 -0.378906 3.640625 -0.265625 C 3.691406 -0.160156 3.789062 -0.109375 3.9375 -0.109375 C 4.050781 -0.109375 4.164062 -0.140625 4.28125 -0.203125 C 4.40625 -0.273438 4.523438 -0.359375 4.640625 -0.453125 L 4.6875 -0.375 C 4.550781 -0.257812 4.390625 -0.148438 4.203125 -0.046875 C 4.015625 0.046875 3.820312 0.09375 3.625 0.09375 C 3.425781 0.09375 3.269531 0.0234375 3.15625 -0.109375 C 3.039062 -0.242188 2.984375 -0.441406 2.984375 -0.703125 C 2.984375 -0.890625 3.019531 -1.125 3.09375 -1.40625 L 3.046875 -1.40625 C 2.804688 -0.882812 2.546875 -0.503906 2.265625 -0.265625 C 1.984375 -0.0234375 1.6875 0.09375 1.375 0.09375 Z M 1.578125 -0.09375 C 1.765625 -0.09375 1.941406 -0.15625 2.109375 -0.28125 C 2.285156 -0.414062 2.441406 -0.582031 2.578125 -0.78125 C 2.722656 -0.976562 2.84375 -1.1875 2.9375 -1.40625 C 3.039062 -1.625 3.113281 -1.820312 3.15625 -2 L 3.703125 -4.515625 C 3.617188 -4.609375 3.503906 -4.679688 3.359375 -4.734375 C 3.222656 -4.785156 3.070312 -4.8125 2.90625 -4.8125 C 2.644531 -4.8125 2.410156 -4.734375 2.203125 -4.578125 C 1.992188 -4.429688 1.804688 -4.234375 1.640625 -3.984375 C 1.484375 -3.742188 1.347656 -3.472656 1.234375 -3.171875 C 1.128906 -2.878906 1.046875 -2.585938 0.984375 -2.296875 C 0.929688 -2.003906 0.90625 -1.738281 0.90625 -1.5 C 0.90625 -0.976562 0.96875 -0.613281 1.09375 -0.40625 C 1.21875 -0.195312 1.378906 -0.09375 1.578125 -0.09375 Z M 1.578125 -0.09375 "/></g></g></g><g fill="#e1c340" fill-opacity="1"><g transform="translate(184.585508, 238.32334)"><g/></g></g><g fill="#e1c340" fill-opacity="1"><g transform="translate(188.36552, 238.32334)"><g><path d="M 0.09375 0 L 0.21875 -0.515625 L 2.390625 -2.5 C 2.796875 -2.863281 3.113281 -3.1875 3.34375 -3.46875 C 3.570312 -3.757812 3.726562 -4.039062 3.8125 -4.3125 C 3.90625 -4.582031 3.953125 -4.878906 3.953125 -5.203125 C 3.953125 -5.628906 3.859375 -5.9375 3.671875 -6.125 C 3.492188 -6.320312 3.25 -6.421875 2.9375 -6.421875 C 2.507812 -6.421875 2.1875 -6.273438 1.96875 -5.984375 C 1.757812 -5.703125 1.640625 -5.332031 1.609375 -4.875 C 1.472656 -4.875 1.363281 -4.90625 1.28125 -4.96875 C 1.195312 -5.03125 1.15625 -5.132812 1.15625 -5.28125 C 1.15625 -5.46875 1.222656 -5.65625 1.359375 -5.84375 C 1.492188 -6.039062 1.695312 -6.203125 1.96875 -6.328125 C 2.238281 -6.453125 2.570312 -6.515625 2.96875 -6.515625 C 3.46875 -6.515625 3.859375 -6.394531 4.140625 -6.15625 C 4.421875 -5.925781 4.5625 -5.597656 4.5625 -5.171875 C 4.5625 -4.859375 4.488281 -4.5625 4.34375 -4.28125 C 4.207031 -4 3.992188 -3.703125 3.703125 -3.390625 C 3.421875 -3.085938 3.054688 -2.753906 2.609375 -2.390625 L 0.328125 -0.5 L 3.109375 -0.5 C 3.378906 -0.5 3.5625 -0.546875 3.65625 -0.640625 C 3.757812 -0.742188 3.847656 -0.894531 3.921875 -1.09375 L 4 -1.375 L 4.09375 -1.375 L 3.78125 0 Z M 0.09375 0 "/></g></g></g><g fill="#e1c340" fill-opacity="1"><g transform="translate(194.728555, 238.32334)"><g><path d="M 2.0625 0.09375 C 1.570312 0.09375 1.179688 -0.0820312 0.890625 -0.4375 C 0.597656 -0.800781 0.453125 -1.332031 0.453125 -2.03125 C 0.453125 -2.394531 0.484375 -2.78125 0.546875 -3.1875 C 0.617188 -3.601562 0.71875 -4.003906 0.84375 -4.390625 C 0.976562 -4.785156 1.148438 -5.144531 1.359375 -5.46875 C 1.578125 -5.789062 1.832031 -6.046875 2.125 -6.234375 C 2.414062 -6.421875 2.742188 -6.515625 3.109375 -6.515625 C 3.410156 -6.515625 3.679688 -6.441406 3.921875 -6.296875 C 4.160156 -6.160156 4.347656 -5.941406 4.484375 -5.640625 C 4.628906 -5.335938 4.703125 -4.9375 4.703125 -4.4375 C 4.703125 -4.070312 4.671875 -3.679688 4.609375 -3.265625 C 4.554688 -2.847656 4.460938 -2.441406 4.328125 -2.046875 C 4.191406 -1.648438 4.019531 -1.289062 3.8125 -0.96875 C 3.613281 -0.644531 3.367188 -0.382812 3.078125 -0.1875 C 2.785156 0 2.445312 0.09375 2.0625 0.09375 Z M 2.0625 0.015625 C 2.363281 0.015625 2.625 -0.078125 2.84375 -0.265625 C 3.070312 -0.460938 3.265625 -0.722656 3.421875 -1.046875 C 3.578125 -1.367188 3.707031 -1.726562 3.8125 -2.125 C 3.914062 -2.53125 3.988281 -2.9375 4.03125 -3.34375 C 4.082031 -3.75 4.109375 -4.140625 4.109375 -4.515625 C 4.109375 -5.003906 4.066406 -5.382812 3.984375 -5.65625 C 3.910156 -5.9375 3.796875 -6.132812 3.640625 -6.25 C 3.492188 -6.363281 3.3125 -6.421875 3.09375 -6.421875 C 2.800781 -6.421875 2.539062 -6.320312 2.3125 -6.125 C 2.09375 -5.9375 1.898438 -5.679688 1.734375 -5.359375 C 1.578125 -5.035156 1.445312 -4.675781 1.34375 -4.28125 C 1.238281 -3.882812 1.160156 -3.476562 1.109375 -3.0625 C 1.066406 -2.65625 1.046875 -2.269531 1.046875 -1.90625 C 1.046875 -1.21875 1.128906 -0.722656 1.296875 -0.421875 C 1.472656 -0.128906 1.726562 0.015625 2.0625 0.015625 Z M 2.0625 0.015625 "/></g></g></g><g fill="#e1c340" fill-opacity="1"><g transform="translate(201.091589, 238.32334)"><g><path d="M 0.09375 0 L 0.21875 -0.515625 L 2.390625 -2.5 C 2.796875 -2.863281 3.113281 -3.1875 3.34375 -3.46875 C 3.570312 -3.757812 3.726562 -4.039062 3.8125 -4.3125 C 3.90625 -4.582031 3.953125 -4.878906 3.953125 -5.203125 C 3.953125 -5.628906 3.859375 -5.9375 3.671875 -6.125 C 3.492188 -6.320312 3.25 -6.421875 2.9375 -6.421875 C 2.507812 -6.421875 2.1875 -6.273438 1.96875 -5.984375 C 1.757812 -5.703125 1.640625 -5.332031 1.609375 -4.875 C 1.472656 -4.875 1.363281 -4.90625 1.28125 -4.96875 C 1.195312 -5.03125 1.15625 -5.132812 1.15625 -5.28125 C 1.15625 -5.46875 1.222656 -5.65625 1.359375 -5.84375 C 1.492188 -6.039062 1.695312 -6.203125 1.96875 -6.328125 C 2.238281 -6.453125 2.570312 -6.515625 2.96875 -6.515625 C 3.46875 -6.515625 3.859375 -6.394531 4.140625 -6.15625 C 4.421875 -5.925781 4.5625 -5.597656 4.5625 -5.171875 C 4.5625 -4.859375 4.488281 -4.5625 4.34375 -4.28125 C 4.207031 -4 3.992188 -3.703125 3.703125 -3.390625 C 3.421875 -3.085938 3.054688 -2.753906 2.609375 -2.390625 L 0.328125 -0.5 L 3.109375 -0.5 C 3.378906 -0.5 3.5625 -0.546875 3.65625 -0.640625 C 3.757812 -0.742188 3.847656 -0.894531 3.921875 -1.09375 L 4 -1.375 L 4.09375 -1.375 L 3.78125 0 Z M 0.09375 0 "/></g></g></g><g fill="#e1c340" fill-opacity="1"><g transform="translate(207.454624, 238.32334)"><g><path d="M 1.265625 0 L 1.28125 -0.09375 L 1.859375 -0.09375 C 2.078125 -0.09375 2.242188 -0.125 2.359375 -0.1875 C 2.472656 -0.257812 2.5625 -0.429688 2.625 -0.703125 L 2.859375 -1.84375 L 0.109375 -1.84375 L 0.171875 -2.109375 L 3.84375 -6.421875 L 4.421875 -6.421875 L 3.53125 -2.21875 L 4.65625 -2.21875 L 4.578125 -1.84375 L 3.453125 -1.84375 L 3.203125 -0.6875 C 3.171875 -0.570312 3.15625 -0.476562 3.15625 -0.40625 C 3.15625 -0.269531 3.203125 -0.179688 3.296875 -0.140625 C 3.390625 -0.109375 3.53125 -0.09375 3.71875 -0.09375 L 4.09375 -0.09375 L 4.0625 0 Z M 2.96875 -5.25 L 0.375 -2.21875 L 2.9375 -2.21875 L 3.359375 -4.21875 C 3.421875 -4.53125 3.492188 -4.867188 3.578125 -5.234375 C 3.671875 -5.597656 3.757812 -5.957031 3.84375 -6.3125 C 3.738281 -6.1875 3.609375 -6.023438 3.453125 -5.828125 C 3.296875 -5.640625 3.132812 -5.445312 2.96875 -5.25 Z M 2.96875 -5.25 "/></g></g></g></svg>