<svg xmlns="http://www.w3.org/2000/svg" xmlns:xlink="http://www.w3.org/1999/xlink" width="500" zoomAndPan="magnify" viewBox="0 0 375 374.999991" height="500" preserveAspectRatio="xMidYMid meet" version="1.0"><defs><g/><clipPath id="e80aefeebb"><path d="M 152 104.679688 L 223 104.679688 L 223 171 L 152 171 Z M 152 104.679688 " clip-rule="nonzero"/></clipPath><clipPath id="d9eba549c4"><path d="M 151.6875 104.679688 L 223.6875 104.679688 L 223.6875 172.179688 L 151.6875 172.179688 Z M 151.6875 104.679688 " clip-rule="nonzero"/></clipPath></defs><rect x="-37.5" width="450" fill="#ffffff" y="-37.499999" height="449.999989" fill-opacity="1"/><rect x="-37.5" width="450" fill="#000000" y="-37.499999" height="449.999989" fill-opacity="1"/><g clip-path="url(#e80aefeebb)"><path fill="#e1c340" d="M 219.683594 154.214844 C 219.292969 153.824219 218.867188 153.46875 218.414062 153.148438 C 217.964844 152.828125 217.484375 152.550781 216.984375 152.3125 C 216.484375 152.074219 215.96875 151.882812 215.433594 151.730469 C 214.898438 151.582031 214.355469 151.480469 213.804688 151.425781 C 213.253906 151.367188 212.703125 151.359375 212.148438 151.398438 C 211.597656 151.4375 211.050781 151.519531 210.511719 151.652344 C 209.972656 151.785156 209.449219 151.960938 208.941406 152.183594 C 208.433594 152.40625 207.949219 152.667969 207.484375 152.972656 C 207.101562 153.230469 206.773438 153.488281 206.453125 153.738281 C 205.8125 154.246094 205.257812 154.6875 204.382812 154.976562 C 203.066406 155.417969 202.042969 155 200.359375 153.316406 L 196.34375 149.304688 C 195.257812 148.226562 194.8125 147.785156 194.480469 146.171875 C 194.242188 145 194.347656 144.296875 194.648438 143.488281 C 194.914062 142.722656 195.335938 142.050781 195.902344 141.476562 C 206.238281 130.820312 217.316406 117.917969 218.746094 105.964844 C 218.773438 105.753906 218.734375 105.554688 218.628906 105.367188 C 218.527344 105.183594 218.382812 105.042969 218.1875 104.949219 C 217.996094 104.855469 217.796875 104.828125 217.585938 104.863281 C 217.375 104.898438 217.195312 104.992188 217.046875 105.140625 L 187.738281 134.449219 L 158.429688 105.140625 C 158.28125 104.988281 158.097656 104.894531 157.890625 104.859375 C 157.679688 104.824219 157.476562 104.855469 157.285156 104.945312 C 157.09375 105.039062 156.949219 105.179688 156.84375 105.367188 C 156.742188 105.550781 156.703125 105.75 156.726562 105.964844 C 158.152344 117.832031 168.941406 130.511719 179.570312 141.46875 C 180.132812 142.035156 180.550781 142.695312 180.820312 143.445312 C 181.121094 144.269531 181.234375 144.964844 180.984375 146.160156 C 180.65625 147.777344 180.207031 148.222656 179.125 149.292969 L 175.121094 153.316406 C 173.4375 154.996094 172.425781 155.417969 171.09375 154.976562 C 170.222656 154.6875 169.667969 154.246094 169.027344 153.738281 C 168.707031 153.488281 168.378906 153.230469 167.996094 152.972656 C 167.484375 152.636719 166.949219 152.351562 166.386719 152.121094 C 165.824219 151.886719 165.246094 151.707031 164.648438 151.582031 C 164.054688 151.453125 163.449219 151.386719 162.839844 151.375 C 162.230469 151.363281 161.628906 151.410156 161.027344 151.511719 C 160.425781 151.613281 159.839844 151.773438 159.269531 151.984375 C 158.699219 152.199219 158.152344 152.460938 157.632812 152.777344 C 157.109375 153.09375 156.625 153.453125 156.171875 153.863281 C 155.71875 154.269531 155.304688 154.714844 154.9375 155.203125 C 154.570312 155.6875 154.25 156.203125 153.976562 156.746094 C 153.703125 157.292969 153.488281 157.859375 153.320312 158.445312 C 153.15625 159.03125 153.046875 159.628906 152.996094 160.234375 C 152.941406 160.84375 152.945312 161.449219 153.007812 162.054688 C 153.070312 162.660156 153.1875 163.253906 153.363281 163.839844 C 153.535156 164.425781 153.761719 164.988281 154.042969 165.527344 C 154.320312 166.070312 154.648438 166.578125 155.027344 167.058594 C 155.402344 167.539062 155.820312 167.976562 156.277344 168.378906 C 156.738281 168.78125 157.230469 169.132812 157.753906 169.441406 C 158.28125 169.75 158.832031 170.007812 159.40625 170.210938 C 159.976562 170.414062 160.566406 170.5625 161.167969 170.65625 C 161.769531 170.75 162.375 170.789062 162.984375 170.765625 C 163.59375 170.746094 164.195312 170.667969 164.789062 170.535156 C 165.382812 170.402344 165.960938 170.214844 166.519531 169.972656 C 167.078125 169.726562 167.609375 169.4375 168.113281 169.09375 C 168.617188 168.75 169.085938 168.363281 169.515625 167.933594 L 187.746094 149.703125 L 205.976562 167.933594 C 206.425781 168.382812 206.917969 168.785156 207.445312 169.140625 C 207.976562 169.492188 208.535156 169.792969 209.125 170.035156 C 209.710938 170.28125 210.316406 170.464844 210.941406 170.589844 C 211.566406 170.714844 212.199219 170.777344 212.835938 170.777344 C 213.472656 170.777344 214.101562 170.714844 214.726562 170.589844 C 215.351562 170.464844 215.960938 170.28125 216.546875 170.039062 C 217.136719 169.792969 217.695312 169.496094 218.226562 169.140625 C 218.753906 168.789062 219.246094 168.386719 219.695312 167.933594 C 220.144531 167.484375 220.546875 166.996094 220.902344 166.464844 C 221.253906 165.933594 221.554688 165.375 221.796875 164.789062 C 222.042969 164.199219 222.226562 163.59375 222.351562 162.96875 C 222.472656 162.34375 222.535156 161.710938 222.535156 161.074219 C 222.535156 160.4375 222.472656 159.808594 222.347656 159.183594 C 222.222656 158.558594 222.039062 157.949219 221.796875 157.363281 C 221.550781 156.773438 221.253906 156.214844 220.898438 155.6875 C 220.542969 155.15625 220.140625 154.667969 219.691406 154.214844 Z M 180.746094 141.4375 C 170.039062 130.457031 159.003906 117.683594 157.585938 105.863281 C 157.574219 105.796875 157.597656 105.75 157.664062 105.722656 C 157.71875 105.691406 157.769531 105.703125 157.8125 105.75 L 187.128906 135.058594 Z M 168.898438 167.316406 C 168.65625 167.5625 168.398438 167.789062 168.125 168.003906 C 167.855469 168.21875 167.570312 168.417969 167.277344 168.597656 C 166.984375 168.78125 166.679688 168.945312 166.363281 169.089844 C 166.050781 169.234375 165.730469 169.363281 165.402344 169.46875 C 165.070312 169.578125 164.738281 169.664062 164.398438 169.734375 C 164.058594 169.800781 163.71875 169.851562 163.375 169.878906 C 163.027344 169.90625 162.683594 169.917969 162.339844 169.90625 C 161.992188 169.890625 161.648438 169.859375 161.304688 169.808594 C 160.964844 169.753906 160.625 169.683594 160.292969 169.589844 C 159.960938 169.5 159.632812 169.386719 159.3125 169.257812 C 158.992188 169.125 158.679688 168.976562 158.378906 168.8125 C 158.074219 168.644531 157.78125 168.460938 157.5 168.257812 C 157.21875 168.058594 156.953125 167.839844 156.695312 167.605469 C 156.441406 167.375 156.199219 167.128906 155.972656 166.867188 C 155.746094 166.605469 155.535156 166.332031 155.339844 166.046875 C 155.144531 165.757812 154.96875 165.464844 154.808594 165.15625 C 154.648438 164.847656 154.507812 164.535156 154.382812 164.210938 C 154.261719 163.886719 154.15625 163.558594 154.074219 163.222656 C 153.988281 162.886719 153.925781 162.546875 153.878906 162.203125 C 153.835938 161.863281 153.8125 161.515625 153.808594 161.171875 C 153.804688 160.824219 153.820312 160.480469 153.859375 160.136719 C 153.894531 159.792969 153.949219 159.453125 154.027344 159.113281 C 154.105469 158.777344 154.199219 158.445312 154.316406 158.121094 C 154.429688 157.792969 154.566406 157.476562 154.71875 157.164062 C 154.871094 156.855469 155.042969 156.554688 155.230469 156.265625 C 155.417969 155.972656 155.621094 155.695312 155.84375 155.429688 C 156.0625 155.164062 156.300781 154.910156 156.550781 154.671875 C 156.800781 154.433594 157.066406 154.210938 157.339844 154.003906 C 157.617188 153.796875 157.90625 153.605469 158.203125 153.429688 C 158.503906 153.257812 158.8125 153.101562 159.128906 152.964844 C 159.445312 152.828125 159.769531 152.707031 160.101562 152.609375 C 160.433594 152.507812 160.769531 152.429688 161.109375 152.367188 C 162.25 152.171875 163.386719 152.191406 164.519531 152.4375 C 165.59375 152.667969 166.589844 153.085938 167.507812 153.695312 C 167.863281 153.929688 168.175781 154.175781 168.476562 154.414062 C 169.125 154.925781 169.796875 155.457031 170.808594 155.796875 C 172.707031 156.425781 174.09375 155.546875 175.71875 153.925781 L 179.734375 149.921875 C 180.839844 148.824219 181.449219 148.21875 181.832031 146.347656 C 182.132812 144.882812 181.9375 143.488281 181.246094 142.164062 L 217.65625 105.75 C 217.703125 105.695312 217.757812 105.6875 217.820312 105.722656 C 217.882812 105.75 217.910156 105.796875 217.898438 105.867188 C 216.191406 120.03125 200.453125 135.769531 188.964844 147.257812 Z M 219.074219 167.316406 C 218.664062 167.726562 218.21875 168.09375 217.734375 168.414062 C 217.253906 168.738281 216.742188 169.007812 216.207031 169.230469 C 215.671875 169.453125 215.117188 169.621094 214.550781 169.734375 C 213.980469 169.847656 213.40625 169.902344 212.824219 169.902344 C 212.246094 169.902344 211.671875 169.847656 211.101562 169.734375 C 210.53125 169.621094 209.980469 169.453125 209.445312 169.230469 C 208.90625 169.007812 208.398438 168.738281 207.914062 168.414062 C 207.433594 168.09375 206.988281 167.726562 206.578125 167.316406 L 188.347656 149.097656 L 189.574219 147.871094 C 190.890625 146.554688 192.25 145.195312 193.648438 143.78125 C 193.464844 144.632812 193.464844 145.488281 193.648438 146.34375 C 194.03125 148.214844 194.636719 148.816406 195.746094 149.917969 L 199.761719 153.929688 C 201.382812 155.550781 202.769531 156.429688 204.667969 155.800781 C 205.683594 155.460938 206.355469 154.929688 207 154.421875 C 207.300781 154.179688 207.617188 153.925781 207.972656 153.699219 C 208.425781 153.398438 208.902344 153.144531 209.402344 152.933594 C 209.902344 152.722656 210.414062 152.558594 210.945312 152.445312 C 211.476562 152.328125 212.011719 152.261719 212.554688 152.242188 C 213.097656 152.226562 213.636719 152.257812 214.171875 152.339844 C 214.710938 152.421875 215.234375 152.554688 215.746094 152.734375 C 216.257812 152.910156 216.75 153.136719 217.222656 153.40625 C 217.691406 153.675781 218.136719 153.984375 218.550781 154.335938 C 218.964844 154.6875 219.339844 155.070312 219.683594 155.492188 C 220.027344 155.914062 220.328125 156.363281 220.589844 156.835938 C 220.851562 157.3125 221.066406 157.808594 221.234375 158.324219 C 221.402344 158.839844 221.523438 159.367188 221.59375 159.90625 C 221.667969 160.445312 221.6875 160.984375 221.660156 161.527344 C 221.632812 162.066406 221.558594 162.601562 221.429688 163.128906 C 221.304688 163.660156 221.132812 164.171875 220.910156 164.667969 C 220.691406 165.164062 220.425781 165.632812 220.121094 166.082031 C 219.8125 166.527344 219.46875 166.945312 219.082031 167.328125 Z M 219.074219 167.316406 " fill-opacity="1" fill-rule="nonzero"/></g><g clip-path="url(#d9eba549c4)"><path stroke-linecap="butt" transform="matrix(0.164822, 0, 0, 0.164822, 152.869214, 104.761464)" fill="none" stroke-linejoin="miter" d="M 405.373254 300.041358 C 403.003272 297.671376 400.41999 295.514691 397.67081 293.571305 C 394.94533 291.62792 392.030252 289.945232 388.996674 288.499542 C 385.963096 287.053853 382.834718 285.892561 379.587842 284.968268 C 376.340966 284.067675 373.04669 283.451479 369.705014 283.119682 C 366.363338 282.764184 363.021663 282.716785 359.656287 282.953783 C 356.314612 283.190781 352.996636 283.688477 349.72606 284.494272 C 346.455483 285.300066 343.279707 286.366558 340.198729 287.717448 C 337.117751 289.068338 334.178973 290.656227 331.358693 292.504813 C 329.03611 294.069002 327.045325 295.63319 325.101939 297.149979 C 321.215167 300.230957 317.849792 302.909037 312.54103 304.662825 C 304.554189 307.340905 298.344834 304.805024 288.130208 294.590398 L 263.766786 270.250675 C 257.178234 263.709523 254.476453 261.031442 252.461968 251.243414 C 251.016279 244.133466 251.656174 239.867497 253.481061 234.961632 C 255.092649 230.316466 257.65223 226.240096 261.088705 222.756221 C 323.798448 158.103092 391.011159 79.822562 399.685296 7.30109 C 399.851195 6.0213 399.614196 4.812609 398.974301 3.675017 C 398.358105 2.561125 397.481212 1.707931 396.29622 1.139135 C 395.134929 0.57034 393.926238 0.404441 392.646447 0.617739 C 391.366656 0.831038 390.276464 1.399833 389.375871 2.300427 L 211.556066 180.120232 L 33.736261 2.300427 C 32.835668 1.376134 31.721776 0.807338 30.465685 0.594039 C 29.185894 0.380741 27.953503 0.57034 26.792212 1.115436 C 25.63092 1.684231 24.754027 2.537425 24.114131 3.675017 C 23.497936 4.788909 23.260937 5.9976 23.403136 7.30109 C 32.053573 79.301166 97.512497 156.230806 161.999727 222.708822 C 165.412502 226.145297 167.948384 230.150567 169.583672 234.700934 C 171.408558 239.701598 172.095853 243.920167 170.579064 251.172314 C 168.588279 260.984043 165.862799 263.685823 159.297947 270.179576 L 135.005624 294.590398 C 124.790998 304.781324 118.652743 307.340905 110.571102 304.662825 C 105.28604 302.909037 101.920665 300.230957 98.033893 297.149979 C 96.090507 295.63319 94.099721 294.069002 91.777138 292.504813 C 88.672461 290.466628 85.425585 288.736541 82.01281 287.338251 C 78.600034 285.916261 75.09246 284.826069 71.466386 284.067675 C 67.864013 283.28558 64.190539 282.882683 60.493366 282.811584 C 56.796193 282.740484 53.14642 283.024882 49.496646 283.641078 C 45.846873 284.257273 42.291899 285.228966 38.831724 286.508757 C 35.371549 287.812247 32.053573 289.400136 28.901496 291.319822 C 25.725719 293.239508 22.786941 295.419892 20.037761 297.908374 C 17.288581 300.373156 14.776399 303.074936 12.548615 306.037415 C 10.320832 308.976193 8.377446 312.10457 6.718458 315.398846 C 5.05947 318.716822 3.75598 322.153297 2.736887 325.708271 C 1.741494 329.263245 1.077899 332.889319 0.769801 336.562792 C 0.438004 340.259965 0.461704 343.933439 0.840901 347.606912 C 1.220098 351.280385 1.931093 354.882759 2.997585 358.437733 C 4.040377 361.992707 5.414967 365.405482 7.121355 368.676058 C 8.804043 371.970334 10.794828 375.051312 13.093712 377.966391 C 15.368895 380.88147 17.904776 383.53585 20.677656 385.976932 C 23.474236 388.418015 26.460414 390.550999 29.636191 392.423285 C 32.835668 394.295572 36.177343 395.85976 39.661218 397.092151 C 43.121393 398.324542 46.700067 399.225136 50.34984 399.793932 C 53.999614 400.362728 57.673087 400.599726 61.37026 400.457527 C 65.067433 400.339028 68.717206 399.865031 72.31958 399.059237 C 75.921954 398.253443 79.429528 397.115851 82.818604 395.646462 C 86.207679 394.153373 89.430856 392.399586 92.488133 390.314001 C 95.545411 388.228416 98.38939 385.882133 100.996371 383.275152 L 211.603466 272.668058 L 322.21056 383.275152 C 324.93604 386.000632 327.922218 388.441714 331.121695 390.598399 C 334.344872 392.731383 337.733947 394.55627 341.312621 396.025659 C 344.867595 397.518748 348.541068 398.63264 352.333041 399.391035 C 356.125013 400.149429 359.964385 400.528626 363.827457 400.528626 C 367.690529 400.528626 371.506201 400.149429 375.298173 399.391035 C 379.090146 398.63264 382.787319 397.518748 386.342293 396.049359 C 389.920967 394.55627 393.310042 392.755083 396.533219 390.598399 C 399.732695 388.465414 402.718874 386.024332 405.444354 383.275152 C 408.169834 380.549672 410.610916 377.587194 412.7676 374.364017 C 414.900585 371.14084 416.725472 367.751765 418.194861 364.196791 C 419.68795 360.618117 420.801842 356.944644 421.560236 353.152671 C 422.294931 349.360699 422.674128 345.521327 422.674128 341.658255 C 422.674128 337.795183 422.294931 333.979511 421.536537 330.187539 C 420.778142 326.395566 419.66425 322.698393 418.194861 319.143419 C 416.701772 315.564745 414.900585 312.17567 412.743901 308.976193 C 410.587216 305.753017 408.146134 302.790538 405.420654 300.041358 Z M 169.133375 222.519223 C 104.172148 155.899008 37.220136 78.400573 28.617098 6.684895 C 28.545999 6.281998 28.688198 5.9976 29.091095 5.831701 C 29.422893 5.642103 29.73099 5.713202 29.991688 5.9976 L 207.858893 183.817405 Z M 97.251799 379.530579 C 95.782409 381.023668 94.218221 382.398258 92.559233 383.701749 C 90.923945 385.005239 89.193857 386.213931 87.41637 387.304123 C 85.638883 388.418015 83.790297 389.413407 81.870611 390.290301 C 79.974624 391.167195 78.031239 391.949289 76.040453 392.589184 C 74.025968 393.252779 72.011482 393.774176 69.949597 394.200773 C 67.887712 394.60367 65.825827 394.911767 63.740243 395.077666 C 61.630958 395.243565 59.545373 395.314664 57.459788 395.243565 C 55.350504 395.148766 53.264919 394.959167 51.179334 394.651069 C 49.117449 394.319272 47.055564 393.892675 45.041079 393.323879 C 43.026593 392.778783 41.035808 392.091488 39.092422 391.309394 C 37.149036 390.503599 35.25305 389.603006 33.428163 388.607613 C 31.579577 387.588521 29.80209 386.474629 28.095702 385.242238 C 26.389315 384.033547 24.777726 382.706356 23.213538 381.284367 C 21.673049 379.886077 20.20366 378.392988 18.82907 376.805099 C 17.45448 375.217211 16.174689 373.558223 14.989698 371.828135 C 13.804706 370.074348 12.738214 368.296861 11.766521 366.424575 C 10.794828 364.552288 9.941634 362.656302 9.18324 360.689217 C 8.448545 358.722131 7.80865 356.731345 7.310954 354.69316 C 6.789557 352.654975 6.41036 350.59309 6.125962 348.507505 C 5.865264 346.44562 5.723065 344.336336 5.699365 342.250751 C 5.675666 340.141466 5.770465 338.055881 6.007463 335.970297 C 6.220762 333.884712 6.552559 331.822827 7.026556 329.760942 C 7.500552 327.722757 8.069348 325.708271 8.780343 323.741186 C 9.467638 321.7504 10.297132 319.830714 11.221425 317.934728 C 12.145718 316.062442 13.188511 314.237555 14.326103 312.483768 C 15.463694 310.706281 16.696085 309.023593 18.046975 307.412005 C 19.374166 305.800416 20.819855 304.259928 22.336644 302.814238 C 23.853433 301.368549 25.465021 300.017658 27.124009 298.761568 C 28.806697 297.505477 30.560484 296.344185 32.361671 295.277693 C 34.186558 294.234901 36.058844 293.286908 37.97853 292.457414 C 39.898216 291.62792 41.865302 290.893225 43.879787 290.300729 C 45.894273 289.684534 47.932458 289.210537 49.994343 288.83134 C 56.914692 287.646349 63.811342 287.764848 70.684292 289.257937 C 77.201745 290.656227 83.245201 293.192108 88.81466 296.889281 C 90.971344 298.311271 92.86733 299.80436 94.692217 301.25005 C 98.626389 304.354727 102.702759 307.577903 108.841014 309.639788 C 120.35913 313.455461 128.772569 308.122999 138.631697 298.287571 L 162.99512 273.995248 C 169.702171 267.335597 173.399344 263.662123 175.721927 252.309906 C 177.546814 243.422471 176.361822 234.961632 172.166953 226.927391 L 393.073044 5.9976 C 393.357442 5.665802 393.689239 5.618403 394.068437 5.831701 C 394.447634 5.9976 394.613533 6.281998 394.542433 6.708595 C 384.185609 92.644169 288.699004 188.130773 218.997812 257.831966 Z M 401.676081 379.530579 C 399.187599 382.019061 396.485819 384.246845 393.54704 386.190231 C 390.631962 388.157317 387.527284 389.792605 384.280408 391.143495 C 381.033532 392.494385 377.668156 393.513478 374.231681 394.200773 C 370.771506 394.888068 367.287632 395.219865 363.756357 395.219865 C 360.248783 395.219865 356.764908 394.888068 353.304734 394.200773 C 349.844559 393.513478 346.502883 392.494385 343.256007 391.143495 C 339.985431 389.792605 336.904453 388.157317 333.965674 386.190231 C 331.050596 384.246845 328.348815 382.019061 325.860333 379.530579 L 215.253239 268.994584 L 222.694985 261.552839 C 230.681827 253.565997 238.929367 245.318457 247.413905 236.739119 C 246.300013 241.905682 246.300013 247.095944 247.413905 252.286206 C 249.736488 263.638423 253.409961 267.288197 260.140712 273.971548 L 284.504135 298.311271 C 294.339563 308.146699 302.753002 313.47916 314.271118 309.663488 C 320.433073 307.601603 324.509443 304.378427 328.419915 301.297449 C 330.244802 299.82806 332.164488 298.287571 334.321172 296.912981 C 337.070352 295.088094 339.961731 293.547606 342.995309 292.267815 C 346.028887 290.988024 349.133564 289.992632 352.35674 289.305337 C 355.579917 288.594342 358.826793 288.191445 362.121069 288.072945 C 365.415345 287.978146 368.685922 288.167745 371.932798 288.665441 C 375.203374 289.163138 378.379151 289.968932 381.483828 291.059124 C 384.588506 292.125616 387.574684 293.500206 390.442363 295.135494 C 393.286342 296.770782 395.988123 298.643069 398.500304 300.776053 C 401.012486 302.909037 403.28767 305.231621 405.373254 307.791202 C 407.458839 310.350783 409.283726 313.076263 410.871614 315.943942 C 412.459503 318.835321 413.762993 321.8452 414.782086 324.973577 C 415.801178 328.101954 416.535873 331.301431 416.96247 334.572007 C 417.412767 337.842583 417.531266 341.113159 417.365367 344.407435 C 417.199468 347.678011 416.749171 350.924888 415.967077 354.124364 C 415.208683 357.347541 414.16589 360.452218 412.815 363.462096 C 411.48781 366.471974 409.876222 369.315954 408.027635 372.041434 C 406.155349 374.743214 404.069764 377.279096 401.723481 379.601679 Z M 401.676081 379.530579 " stroke="#ad844b" stroke-width="1" stroke-opacity="1" stroke-miterlimit="10"/></g><path stroke-linecap="butt" transform="matrix(0.164822, 0, 0, 0.164822, 152.869214, 104.761464)" fill-opacity="1" fill="#e1c340" fill-rule="nonzero" stroke-linejoin="miter" d="M 80.709319 309.165792 C 79.382129 308.312598 78.031239 307.530504 76.632949 306.843209 C 75.210959 306.155914 73.76527 305.539718 72.29588 305.018322 C 70.802791 304.520626 69.309702 304.094029 67.769213 303.738531 C 66.252424 303.406734 64.711936 303.169736 63.147747 303.027537 C 61.583558 302.885338 60.01937 302.814238 58.455181 302.861638 C 56.890993 302.909037 55.326804 303.051236 53.762615 303.264535 C 52.222127 303.501533 50.681638 303.833331 49.188549 304.236228 C 47.67176 304.662825 46.178671 305.160521 44.732981 305.776717 C 43.287292 306.369212 41.889002 307.056507 40.514412 307.814902 C 39.139822 308.573296 37.836331 309.42649 36.556541 310.350783 C 35.30045 311.275077 34.091759 312.270469 32.954167 313.360661 C 31.816575 314.427154 30.750083 315.564745 29.73099 316.773436 C 28.735598 317.982128 27.811304 319.238219 26.958111 320.541709 C 26.104917 321.868899 25.322822 323.21979 24.635527 324.641779 C 23.948232 326.040069 23.355737 327.485758 22.834341 328.978848 C 22.336644 330.448237 21.910047 331.965026 21.57825 333.505515 C 21.270152 335.022304 21.033154 336.586492 20.890955 338.126981 C 20.748756 339.69117 20.701356 341.255358 20.748756 342.819547 C 20.796155 344.383735 20.938354 345.947924 21.175353 347.512113 C 21.412351 349.052601 21.744148 350.59309 22.170745 352.086179 C 22.597342 353.602968 23.118738 355.072358 23.711234 356.518047 C 24.32743 357.963736 25.014725 359.385726 25.773119 360.736616 C 26.555213 362.111206 27.408407 363.414697 28.332701 364.670788 C 29.280694 365.926878 30.276086 367.13557 31.366278 368.273161 C 32.432771 369.410753 33.570362 370.477245 34.779054 371.472638 C 35.987745 372.468031 37.267535 373.392324 38.571026 374.245518 C 39.898216 375.098712 41.272806 375.857106 42.671096 376.544401 C 44.093086 377.207996 45.538775 377.800492 47.008164 378.321888 C 48.501254 378.819585 50.018043 379.222482 51.558531 379.554279 C 53.07532 379.862377 54.639509 380.099375 56.203698 380.241574 C 57.744186 380.360073 59.308375 380.407473 60.896263 380.336373 C 62.460452 380.288974 64.000941 380.146775 65.565129 379.886077 C 67.105618 379.649079 68.622407 379.317281 70.139196 378.866984 C 71.655985 378.440387 73.125374 377.918991 74.571064 377.326495 C 76.016753 376.7103 77.415043 376.023005 78.765933 375.240911 C 80.140523 374.458816 81.444014 373.581923 82.700105 372.657629 C 83.956195 371.709636 85.141187 370.714244 86.278778 369.624052 C 87.41637 368.533859 88.482862 367.396268 89.478255 366.187577 C 90.473648 364.955186 91.374241 363.699095 92.227435 362.371904 C 93.056929 361.044714 93.815324 359.670124 94.478919 358.271834 C 95.166214 356.849845 95.758709 355.404155 96.256406 353.911066 C 96.730402 352.417977 97.156999 350.901188 97.465097 349.384399 C 97.773195 347.84391 97.986493 346.279722 98.128692 344.739233 C 98.247191 343.175044 98.270891 341.610856 98.223491 340.046667 C 98.152392 338.458779 97.986493 336.91829 97.749495 335.354101 C 97.488797 333.813612 97.133299 332.296823 96.706703 330.780034 C 96.256406 329.286945 95.73501 327.817556 95.118814 326.371867 C 94.502619 324.926177 93.815324 323.527887 93.009529 322.176997 C 89.928552 316.868236 85.828482 312.554867 80.709319 309.165792 Z M 83.126701 365.429182 C 81.254415 367.301468 79.21623 368.936757 76.964746 370.311347 C 74.713263 371.685936 72.31958 372.799828 69.831098 373.605623 C 67.318917 374.435116 64.735635 374.956513 62.104955 375.169811 C 59.474274 375.38311 56.867293 375.28831 54.260312 374.909113 C 51.653331 374.506216 49.117449 373.795221 46.676367 372.799828 C 44.235285 371.804436 41.936401 370.548345 39.779717 369.007856 C 37.646733 367.491067 35.703347 365.71358 33.973259 363.722794 C 32.243172 361.732009 30.750083 359.575325 29.541392 357.229042 C 28.309001 354.882759 27.384707 352.441677 26.744812 349.882095 C 26.081217 347.322514 25.749419 344.739233 25.70202 342.084852 C 25.67832 339.454171 25.939018 336.84719 26.531514 334.263909 C 27.100309 331.704328 27.977203 329.215846 29.138495 326.845863 C 30.299786 324.47588 31.721776 322.271796 33.404464 320.233611 C 35.063451 318.219126 36.959438 316.394239 39.068722 314.806351 C 41.178007 313.218462 43.429491 311.891272 45.846873 310.82478 C 48.264255 309.781987 50.776437 308.999893 53.383418 308.549596 C 57.29389 307.862301 61.180661 307.862301 65.091133 308.549596 C 68.124711 309.070993 71.039789 309.995286 73.812669 311.322476 C 76.585549 312.649666 79.14513 314.332354 81.444014 316.370539 C 83.766597 318.385025 85.781082 320.683908 87.46377 323.267189 C 89.146458 325.85047 90.449948 328.59965 91.374241 331.538429 C 92.298535 334.477208 92.819931 337.487086 92.91473 340.568063 C 93.033229 343.649041 92.725132 346.682619 91.990437 349.668797 C 91.255742 352.654975 90.14185 355.498954 88.625061 358.177035 C 87.108272 360.878815 85.259686 363.296198 83.079302 365.476582 Z M 83.126701 365.429182 " stroke="#ad844b" stroke-width="1" stroke-opacity="1" stroke-miterlimit="10"/><path stroke-linecap="butt" transform="matrix(0.164822, 0, 0, 0.164822, 152.869214, 104.761464)" fill-opacity="1" fill="#e1c340" fill-rule="nonzero" stroke-linejoin="miter" d="M 391.248157 314.166455 C 387.977581 310.919579 384.256708 308.312598 380.085539 306.369212 C 375.890669 304.449526 371.506201 303.288235 366.908434 302.909037 C 362.310668 302.55354 357.784001 302.980137 353.352133 304.212528 C 348.896566 305.444919 344.796496 307.412005 341.051923 310.090085 C 337.994645 312.294169 335.316565 314.90115 333.017681 317.887328 C 331.500892 319.854414 330.173702 321.939999 329.05981 324.144083 C 327.945918 326.371867 327.045325 328.67075 326.35803 331.064432 C 325.694435 333.458115 325.244138 335.875497 325.03084 338.363979 C 324.817541 340.828761 324.841241 343.293543 325.101939 345.758325 C 325.362637 348.246807 325.860333 350.66419 326.595028 353.034172 C 327.329723 355.404155 328.277716 357.679339 329.439007 359.883422 C 330.600299 362.087506 331.951189 364.149391 333.515378 366.069077 C 335.079566 368.012463 336.809654 369.76625 338.70564 371.377839 C 340.601626 372.965727 342.639811 374.364017 344.796496 375.596408 C 346.97688 376.805099 349.228363 377.800492 351.598346 378.558886 C 353.944629 379.340981 356.362011 379.886077 358.826793 380.217874 C 361.291575 380.525972 363.756357 380.597072 366.244839 380.454873 C 368.709621 380.288974 371.150704 379.886077 373.544386 379.269881 C 375.961769 378.653686 378.284352 377.800492 380.512135 376.734 C 382.763619 375.643808 384.872904 374.387717 386.863689 372.894628 C 388.878174 371.425238 390.703061 369.76625 392.385749 367.941364 C 394.068437 366.116477 395.561526 364.149391 396.865016 362.040107 C 398.168507 359.930822 399.258699 357.703038 400.135592 355.380455 C 401.012486 353.057872 401.652381 350.66419 402.078978 348.223107 C 402.481875 345.782025 402.671474 343.317243 402.624074 340.828761 C 402.576675 338.340279 402.292277 335.899197 401.770881 333.458115 C 401.249484 331.040733 400.49109 328.69445 399.519397 326.395566 C 398.547704 324.120383 397.362713 321.939999 395.964423 319.878114 C 394.589833 317.839929 393.001944 315.920243 391.248157 314.166455 Z M 387.550984 365.429182 C 386.057895 366.945971 384.422607 368.296861 382.66882 369.481853 C 380.891333 370.690544 379.042746 371.709636 377.09936 372.56283 C 375.155974 373.392324 373.141489 374.055919 371.055904 374.506216 C 368.970319 374.980213 366.884735 375.240911 364.75175 375.31201 C 362.618766 375.38311 360.509481 375.240911 358.423896 374.909113 C 356.314612 374.553616 354.276427 374.032219 352.261941 373.297525 C 350.271156 372.58653 348.35147 371.685936 346.526583 370.595744 C 344.701696 369.505552 342.995309 368.249462 341.40742 366.851172 C 339.819532 365.429182 338.373842 363.888693 337.070352 362.206006 C 335.766861 360.499618 334.652969 358.722131 333.681277 356.826145 C 332.733283 354.930159 331.951189 352.939373 331.382393 350.901188 C 330.789898 348.863003 330.4107 346.777418 330.221102 344.644433 C 330.031503 342.535149 330.055203 340.425864 330.268501 338.31658 C 330.4818 336.183595 330.884697 334.12171 331.500892 332.083525 C 332.093388 330.04534 332.899182 328.078254 333.870875 326.182268 C 334.866268 324.309982 336.00386 322.508795 337.33105 320.849807 C 339.132237 318.550924 341.217822 316.512738 343.540405 314.758951 C 345.246792 313.50286 347.024279 312.388968 348.920266 311.464675 C 350.816252 310.516682 352.783337 309.781987 354.797823 309.213192 C 356.836008 308.668095 358.921593 308.288898 361.007177 308.122999 C 363.116462 307.933401 365.225747 307.957101 367.311332 308.194099 C 369.420616 308.407397 371.482501 308.833994 373.496987 309.42649 C 375.511472 310.042685 377.454858 310.84848 379.327144 311.820173 C 381.19943 312.791865 382.953218 313.929457 384.612206 315.232948 C 386.271193 316.536438 387.787982 318.005827 389.186272 319.593716 C 390.560862 321.181604 391.769553 322.887992 392.836046 324.712879 C 393.902538 326.537765 394.779431 328.433752 395.490426 330.424537 C 396.201421 332.415323 396.699118 334.453508 397.030915 336.539092 C 397.339013 338.624677 397.457512 340.733962 397.386413 342.843247 C 397.315313 344.952531 397.054615 347.014416 396.580618 349.076301 C 396.106622 351.138186 395.466726 353.128972 394.613533 355.072358 C 393.784039 357.015743 392.764946 358.84063 391.579955 360.594417 C 390.371264 362.324505 389.044073 363.959793 387.550984 365.429182 Z M 387.550984 365.429182 " stroke="#ad844b" stroke-width="1" stroke-opacity="1" stroke-miterlimit="10"/><path stroke-linecap="butt" transform="matrix(0.164822, 0, 0, 0.164822, 152.869214, 104.761464)" fill-opacity="1" fill="#e1c340" fill-rule="nonzero" stroke-linejoin="miter" d="M 224.164374 223.988612 C 224.164374 223.040619 224.045875 222.068926 223.832577 221.144633 C 223.619278 220.19664 223.287481 219.296046 222.860884 218.419153 C 222.434287 217.565959 221.912891 216.760165 221.296695 216.00177 C 220.704199 215.267076 219.993205 214.579781 219.23481 214.010985 C 218.476416 213.418489 217.646922 212.920793 216.770028 212.517896 C 215.893134 212.114999 214.968841 211.830601 214.020848 211.641002 C 213.072855 211.451404 212.124862 211.356604 211.153169 211.404004 C 210.181476 211.427704 209.233483 211.569903 208.30919 211.806901 C 207.384896 212.067599 206.484303 212.423096 205.631109 212.873393 C 204.777915 213.32369 203.995821 213.868786 203.261126 214.508681 C 202.526432 215.148577 201.886536 215.859571 201.317741 216.641666 C 200.772645 217.42376 200.298648 218.276954 199.919451 219.153847 C 199.563953 220.054441 199.279555 220.978734 199.137356 221.926727 C 198.971458 222.87472 198.924058 223.846413 198.995157 224.794406 C 199.042557 225.766099 199.208456 226.714092 199.492854 227.638386 C 199.777252 228.562679 200.156449 229.439573 200.630446 230.269067 C 201.128142 231.12226 201.696938 231.880655 202.360533 232.59165 C 203.024128 233.302644 203.735123 233.91884 204.540917 234.463936 C 205.346711 235.009032 206.199905 235.435629 207.100498 235.767426 C 208.024792 236.122924 208.949085 236.359922 209.897078 236.478421 C 210.868771 236.59692 211.816764 236.62062 212.788457 236.525821 C 213.73645 236.431022 214.684443 236.241423 215.608736 235.933325 C 216.50933 235.625227 217.386224 235.198631 218.192018 234.700934 C 219.021512 234.179538 219.779906 233.587042 220.467201 232.899747 C 222.931983 230.458665 224.164374 227.472487 224.164374 223.988612 Z M 216.770028 229.202574 C 215.964234 230.008368 215.016241 230.600864 213.926049 230.980061 C 212.835857 231.335559 211.745665 231.454058 210.608073 231.288159 C 209.470481 231.14596 208.427689 230.743063 207.479696 230.126868 C 206.531703 229.486972 205.773308 228.657478 205.204512 227.685785 C 204.612017 226.690393 204.303919 225.6239 204.232819 224.486309 C 204.16172 223.348717 204.327619 222.234825 204.777915 221.192033 C 205.204512 220.12554 205.868107 219.224947 206.721301 218.466552 C 207.574495 217.708158 208.569888 217.186762 209.66008 216.902364 C 210.773972 216.594266 211.887864 216.570566 213.001755 216.783865 C 214.139347 216.997163 215.13474 217.47116 216.059033 218.158455 C 216.959627 218.86945 217.670621 219.722643 218.168318 220.741736 C 218.666014 221.760828 218.926712 222.851021 218.926712 223.988612 C 218.950412 226.050497 218.215717 227.804284 216.770028 229.249974 Z M 216.770028 229.202574 " stroke="#ad844b" stroke-width="1" stroke-opacity="1" stroke-miterlimit="10"/><g fill="#e1c340" fill-opacity="1"><g transform="translate(42.208032, 199.43067)"><g><path d="M -0.5 0 L -0.5 -0.34375 C -0.132812 -0.46875 0.207031 -0.710938 0.53125 -1.078125 C 0.863281 -1.441406 1.191406 -2.023438 1.515625 -2.828125 L 6 -13.96875 C 6.175781 -14.414062 6.160156 -14.847656 5.953125 -15.265625 L 5.640625 -15.9375 L 7.984375 -16.984375 L 13.9375 -2.8125 C 14.28125 -2.019531 14.609375 -1.441406 14.921875 -1.078125 C 15.234375 -0.710938 15.523438 -0.46875 15.796875 -0.34375 L 15.796875 0 L 11.421875 0 L 11.421875 -0.34375 C 11.828125 -0.46875 11.976562 -0.710938 11.875 -1.078125 C 11.769531 -1.441406 11.546875 -2.019531 11.203125 -2.8125 L 9.765625 -6.265625 L 3.359375 -6.265625 L 1.96875 -2.828125 C 1.644531 -2.023438 1.515625 -1.429688 1.578125 -1.046875 C 1.648438 -0.671875 1.882812 -0.4375 2.28125 -0.34375 L 2.28125 0 Z M 3.5 -6.640625 L 9.59375 -6.640625 L 6.5 -14.0625 Z M 3.5 -6.640625 "/></g></g></g><g fill="#e1c340" fill-opacity="1"><g transform="translate(62.392056, 199.43067)"><g><path d="M 4.515625 0 L 4.515625 -0.34375 C 4.910156 -0.46875 5.164062 -0.734375 5.28125 -1.140625 C 5.40625 -1.546875 5.46875 -2.179688 5.46875 -3.046875 L 5.46875 -16.375 L 4.734375 -16.375 C 3.660156 -16.375 2.816406 -16.191406 2.203125 -15.828125 C 1.597656 -15.460938 1.070312 -14.800781 0.625 -13.84375 L 0.34375 -13.890625 L 0.484375 -16.796875 L 12.984375 -16.796875 L 13.125 -13.890625 L 12.84375 -13.84375 C 12.394531 -14.800781 11.863281 -15.460938 11.25 -15.828125 C 10.644531 -16.191406 9.804688 -16.375 8.734375 -16.375 L 8.046875 -16.375 L 8.046875 -3.046875 C 8.046875 -2.179688 8.101562 -1.546875 8.21875 -1.140625 C 8.34375 -0.734375 8.601562 -0.46875 9 -0.34375 L 9 0 Z M 4.515625 0 "/></g></g></g><g fill="#e1c340" fill-opacity="1"><g transform="translate(80.584088, 199.43067)"><g><path d="M 1.125 0 L 1.125 -0.34375 C 1.53125 -0.46875 1.789062 -0.734375 1.90625 -1.140625 C 2.03125 -1.546875 2.09375 -2.179688 2.09375 -3.046875 L 2.09375 -13.75 C 2.09375 -14.613281 2.03125 -15.25 1.90625 -15.65625 C 1.789062 -16.0625 1.53125 -16.332031 1.125 -16.46875 L 1.125 -16.796875 L 12.640625 -16.796875 L 12.90625 -13.421875 L 12.59375 -13.34375 C 12.113281 -14.53125 11.46875 -15.335938 10.65625 -15.765625 C 9.851562 -16.203125 8.78125 -16.421875 7.4375 -16.421875 L 4.625 -16.421875 L 4.625 -9.21875 L 6.9375 -9.21875 C 7.914062 -9.21875 8.679688 -9.28125 9.234375 -9.40625 C 9.796875 -9.53125 10.210938 -9.726562 10.484375 -10 C 10.753906 -10.28125 10.957031 -10.628906 11.09375 -11.046875 L 11.421875 -11.046875 L 11.421875 -7.015625 L 11.09375 -7.015625 C 10.957031 -7.421875 10.753906 -7.757812 10.484375 -8.03125 C 10.210938 -8.3125 9.796875 -8.515625 9.234375 -8.640625 C 8.679688 -8.765625 7.914062 -8.828125 6.9375 -8.828125 L 4.625 -8.828125 L 4.625 -1.578125 C 4.625 -0.785156 5.023438 -0.390625 5.828125 -0.390625 L 8.140625 -0.390625 C 9.347656 -0.390625 10.367188 -0.613281 11.203125 -1.0625 C 12.035156 -1.507812 12.675781 -2.335938 13.125 -3.546875 L 13.4375 -3.5 L 13.265625 0 Z M 1.125 0 "/></g></g></g><g fill="#e1c340" fill-opacity="1"><g transform="translate(99.616118, 199.43067)"><g><path d="M 1.125 0 L 1.125 -0.34375 C 1.53125 -0.46875 1.789062 -0.734375 1.90625 -1.140625 C 2.03125 -1.546875 2.09375 -2.179688 2.09375 -3.046875 L 2.09375 -13.75 C 2.09375 -14.613281 2.03125 -15.25 1.90625 -15.65625 C 1.789062 -16.0625 1.53125 -16.332031 1.125 -16.46875 L 1.125 -16.796875 L 5.59375 -16.796875 L 5.59375 -16.46875 C 5.1875 -16.332031 4.921875 -16.0625 4.796875 -15.65625 C 4.679688 -15.25 4.625 -14.613281 4.625 -13.75 L 4.625 -1.625 C 4.625 -0.832031 5.023438 -0.4375 5.828125 -0.4375 L 7.796875 -0.4375 C 9.015625 -0.4375 9.972656 -0.617188 10.671875 -0.984375 C 11.367188 -1.347656 11.957031 -2.046875 12.4375 -3.078125 L 12.75 -3.03125 L 12.546875 0 Z M 1.125 0 "/></g></g></g><g fill="#e1c340" fill-opacity="1"><g transform="translate(117.544144, 199.43067)"><g><path d="M 1.125 0 L 1.125 -0.34375 C 1.53125 -0.46875 1.789062 -0.734375 1.90625 -1.140625 C 2.03125 -1.546875 2.09375 -2.179688 2.09375 -3.046875 L 2.09375 -13.75 C 2.09375 -14.613281 2.03125 -15.25 1.90625 -15.65625 C 1.789062 -16.0625 1.53125 -16.332031 1.125 -16.46875 L 1.125 -16.796875 L 5.59375 -16.796875 L 5.59375 -16.46875 C 5.1875 -16.332031 4.921875 -16.0625 4.796875 -15.65625 C 4.679688 -15.25 4.625 -14.613281 4.625 -13.75 L 4.625 -3.046875 C 4.625 -2.179688 4.679688 -1.546875 4.796875 -1.140625 C 4.921875 -0.734375 5.1875 -0.46875 5.59375 -0.34375 L 5.59375 0 Z M 1.125 0 "/></g></g></g><g fill="#e1c340" fill-opacity="1"><g transform="translate(129.016159, 199.43067)"><g><path d="M 1.125 0 L 1.125 -0.34375 C 1.53125 -0.46875 1.789062 -0.734375 1.90625 -1.140625 C 2.03125 -1.546875 2.09375 -2.179688 2.09375 -3.046875 L 2.09375 -13.75 C 2.09375 -14.613281 2.03125 -15.25 1.90625 -15.65625 C 1.789062 -16.0625 1.53125 -16.332031 1.125 -16.46875 L 1.125 -16.796875 L 12.640625 -16.796875 L 12.90625 -13.421875 L 12.59375 -13.34375 C 12.113281 -14.53125 11.46875 -15.335938 10.65625 -15.765625 C 9.851562 -16.203125 8.78125 -16.421875 7.4375 -16.421875 L 4.625 -16.421875 L 4.625 -9.21875 L 6.9375 -9.21875 C 7.914062 -9.21875 8.679688 -9.28125 9.234375 -9.40625 C 9.796875 -9.53125 10.210938 -9.726562 10.484375 -10 C 10.753906 -10.28125 10.957031 -10.628906 11.09375 -11.046875 L 11.421875 -11.046875 L 11.421875 -7.015625 L 11.09375 -7.015625 C 10.957031 -7.421875 10.753906 -7.757812 10.484375 -8.03125 C 10.210938 -8.3125 9.796875 -8.515625 9.234375 -8.640625 C 8.679688 -8.765625 7.914062 -8.828125 6.9375 -8.828125 L 4.625 -8.828125 L 4.625 -1.578125 C 4.625 -0.785156 5.023438 -0.390625 5.828125 -0.390625 L 8.140625 -0.390625 C 9.347656 -0.390625 10.367188 -0.613281 11.203125 -1.0625 C 12.035156 -1.507812 12.675781 -2.335938 13.125 -3.546875 L 13.4375 -3.5 L 13.265625 0 Z M 1.125 0 "/></g></g></g><g fill="#e1c340" fill-opacity="1"><g transform="translate(148.048191, 199.43067)"><g><path d="M 13.34375 0.171875 C 12.6875 0.171875 12.160156 0.0234375 11.765625 -0.265625 C 11.378906 -0.566406 11.035156 -1.019531 10.734375 -1.625 C 10.441406 -2.238281 10.101562 -3.007812 9.71875 -3.9375 C 9.363281 -4.8125 9.066406 -5.550781 8.828125 -6.15625 C 8.585938 -6.757812 8.351562 -7.238281 8.125 -7.59375 C 7.90625 -7.957031 7.632812 -8.21875 7.3125 -8.375 C 7 -8.53125 6.578125 -8.609375 6.046875 -8.609375 L 4.625 -8.609375 L 4.625 -3.046875 C 4.625 -2.179688 4.679688 -1.546875 4.796875 -1.140625 C 4.921875 -0.734375 5.1875 -0.46875 5.59375 -0.34375 L 5.59375 0 L 1.125 0 L 1.125 -0.34375 C 1.53125 -0.46875 1.789062 -0.734375 1.90625 -1.140625 C 2.03125 -1.546875 2.09375 -2.179688 2.09375 -3.046875 L 2.09375 -13.75 C 2.09375 -14.613281 2.03125 -15.25 1.90625 -15.65625 C 1.789062 -16.0625 1.53125 -16.332031 1.125 -16.46875 L 1.125 -16.796875 L 6.171875 -16.796875 C 7.484375 -16.796875 8.550781 -16.6875 9.375 -16.46875 C 10.195312 -16.257812 10.832031 -15.972656 11.28125 -15.609375 C 11.726562 -15.253906 12.039062 -14.84375 12.21875 -14.375 C 12.394531 -13.914062 12.484375 -13.441406 12.484375 -12.953125 C 12.484375 -11.847656 12.097656 -10.910156 11.328125 -10.140625 C 10.554688 -9.378906 9.375 -8.90625 7.78125 -8.71875 C 8.445312 -8.632812 9 -8.492188 9.4375 -8.296875 C 9.882812 -8.109375 10.265625 -7.832031 10.578125 -7.46875 C 10.890625 -7.113281 11.171875 -6.660156 11.421875 -6.109375 C 11.679688 -5.554688 11.96875 -4.878906 12.28125 -4.078125 C 12.71875 -3.023438 13.054688 -2.222656 13.296875 -1.671875 C 13.535156 -1.128906 13.757812 -0.765625 13.96875 -0.578125 C 14.175781 -0.398438 14.425781 -0.3125 14.71875 -0.3125 C 14.78125 -0.3125 14.835938 -0.3125 14.890625 -0.3125 C 14.941406 -0.3125 15.003906 -0.320312 15.078125 -0.34375 L 15.078125 0 C 14.796875 0.0625 14.488281 0.101562 14.15625 0.125 C 13.820312 0.15625 13.550781 0.171875 13.34375 0.171875 Z M 4.625 -9 L 6.171875 -9 C 7.078125 -9 7.804688 -9.148438 8.359375 -9.453125 C 8.910156 -9.753906 9.3125 -10.164062 9.5625 -10.6875 C 9.8125 -11.207031 9.9375 -11.773438 9.9375 -12.390625 C 9.9375 -13.046875 9.789062 -13.679688 9.5 -14.296875 C 9.21875 -14.910156 8.765625 -15.414062 8.140625 -15.8125 C 7.515625 -16.21875 6.695312 -16.421875 5.6875 -16.421875 C 5.351562 -16.421875 5 -16.394531 4.625 -16.34375 Z M 4.625 -9 "/></g></g></g><g fill="#e1c340" fill-opacity="1"><g transform="translate(167.632224, 199.43067)"><g><path d="M 6.859375 0.234375 C 5.628906 0.234375 4.484375 0.0625 3.421875 -0.28125 C 2.367188 -0.625 1.539062 -1.019531 0.9375 -1.46875 L 0.84375 -5.0625 L 1.15625 -5.109375 C 1.488281 -4.203125 1.945312 -3.382812 2.53125 -2.65625 C 3.113281 -1.925781 3.820312 -1.34375 4.65625 -0.90625 C 5.488281 -0.476562 6.429688 -0.265625 7.484375 -0.265625 C 8.046875 -0.265625 8.566406 -0.378906 9.046875 -0.609375 C 9.523438 -0.835938 9.914062 -1.175781 10.21875 -1.625 C 10.53125 -2.070312 10.6875 -2.625 10.6875 -3.28125 C 10.6875 -3.875 10.515625 -4.390625 10.171875 -4.828125 C 9.835938 -5.273438 9.410156 -5.660156 8.890625 -5.984375 C 8.367188 -6.316406 7.820312 -6.601562 7.25 -6.84375 C 6.675781 -7.09375 6.144531 -7.316406 5.65625 -7.515625 C 4.84375 -7.867188 4.09375 -8.21875 3.40625 -8.5625 C 2.71875 -8.914062 2.164062 -9.367188 1.75 -9.921875 C 1.332031 -10.472656 1.125 -11.210938 1.125 -12.140625 C 1.125 -13.628906 1.679688 -14.804688 2.796875 -15.671875 C 3.910156 -16.535156 5.410156 -16.96875 7.296875 -16.96875 C 8.191406 -16.96875 9.023438 -16.878906 9.796875 -16.703125 C 10.578125 -16.523438 11.28125 -16.273438 11.90625 -15.953125 L 12 -12.84375 L 11.734375 -12.75 C 11.234375 -13.976562 10.507812 -14.921875 9.5625 -15.578125 C 8.613281 -16.234375 7.554688 -16.5625 6.390625 -16.5625 C 5.421875 -16.5625 4.601562 -16.289062 3.9375 -15.75 C 3.28125 -15.21875 2.953125 -14.476562 2.953125 -13.53125 C 2.953125 -13.007812 3.082031 -12.550781 3.34375 -12.15625 C 3.613281 -11.757812 3.96875 -11.414062 4.40625 -11.125 C 4.84375 -10.84375 5.3125 -10.59375 5.8125 -10.375 C 6.320312 -10.164062 6.816406 -9.960938 7.296875 -9.765625 C 7.898438 -9.523438 8.519531 -9.269531 9.15625 -9 C 9.789062 -8.726562 10.367188 -8.40625 10.890625 -8.03125 C 11.421875 -7.664062 11.84375 -7.226562 12.15625 -6.71875 C 12.476562 -6.207031 12.640625 -5.59375 12.640625 -4.875 C 12.640625 -4.050781 12.472656 -3.320312 12.140625 -2.6875 C 11.804688 -2.050781 11.359375 -1.515625 10.796875 -1.078125 C 10.234375 -0.648438 9.609375 -0.320312 8.921875 -0.09375 C 8.234375 0.125 7.546875 0.234375 6.859375 0.234375 Z M 6.859375 0.234375 "/></g></g></g><g fill="#e1c340" fill-opacity="1"><g transform="translate(185.656244, 199.43067)"><g/></g></g><g fill="#e1c340" fill-opacity="1"><g transform="translate(195.208249, 199.43067)"><g><path d="M 1.125 0 L 1.125 -0.34375 C 1.53125 -0.46875 1.789062 -0.734375 1.90625 -1.140625 C 2.03125 -1.546875 2.09375 -2.179688 2.09375 -3.046875 L 2.09375 -13.75 C 2.09375 -14.613281 2.03125 -15.25 1.90625 -15.65625 C 1.789062 -16.0625 1.53125 -16.332031 1.125 -16.46875 L 1.125 -16.796875 L 7.125 -16.796875 C 8.851562 -16.796875 10.304688 -16.546875 11.484375 -16.046875 C 12.660156 -15.554688 13.597656 -14.90625 14.296875 -14.09375 C 15.003906 -13.289062 15.515625 -12.414062 15.828125 -11.46875 C 16.148438 -10.53125 16.3125 -9.617188 16.3125 -8.734375 C 16.332031 -7.003906 15.984375 -5.484375 15.265625 -4.171875 C 14.554688 -2.859375 13.550781 -1.832031 12.25 -1.09375 C 10.945312 -0.363281 9.414062 0 7.65625 0 Z M 4.625 -2.140625 C 4.625 -1.578125 4.71875 -1.144531 4.90625 -0.84375 C 5.101562 -0.539062 5.53125 -0.390625 6.1875 -0.390625 L 7.484375 -0.390625 C 9.421875 -0.390625 10.90625 -0.941406 11.9375 -2.046875 C 12.96875 -3.160156 13.484375 -5 13.484375 -7.5625 C 13.484375 -9.207031 13.195312 -10.695312 12.625 -12.03125 C 12.050781 -13.375 11.179688 -14.441406 10.015625 -15.234375 C 8.859375 -16.023438 7.382812 -16.421875 5.59375 -16.421875 L 4.625 -16.421875 Z M 4.625 -2.140625 "/></g></g></g><g fill="#e1c340" fill-opacity="1"><g transform="translate(217.50428, 199.43067)"><g><path d="M 1.125 0 L 1.125 -0.34375 C 1.53125 -0.46875 1.789062 -0.734375 1.90625 -1.140625 C 2.03125 -1.546875 2.09375 -2.179688 2.09375 -3.046875 L 2.09375 -13.75 C 2.09375 -14.613281 2.03125 -15.25 1.90625 -15.65625 C 1.789062 -16.0625 1.53125 -16.332031 1.125 -16.46875 L 1.125 -16.796875 L 12.640625 -16.796875 L 12.90625 -13.421875 L 12.59375 -13.34375 C 12.113281 -14.53125 11.46875 -15.335938 10.65625 -15.765625 C 9.851562 -16.203125 8.78125 -16.421875 7.4375 -16.421875 L 4.625 -16.421875 L 4.625 -9.21875 L 6.9375 -9.21875 C 7.914062 -9.21875 8.679688 -9.28125 9.234375 -9.40625 C 9.796875 -9.53125 10.210938 -9.726562 10.484375 -10 C 10.753906 -10.28125 10.957031 -10.628906 11.09375 -11.046875 L 11.421875 -11.046875 L 11.421875 -7.015625 L 11.09375 -7.015625 C 10.957031 -7.421875 10.753906 -7.757812 10.484375 -8.03125 C 10.210938 -8.3125 9.796875 -8.515625 9.234375 -8.640625 C 8.679688 -8.765625 7.914062 -8.828125 6.9375 -8.828125 L 4.625 -8.828125 L 4.625 -1.578125 C 4.625 -0.785156 5.023438 -0.390625 5.828125 -0.390625 L 8.140625 -0.390625 C 9.347656 -0.390625 10.367188 -0.613281 11.203125 -1.0625 C 12.035156 -1.507812 12.675781 -2.335938 13.125 -3.546875 L 13.4375 -3.5 L 13.265625 0 Z M 1.125 0 "/></g></g></g><g fill="#e1c340" fill-opacity="1"><g transform="translate(236.536318, 199.43067)"><g/></g></g><g fill="#e1c340" fill-opacity="1"><g transform="translate(246.088335, 199.43067)"><g><path d="M 6.859375 0.234375 C 5.628906 0.234375 4.484375 0.0625 3.421875 -0.28125 C 2.367188 -0.625 1.539062 -1.019531 0.9375 -1.46875 L 0.84375 -5.0625 L 1.15625 -5.109375 C 1.488281 -4.203125 1.945312 -3.382812 2.53125 -2.65625 C 3.113281 -1.925781 3.820312 -1.34375 4.65625 -0.90625 C 5.488281 -0.476562 6.429688 -0.265625 7.484375 -0.265625 C 8.046875 -0.265625 8.566406 -0.378906 9.046875 -0.609375 C 9.523438 -0.835938 9.914062 -1.175781 10.21875 -1.625 C 10.53125 -2.070312 10.6875 -2.625 10.6875 -3.28125 C 10.6875 -3.875 10.515625 -4.390625 10.171875 -4.828125 C 9.835938 -5.273438 9.410156 -5.660156 8.890625 -5.984375 C 8.367188 -6.316406 7.820312 -6.601562 7.25 -6.84375 C 6.675781 -7.09375 6.144531 -7.316406 5.65625 -7.515625 C 4.84375 -7.867188 4.09375 -8.21875 3.40625 -8.5625 C 2.71875 -8.914062 2.164062 -9.367188 1.75 -9.921875 C 1.332031 -10.472656 1.125 -11.210938 1.125 -12.140625 C 1.125 -13.628906 1.679688 -14.804688 2.796875 -15.671875 C 3.910156 -16.535156 5.410156 -16.96875 7.296875 -16.96875 C 8.191406 -16.96875 9.023438 -16.878906 9.796875 -16.703125 C 10.578125 -16.523438 11.28125 -16.273438 11.90625 -15.953125 L 12 -12.84375 L 11.734375 -12.75 C 11.234375 -13.976562 10.507812 -14.921875 9.5625 -15.578125 C 8.613281 -16.234375 7.554688 -16.5625 6.390625 -16.5625 C 5.421875 -16.5625 4.601562 -16.289062 3.9375 -15.75 C 3.28125 -15.21875 2.953125 -14.476562 2.953125 -13.53125 C 2.953125 -13.007812 3.082031 -12.550781 3.34375 -12.15625 C 3.613281 -11.757812 3.96875 -11.414062 4.40625 -11.125 C 4.84375 -10.84375 5.3125 -10.59375 5.8125 -10.375 C 6.320312 -10.164062 6.816406 -9.960938 7.296875 -9.765625 C 7.898438 -9.523438 8.519531 -9.269531 9.15625 -9 C 9.789062 -8.726562 10.367188 -8.40625 10.890625 -8.03125 C 11.421875 -7.664062 11.84375 -7.226562 12.15625 -6.71875 C 12.476562 -6.207031 12.640625 -5.59375 12.640625 -4.875 C 12.640625 -4.050781 12.472656 -3.320312 12.140625 -2.6875 C 11.804688 -2.050781 11.359375 -1.515625 10.796875 -1.078125 C 10.234375 -0.648438 9.609375 -0.320312 8.921875 -0.09375 C 8.234375 0.125 7.546875 0.234375 6.859375 0.234375 Z M 6.859375 0.234375 "/></g></g></g><g fill="#e1c340" fill-opacity="1"><g transform="translate(264.112366, 199.43067)"><g><path d="M 4.515625 0 L 4.515625 -0.34375 C 4.910156 -0.46875 5.164062 -0.734375 5.28125 -1.140625 C 5.40625 -1.546875 5.46875 -2.179688 5.46875 -3.046875 L 5.46875 -16.375 L 4.734375 -16.375 C 3.660156 -16.375 2.816406 -16.191406 2.203125 -15.828125 C 1.597656 -15.460938 1.070312 -14.800781 0.625 -13.84375 L 0.34375 -13.890625 L 0.484375 -16.796875 L 12.984375 -16.796875 L 13.125 -13.890625 L 12.84375 -13.84375 C 12.394531 -14.800781 11.863281 -15.460938 11.25 -15.828125 C 10.644531 -16.191406 9.804688 -16.375 8.734375 -16.375 L 8.046875 -16.375 L 8.046875 -3.046875 C 8.046875 -2.179688 8.101562 -1.546875 8.21875 -1.140625 C 8.34375 -0.734375 8.601562 -0.46875 9 -0.34375 L 9 0 Z M 4.515625 0 "/></g></g></g><g fill="#e1c340" fill-opacity="1"><g transform="translate(282.304396, 199.43067)"><g><path d="M 4.421875 0 L 4.421875 -0.34375 C 4.816406 -0.46875 5.070312 -0.734375 5.1875 -1.140625 C 5.3125 -1.546875 5.375 -2.179688 5.375 -3.046875 L 5.359375 -7.703125 L 1.796875 -14.140625 C 1.398438 -14.890625 1.015625 -15.429688 0.640625 -15.765625 C 0.265625 -16.097656 -0.0625 -16.332031 -0.34375 -16.46875 L -0.34375 -16.796875 L 4.15625 -16.796875 L 4.15625 -16.46875 C 3.75 -16.332031 3.628906 -16.097656 3.796875 -15.765625 C 3.972656 -15.429688 4.269531 -14.890625 4.6875 -14.140625 L 7.84375 -8.421875 L 11.09375 -14.140625 C 11.507812 -14.890625 11.691406 -15.4375 11.640625 -15.78125 C 11.585938 -16.132812 11.316406 -16.363281 10.828125 -16.46875 L 10.828125 -16.796875 L 13.921875 -16.796875 L 13.921875 -16.46875 C 13.566406 -16.332031 13.1875 -16.097656 12.78125 -15.765625 C 12.382812 -15.429688 11.976562 -14.890625 11.5625 -14.140625 L 7.9375 -7.6875 L 7.9375 -3.046875 C 7.9375 -2.179688 7.992188 -1.546875 8.109375 -1.140625 C 8.234375 -0.734375 8.5 -0.46875 8.90625 -0.34375 L 8.90625 0 Z M 4.421875 0 "/></g></g></g><g fill="#e1c340" fill-opacity="1"><g transform="translate(300.568433, 199.43067)"><g><path d="M 1.125 0 L 1.125 -0.34375 C 1.53125 -0.46875 1.789062 -0.734375 1.90625 -1.140625 C 2.03125 -1.546875 2.09375 -2.179688 2.09375 -3.046875 L 2.09375 -13.75 C 2.09375 -14.613281 2.03125 -15.25 1.90625 -15.65625 C 1.789062 -16.0625 1.53125 -16.332031 1.125 -16.46875 L 1.125 -16.796875 L 5.59375 -16.796875 L 5.59375 -16.46875 C 5.1875 -16.332031 4.921875 -16.0625 4.796875 -15.65625 C 4.679688 -15.25 4.625 -14.613281 4.625 -13.75 L 4.625 -1.625 C 4.625 -0.832031 5.023438 -0.4375 5.828125 -0.4375 L 7.796875 -0.4375 C 9.015625 -0.4375 9.972656 -0.617188 10.671875 -0.984375 C 11.367188 -1.347656 11.957031 -2.046875 12.4375 -3.078125 L 12.75 -3.03125 L 12.546875 0 Z M 1.125 0 "/></g></g></g><g fill="#e1c340" fill-opacity="1"><g transform="translate(318.496472, 199.43067)"><g><path d="M 1.125 0 L 1.125 -0.34375 C 1.53125 -0.46875 1.789062 -0.734375 1.90625 -1.140625 C 2.03125 -1.546875 2.09375 -2.179688 2.09375 -3.046875 L 2.09375 -13.75 C 2.09375 -14.613281 2.03125 -15.25 1.90625 -15.65625 C 1.789062 -16.0625 1.53125 -16.332031 1.125 -16.46875 L 1.125 -16.796875 L 12.640625 -16.796875 L 12.90625 -13.421875 L 12.59375 -13.34375 C 12.113281 -14.53125 11.46875 -15.335938 10.65625 -15.765625 C 9.851562 -16.203125 8.78125 -16.421875 7.4375 -16.421875 L 4.625 -16.421875 L 4.625 -9.21875 L 6.9375 -9.21875 C 7.914062 -9.21875 8.679688 -9.28125 9.234375 -9.40625 C 9.796875 -9.53125 10.210938 -9.726562 10.484375 -10 C 10.753906 -10.28125 10.957031 -10.628906 11.09375 -11.046875 L 11.421875 -11.046875 L 11.421875 -7.015625 L 11.09375 -7.015625 C 10.957031 -7.421875 10.753906 -7.757812 10.484375 -8.03125 C 10.210938 -8.3125 9.796875 -8.515625 9.234375 -8.640625 C 8.679688 -8.765625 7.914062 -8.828125 6.9375 -8.828125 L 4.625 -8.828125 L 4.625 -1.578125 C 4.625 -0.785156 5.023438 -0.390625 5.828125 -0.390625 L 8.140625 -0.390625 C 9.347656 -0.390625 10.367188 -0.613281 11.203125 -1.0625 C 12.035156 -1.507812 12.675781 -2.335938 13.125 -3.546875 L 13.4375 -3.5 L 13.265625 0 Z M 1.125 0 "/></g></g></g><g fill="#e1c340" fill-opacity="1"><g transform="translate(101.397032, 219.62628)"><g><path d="M 2.5 0.140625 C 1.957031 0.140625 1.550781 0.0078125 1.28125 -0.25 C 1.007812 -0.507812 0.875 -0.882812 0.875 -1.375 C 0.875 -1.613281 0.898438 -1.878906 0.953125 -2.171875 C 1.003906 -2.472656 1.066406 -2.8125 1.140625 -3.1875 L 2.453125 -9.28125 C 2.472656 -9.40625 2.492188 -9.53125 2.515625 -9.65625 C 2.535156 -9.789062 2.546875 -9.890625 2.546875 -9.953125 C 2.546875 -10.140625 2.488281 -10.273438 2.375 -10.359375 C 2.269531 -10.453125 2.082031 -10.5 1.8125 -10.5 L 1.515625 -10.5 L 1.546875 -10.640625 L 4.90625 -10.640625 L 3.125 -2.4375 C 3.070312 -2.207031 3.023438 -1.957031 2.984375 -1.6875 C 2.941406 -1.425781 2.921875 -1.21875 2.921875 -1.0625 C 2.929688 -0.820312 2.972656 -0.640625 3.046875 -0.515625 C 3.128906 -0.398438 3.273438 -0.34375 3.484375 -0.34375 C 3.671875 -0.34375 3.863281 -0.40625 4.0625 -0.53125 C 4.269531 -0.664062 4.453125 -0.804688 4.609375 -0.953125 L 4.6875 -0.828125 C 4.46875 -0.597656 4.175781 -0.378906 3.8125 -0.171875 C 3.457031 0.0351562 3.019531 0.140625 2.5 0.140625 Z M 2.5 0.140625 "/></g></g></g><g fill="#e1c340" fill-opacity="1"><g transform="translate(108.730267, 219.62628)"><g><path d="M 7.03125 0.140625 C 6.425781 0.140625 6.003906 0.0078125 5.765625 -0.25 C 5.535156 -0.507812 5.421875 -0.816406 5.421875 -1.171875 C 5.421875 -1.234375 5.425781 -1.332031 5.4375 -1.46875 C 5.445312 -1.613281 5.460938 -1.753906 5.484375 -1.890625 C 5.503906 -2.023438 5.519531 -2.132812 5.53125 -2.21875 L 5.453125 -2.21875 C 5.117188 -1.425781 4.710938 -0.835938 4.234375 -0.453125 C 3.765625 -0.0664062 3.191406 0.125 2.515625 0.125 C 2.117188 0.125 1.800781 0.0507812 1.5625 -0.09375 C 1.332031 -0.238281 1.164062 -0.425781 1.0625 -0.65625 C 0.96875 -0.894531 0.921875 -1.148438 0.921875 -1.421875 C 0.921875 -1.660156 0.945312 -1.914062 1 -2.1875 C 1.0625 -2.46875 1.113281 -2.726562 1.15625 -2.96875 L 1.78125 -6.03125 C 1.8125 -6.21875 1.835938 -6.382812 1.859375 -6.53125 C 1.890625 -6.6875 1.90625 -6.800781 1.90625 -6.875 C 1.90625 -7.0625 1.847656 -7.1875 1.734375 -7.25 C 1.617188 -7.320312 1.425781 -7.359375 1.15625 -7.359375 L 0.90625 -7.359375 L 0.9375 -7.5 L 4.234375 -7.5 L 3.203125 -2.765625 C 3.148438 -2.492188 3.097656 -2.21875 3.046875 -1.9375 C 3.003906 -1.65625 2.984375 -1.425781 2.984375 -1.25 C 2.984375 -0.976562 3.03125 -0.769531 3.125 -0.625 C 3.226562 -0.476562 3.390625 -0.40625 3.609375 -0.40625 C 3.878906 -0.40625 4.148438 -0.539062 4.421875 -0.8125 C 4.691406 -1.082031 4.929688 -1.425781 5.140625 -1.84375 C 5.347656 -2.257812 5.5 -2.675781 5.59375 -3.09375 L 6.546875 -7.5 L 8.6875 -7.5 L 7.59375 -2.34375 C 7.550781 -2.15625 7.507812 -1.929688 7.46875 -1.671875 C 7.4375 -1.421875 7.421875 -1.21875 7.421875 -1.0625 C 7.421875 -0.539062 7.597656 -0.28125 7.953125 -0.28125 C 8.140625 -0.28125 8.335938 -0.34375 8.546875 -0.46875 C 8.753906 -0.601562 8.945312 -0.753906 9.125 -0.921875 L 9.21875 -0.828125 C 8.976562 -0.585938 8.679688 -0.363281 8.328125 -0.15625 C 7.984375 0.0390625 7.550781 0.140625 7.03125 0.140625 Z M 7.03125 0.140625 "/></g></g></g><g fill="#e1c340" fill-opacity="1"><g transform="translate(120.58298, 219.62628)"><g><path d="M -0.3125 0 L -0.296875 -0.140625 L -0.15625 -0.140625 C 0.195312 -0.140625 0.515625 -0.210938 0.796875 -0.359375 C 1.078125 -0.515625 1.398438 -0.820312 1.765625 -1.28125 L 3.40625 -3.34375 L 2.109375 -6.640625 C 2.003906 -6.898438 1.898438 -7.082031 1.796875 -7.1875 C 1.703125 -7.300781 1.554688 -7.359375 1.359375 -7.359375 L 1.1875 -7.359375 L 1.21875 -7.5 L 3.96875 -7.5 L 4.9375 -4.625 L 7.015625 -7.5 L 8.5 -7.5 L 8.46875 -7.359375 L 8.296875 -7.359375 C 7.921875 -7.359375 7.59375 -7.28125 7.3125 -7.125 C 7.039062 -6.976562 6.726562 -6.675781 6.375 -6.21875 L 5.015625 -4.484375 L 6.390625 -1.140625 C 6.503906 -0.847656 6.601562 -0.628906 6.6875 -0.484375 C 6.78125 -0.335938 6.867188 -0.242188 6.953125 -0.203125 C 7.035156 -0.160156 7.140625 -0.140625 7.265625 -0.140625 L 7.40625 -0.140625 L 7.375 0 L 4.5625 0 L 3.453125 -3.1875 L 1.1875 0 Z M -0.3125 0 "/></g></g></g><g fill="#e1c340" fill-opacity="1"><g transform="translate(131.274346, 219.62628)"><g><path d="M 7.03125 0.140625 C 6.425781 0.140625 6.003906 0.0078125 5.765625 -0.25 C 5.535156 -0.507812 5.421875 -0.816406 5.421875 -1.171875 C 5.421875 -1.234375 5.425781 -1.332031 5.4375 -1.46875 C 5.445312 -1.613281 5.460938 -1.753906 5.484375 -1.890625 C 5.503906 -2.023438 5.519531 -2.132812 5.53125 -2.21875 L 5.453125 -2.21875 C 5.117188 -1.425781 4.710938 -0.835938 4.234375 -0.453125 C 3.765625 -0.0664062 3.191406 0.125 2.515625 0.125 C 2.117188 0.125 1.800781 0.0507812 1.5625 -0.09375 C 1.332031 -0.238281 1.164062 -0.425781 1.0625 -0.65625 C 0.96875 -0.894531 0.921875 -1.148438 0.921875 -1.421875 C 0.921875 -1.660156 0.945312 -1.914062 1 -2.1875 C 1.0625 -2.46875 1.113281 -2.726562 1.15625 -2.96875 L 1.78125 -6.03125 C 1.8125 -6.21875 1.835938 -6.382812 1.859375 -6.53125 C 1.890625 -6.6875 1.90625 -6.800781 1.90625 -6.875 C 1.90625 -7.0625 1.847656 -7.1875 1.734375 -7.25 C 1.617188 -7.320312 1.425781 -7.359375 1.15625 -7.359375 L 0.90625 -7.359375 L 0.9375 -7.5 L 4.234375 -7.5 L 3.203125 -2.765625 C 3.148438 -2.492188 3.097656 -2.21875 3.046875 -1.9375 C 3.003906 -1.65625 2.984375 -1.425781 2.984375 -1.25 C 2.984375 -0.976562 3.03125 -0.769531 3.125 -0.625 C 3.226562 -0.476562 3.390625 -0.40625 3.609375 -0.40625 C 3.878906 -0.40625 4.148438 -0.539062 4.421875 -0.8125 C 4.691406 -1.082031 4.929688 -1.425781 5.140625 -1.84375 C 5.347656 -2.257812 5.5 -2.675781 5.59375 -3.09375 L 6.546875 -7.5 L 8.6875 -7.5 L 7.59375 -2.34375 C 7.550781 -2.15625 7.507812 -1.929688 7.46875 -1.671875 C 7.4375 -1.421875 7.421875 -1.21875 7.421875 -1.0625 C 7.421875 -0.539062 7.597656 -0.28125 7.953125 -0.28125 C 8.140625 -0.28125 8.335938 -0.34375 8.546875 -0.46875 C 8.753906 -0.601562 8.945312 -0.753906 9.125 -0.921875 L 9.21875 -0.828125 C 8.976562 -0.585938 8.679688 -0.363281 8.328125 -0.15625 C 7.984375 0.0390625 7.550781 0.140625 7.03125 0.140625 Z M 7.03125 0.140625 "/></g></g></g><g fill="#e1c340" fill-opacity="1"><g transform="translate(143.12706, 219.62628)"><g><path d="M 0.53125 0 L 1.828125 -6.15625 C 1.859375 -6.289062 1.882812 -6.414062 1.90625 -6.53125 C 1.925781 -6.65625 1.9375 -6.769531 1.9375 -6.875 C 1.9375 -7.050781 1.867188 -7.175781 1.734375 -7.25 C 1.597656 -7.320312 1.414062 -7.359375 1.1875 -7.359375 L 0.90625 -7.359375 L 0.9375 -7.5 L 4.078125 -7.5 L 3.703125 -5.3125 L 3.75 -5.3125 C 4.019531 -6.125 4.34375 -6.710938 4.71875 -7.078125 C 5.09375 -7.453125 5.585938 -7.640625 6.203125 -7.640625 C 6.703125 -7.640625 7.070312 -7.535156 7.3125 -7.328125 C 7.5625 -7.117188 7.6875 -6.828125 7.6875 -6.453125 C 7.6875 -5.992188 7.535156 -5.648438 7.234375 -5.421875 C 6.941406 -5.203125 6.535156 -5.09375 6.015625 -5.09375 C 6.035156 -5.257812 6.050781 -5.414062 6.0625 -5.5625 C 6.070312 -5.707031 6.078125 -5.84375 6.078125 -5.96875 C 6.078125 -6.425781 6.015625 -6.734375 5.890625 -6.890625 C 5.773438 -7.054688 5.597656 -7.140625 5.359375 -7.140625 C 5.117188 -7.140625 4.890625 -7.015625 4.671875 -6.765625 C 4.453125 -6.515625 4.25 -6.175781 4.0625 -5.75 C 3.882812 -5.320312 3.734375 -4.84375 3.609375 -4.3125 L 2.625 0 Z M 0.53125 0 "/></g></g></g><g fill="#e1c340" fill-opacity="1"><g transform="translate(153.146794, 219.62628)"><g><path d="M -0.59375 3.359375 C -0.957031 3.359375 -1.28125 3.320312 -1.5625 3.25 C -1.84375 3.1875 -2.082031 3.109375 -2.28125 3.015625 L -2.21875 2.890625 C -2.082031 2.921875 -1.867188 2.957031 -1.578125 3 C -1.285156 3.050781 -0.921875 3.078125 -0.484375 3.078125 C 0.222656 3.078125 0.867188 2.960938 1.453125 2.734375 C 2.035156 2.515625 2.578125 2.101562 3.078125 1.5 L 1.09375 -6.625 C 1.019531 -6.90625 0.929688 -7.097656 0.828125 -7.203125 C 0.734375 -7.304688 0.578125 -7.359375 0.359375 -7.359375 L 0.21875 -7.359375 L 0.25 -7.5 L 3.1875 -7.5 L 4.078125 -2.90625 C 4.117188 -2.664062 4.164062 -2.382812 4.21875 -2.0625 C 4.28125 -1.738281 4.332031 -1.421875 4.375 -1.109375 C 4.425781 -0.796875 4.46875 -0.539062 4.5 -0.34375 L 4.515625 -0.34375 C 5.203125 -1.289062 5.738281 -2.140625 6.125 -2.890625 C 6.519531 -3.640625 6.71875 -4.40625 6.71875 -5.1875 C 6.71875 -5.644531 6.59375 -5.960938 6.34375 -6.140625 C 6.09375 -6.328125 5.757812 -6.421875 5.34375 -6.421875 C 5.34375 -6.828125 5.4375 -7.128906 5.625 -7.328125 C 5.8125 -7.535156 6.070312 -7.640625 6.40625 -7.640625 C 6.757812 -7.640625 7.019531 -7.523438 7.1875 -7.296875 C 7.363281 -7.078125 7.453125 -6.773438 7.453125 -6.390625 C 7.453125 -5.878906 7.347656 -5.328125 7.140625 -4.734375 C 6.941406 -4.140625 6.664062 -3.519531 6.3125 -2.875 C 5.96875 -2.226562 5.570312 -1.582031 5.125 -0.9375 C 4.625 -0.21875 4.164062 0.40625 3.75 0.9375 C 3.34375 1.476562 2.929688 1.925781 2.515625 2.28125 C 2.109375 2.632812 1.65625 2.898438 1.15625 3.078125 C 0.664062 3.265625 0.0820312 3.359375 -0.59375 3.359375 Z M -0.59375 3.359375 "/></g></g></g><g fill="#e1c340" fill-opacity="1"><g transform="translate(163.208507, 219.62628)"><g/></g></g><g fill="#e1c340" fill-opacity="1"><g transform="translate(169.086559, 219.62628)"><g><path d="M 6.9375 0.140625 C 6.40625 0.140625 6 0.00390625 5.71875 -0.265625 C 5.445312 -0.535156 5.3125 -0.90625 5.3125 -1.375 C 5.3125 -1.625 5.328125 -1.863281 5.359375 -2.09375 C 5.398438 -2.320312 5.460938 -2.613281 5.546875 -2.96875 L 5.921875 -4.609375 C 5.960938 -4.785156 6.015625 -5.035156 6.078125 -5.359375 C 6.140625 -5.691406 6.171875 -5.988281 6.171875 -6.25 C 6.171875 -6.488281 6.140625 -6.703125 6.078125 -6.890625 C 6.015625 -7.078125 5.867188 -7.171875 5.640625 -7.171875 C 5.441406 -7.171875 5.238281 -7.085938 5.03125 -6.921875 C 4.832031 -6.765625 4.632812 -6.554688 4.4375 -6.296875 C 4.25 -6.035156 4.082031 -5.742188 3.9375 -5.421875 C 3.789062 -5.109375 3.679688 -4.796875 3.609375 -4.484375 L 2.59375 0 L 0.484375 0 L 2.453125 -9.3125 C 2.523438 -9.59375 2.5625 -9.800781 2.5625 -9.9375 C 2.5625 -10.132812 2.503906 -10.273438 2.390625 -10.359375 C 2.273438 -10.453125 2.070312 -10.5 1.78125 -10.5 L 1.53125 -10.5 L 1.546875 -10.640625 L 4.921875 -10.640625 L 4.265625 -7.546875 C 4.222656 -7.359375 4.171875 -7.128906 4.109375 -6.859375 C 4.046875 -6.585938 3.984375 -6.328125 3.921875 -6.078125 C 3.867188 -5.835938 3.820312 -5.648438 3.78125 -5.515625 L 3.828125 -5.515625 C 4.148438 -6.160156 4.523438 -6.675781 4.953125 -7.0625 C 5.378906 -7.445312 5.9375 -7.640625 6.625 -7.640625 C 7.207031 -7.640625 7.628906 -7.484375 7.890625 -7.171875 C 8.148438 -6.867188 8.28125 -6.488281 8.28125 -6.03125 C 8.28125 -5.800781 8.25 -5.539062 8.1875 -5.25 C 8.132812 -4.957031 8.078125 -4.691406 8.015625 -4.453125 L 7.578125 -2.453125 C 7.515625 -2.203125 7.460938 -1.960938 7.421875 -1.734375 C 7.390625 -1.503906 7.375 -1.289062 7.375 -1.09375 C 7.375 -0.582031 7.570312 -0.328125 7.96875 -0.328125 C 8.144531 -0.328125 8.328125 -0.382812 8.515625 -0.5 C 8.703125 -0.613281 8.882812 -0.757812 9.0625 -0.9375 L 9.140625 -0.828125 C 8.921875 -0.585938 8.628906 -0.363281 8.265625 -0.15625 C 7.898438 0.0390625 7.457031 0.140625 6.9375 0.140625 Z M 6.9375 0.140625 "/></g></g></g><g fill="#e1c340" fill-opacity="1"><g transform="translate(180.869315, 219.62628)"><g><path d="M 2.578125 0.140625 C 1.878906 0.140625 1.34375 -0.0859375 0.96875 -0.546875 C 0.601562 -1.015625 0.421875 -1.675781 0.421875 -2.53125 C 0.421875 -2.925781 0.472656 -3.351562 0.578125 -3.8125 C 0.679688 -4.28125 0.847656 -4.738281 1.078125 -5.1875 C 1.304688 -5.632812 1.597656 -6.039062 1.953125 -6.40625 C 2.304688 -6.78125 2.722656 -7.078125 3.203125 -7.296875 C 3.691406 -7.523438 4.25 -7.640625 4.875 -7.640625 C 5.226562 -7.640625 5.507812 -7.597656 5.71875 -7.515625 C 5.9375 -7.429688 6.117188 -7.328125 6.265625 -7.203125 L 7.71875 -7.5 L 8.28125 -7.5 L 7.234375 -2.625 C 7.191406 -2.425781 7.148438 -2.1875 7.109375 -1.90625 C 7.066406 -1.632812 7.046875 -1.382812 7.046875 -1.15625 C 7.046875 -0.875 7.09375 -0.660156 7.1875 -0.515625 C 7.289062 -0.378906 7.421875 -0.3125 7.578125 -0.3125 C 7.773438 -0.3125 7.960938 -0.363281 8.140625 -0.46875 C 8.316406 -0.582031 8.476562 -0.703125 8.625 -0.828125 L 8.6875 -0.703125 C 8.414062 -0.484375 8.109375 -0.285156 7.765625 -0.109375 C 7.421875 0.0546875 7 0.140625 6.5 0.140625 C 6.070312 0.140625 5.726562 0.03125 5.46875 -0.1875 C 5.21875 -0.414062 5.09375 -0.765625 5.09375 -1.234375 C 5.09375 -1.492188 5.101562 -1.710938 5.125 -1.890625 C 5.144531 -2.066406 5.164062 -2.226562 5.1875 -2.375 L 5.171875 -2.375 C 4.890625 -1.488281 4.535156 -0.847656 4.109375 -0.453125 C 3.679688 -0.0546875 3.171875 0.140625 2.578125 0.140625 Z M 3.390625 -0.40625 C 3.609375 -0.40625 3.8125 -0.484375 4 -0.640625 C 4.1875 -0.796875 4.359375 -1.003906 4.515625 -1.265625 C 4.671875 -1.535156 4.800781 -1.816406 4.90625 -2.109375 C 5.019531 -2.410156 5.113281 -2.703125 5.1875 -2.984375 L 6.09375 -7.125 C 5.914062 -7.351562 5.632812 -7.46875 5.25 -7.46875 C 4.90625 -7.46875 4.59375 -7.351562 4.3125 -7.125 C 4.03125 -6.894531 3.78125 -6.582031 3.5625 -6.1875 C 3.34375 -5.800781 3.15625 -5.375 3 -4.90625 C 2.851562 -4.4375 2.742188 -3.953125 2.671875 -3.453125 C 2.597656 -2.953125 2.5625 -2.484375 2.5625 -2.046875 C 2.5625 -1.597656 2.597656 -1.253906 2.671875 -1.015625 C 2.742188 -0.785156 2.84375 -0.625 2.96875 -0.53125 C 3.09375 -0.445312 3.234375 -0.40625 3.390625 -0.40625 Z M 3.390625 -0.40625 "/></g></g></g><g fill="#e1c340" fill-opacity="1"><g transform="translate(192.232301, 219.62628)"><g><path d="M 3.296875 -8.765625 C 3.023438 -8.765625 2.796875 -8.828125 2.609375 -8.953125 C 2.429688 -9.085938 2.34375 -9.304688 2.34375 -9.609375 C 2.34375 -10.015625 2.457031 -10.300781 2.6875 -10.46875 C 2.914062 -10.632812 3.175781 -10.71875 3.46875 -10.71875 C 3.726562 -10.71875 3.957031 -10.65625 4.15625 -10.53125 C 4.351562 -10.414062 4.453125 -10.195312 4.453125 -9.875 C 4.453125 -9.488281 4.328125 -9.207031 4.078125 -9.03125 C 3.835938 -8.851562 3.578125 -8.765625 3.296875 -8.765625 Z M 2.59375 0.140625 C 2.0625 0.140625 1.648438 0.015625 1.359375 -0.234375 C 1.066406 -0.492188 0.921875 -0.878906 0.921875 -1.390625 C 0.921875 -1.660156 0.941406 -1.925781 0.984375 -2.1875 C 1.035156 -2.445312 1.097656 -2.757812 1.171875 -3.125 L 1.8125 -6.171875 C 1.832031 -6.296875 1.851562 -6.410156 1.875 -6.515625 C 1.894531 -6.628906 1.90625 -6.738281 1.90625 -6.84375 C 1.90625 -7.050781 1.847656 -7.1875 1.734375 -7.25 C 1.617188 -7.320312 1.425781 -7.359375 1.15625 -7.359375 L 0.90625 -7.359375 L 0.9375 -7.5 L 4.234375 -7.5 L 3.15625 -2.4375 C 3.113281 -2.207031 3.070312 -1.957031 3.03125 -1.6875 C 2.988281 -1.425781 2.96875 -1.21875 2.96875 -1.0625 C 2.988281 -0.582031 3.171875 -0.34375 3.515625 -0.34375 C 3.734375 -0.34375 3.9375 -0.40625 4.125 -0.53125 C 4.3125 -0.664062 4.484375 -0.804688 4.640625 -0.953125 L 4.734375 -0.828125 C 4.503906 -0.585938 4.21875 -0.363281 3.875 -0.15625 C 3.53125 0.0390625 3.101562 0.140625 2.59375 0.140625 Z M 2.59375 0.140625 "/></g></g></g><g fill="#e1c340" fill-opacity="1"><g transform="translate(199.607509, 219.62628)"><g><path d="M 0.53125 0 L 1.828125 -6.15625 C 1.859375 -6.289062 1.882812 -6.414062 1.90625 -6.53125 C 1.925781 -6.65625 1.9375 -6.769531 1.9375 -6.875 C 1.9375 -7.050781 1.867188 -7.175781 1.734375 -7.25 C 1.597656 -7.320312 1.414062 -7.359375 1.1875 -7.359375 L 0.90625 -7.359375 L 0.9375 -7.5 L 4.078125 -7.5 L 3.703125 -5.3125 L 3.75 -5.3125 C 4.019531 -6.125 4.34375 -6.710938 4.71875 -7.078125 C 5.09375 -7.453125 5.585938 -7.640625 6.203125 -7.640625 C 6.703125 -7.640625 7.070312 -7.535156 7.3125 -7.328125 C 7.5625 -7.117188 7.6875 -6.828125 7.6875 -6.453125 C 7.6875 -5.992188 7.535156 -5.648438 7.234375 -5.421875 C 6.941406 -5.203125 6.535156 -5.09375 6.015625 -5.09375 C 6.035156 -5.257812 6.050781 -5.414062 6.0625 -5.5625 C 6.070312 -5.707031 6.078125 -5.84375 6.078125 -5.96875 C 6.078125 -6.425781 6.015625 -6.734375 5.890625 -6.890625 C 5.773438 -7.054688 5.597656 -7.140625 5.359375 -7.140625 C 5.117188 -7.140625 4.890625 -7.015625 4.671875 -6.765625 C 4.453125 -6.515625 4.25 -6.175781 4.0625 -5.75 C 3.882812 -5.320312 3.734375 -4.84375 3.609375 -4.3125 L 2.625 0 Z M 0.53125 0 "/></g></g></g><g fill="#e1c340" fill-opacity="1"><g transform="translate(209.627245, 219.62628)"><g/></g></g><g fill="#e1c340" fill-opacity="1"><g transform="translate(215.505297, 219.62628)"><g><path d="M 2.890625 0.140625 C 2.117188 0.140625 1.484375 0.00390625 0.984375 -0.265625 C 0.484375 -0.535156 0.234375 -0.914062 0.234375 -1.40625 C 0.234375 -1.832031 0.375 -2.132812 0.65625 -2.3125 C 0.9375 -2.5 1.296875 -2.59375 1.734375 -2.59375 C 1.722656 -2.5 1.710938 -2.410156 1.703125 -2.328125 C 1.703125 -2.242188 1.703125 -2.164062 1.703125 -2.09375 C 1.703125 -1.375 1.832031 -0.84375 2.09375 -0.5 C 2.351562 -0.164062 2.710938 0 3.171875 0 C 3.648438 0 4.003906 -0.140625 4.234375 -0.421875 C 4.460938 -0.703125 4.578125 -1.039062 4.578125 -1.4375 C 4.578125 -1.851562 4.457031 -2.175781 4.21875 -2.40625 C 3.976562 -2.644531 3.578125 -2.890625 3.015625 -3.140625 C 2.398438 -3.390625 1.925781 -3.671875 1.59375 -3.984375 C 1.257812 -4.304688 1.09375 -4.753906 1.09375 -5.328125 C 1.09375 -6.015625 1.359375 -6.570312 1.890625 -7 C 2.421875 -7.425781 3.207031 -7.640625 4.25 -7.640625 C 4.90625 -7.640625 5.421875 -7.578125 5.796875 -7.453125 C 6.171875 -7.328125 6.4375 -7.160156 6.59375 -6.953125 C 6.75 -6.753906 6.828125 -6.546875 6.828125 -6.328125 C 6.828125 -5.953125 6.675781 -5.679688 6.375 -5.515625 C 6.082031 -5.347656 5.6875 -5.265625 5.1875 -5.265625 C 5.195312 -5.390625 5.203125 -5.503906 5.203125 -5.609375 C 5.210938 -5.710938 5.21875 -5.8125 5.21875 -5.90625 C 5.21875 -6.425781 5.132812 -6.820312 4.96875 -7.09375 C 4.8125 -7.363281 4.523438 -7.5 4.109375 -7.5 C 3.722656 -7.5 3.421875 -7.367188 3.203125 -7.109375 C 2.984375 -6.847656 2.875 -6.53125 2.875 -6.15625 C 2.875 -5.789062 2.988281 -5.492188 3.21875 -5.265625 C 3.445312 -5.046875 3.84375 -4.816406 4.40625 -4.578125 C 5.070312 -4.285156 5.550781 -3.988281 5.84375 -3.6875 C 6.132812 -3.382812 6.28125 -2.972656 6.28125 -2.453125 C 6.28125 -1.984375 6.164062 -1.550781 5.9375 -1.15625 C 5.707031 -0.757812 5.34375 -0.441406 4.84375 -0.203125 C 4.34375 0.0234375 3.691406 0.140625 2.890625 0.140625 Z M 2.890625 0.140625 "/></g></g></g><g fill="#e1c340" fill-opacity="1"><g transform="translate(225.077283, 219.62628)"><g><path d="M 2.578125 0.140625 C 1.878906 0.140625 1.34375 -0.0859375 0.96875 -0.546875 C 0.601562 -1.015625 0.421875 -1.675781 0.421875 -2.53125 C 0.421875 -2.925781 0.472656 -3.351562 0.578125 -3.8125 C 0.679688 -4.28125 0.847656 -4.738281 1.078125 -5.1875 C 1.304688 -5.632812 1.597656 -6.039062 1.953125 -6.40625 C 2.304688 -6.78125 2.722656 -7.078125 3.203125 -7.296875 C 3.691406 -7.523438 4.25 -7.640625 4.875 -7.640625 C 5.226562 -7.640625 5.507812 -7.597656 5.71875 -7.515625 C 5.9375 -7.429688 6.117188 -7.328125 6.265625 -7.203125 L 7.71875 -7.5 L 8.28125 -7.5 L 7.234375 -2.625 C 7.191406 -2.425781 7.148438 -2.1875 7.109375 -1.90625 C 7.066406 -1.632812 7.046875 -1.382812 7.046875 -1.15625 C 7.046875 -0.875 7.09375 -0.660156 7.1875 -0.515625 C 7.289062 -0.378906 7.421875 -0.3125 7.578125 -0.3125 C 7.773438 -0.3125 7.960938 -0.363281 8.140625 -0.46875 C 8.316406 -0.582031 8.476562 -0.703125 8.625 -0.828125 L 8.6875 -0.703125 C 8.414062 -0.484375 8.109375 -0.285156 7.765625 -0.109375 C 7.421875 0.0546875 7 0.140625 6.5 0.140625 C 6.070312 0.140625 5.726562 0.03125 5.46875 -0.1875 C 5.21875 -0.414062 5.09375 -0.765625 5.09375 -1.234375 C 5.09375 -1.492188 5.101562 -1.710938 5.125 -1.890625 C 5.144531 -2.066406 5.164062 -2.226562 5.1875 -2.375 L 5.171875 -2.375 C 4.890625 -1.488281 4.535156 -0.847656 4.109375 -0.453125 C 3.679688 -0.0546875 3.171875 0.140625 2.578125 0.140625 Z M 3.390625 -0.40625 C 3.609375 -0.40625 3.8125 -0.484375 4 -0.640625 C 4.1875 -0.796875 4.359375 -1.003906 4.515625 -1.265625 C 4.671875 -1.535156 4.800781 -1.816406 4.90625 -2.109375 C 5.019531 -2.410156 5.113281 -2.703125 5.1875 -2.984375 L 6.09375 -7.125 C 5.914062 -7.351562 5.632812 -7.46875 5.25 -7.46875 C 4.90625 -7.46875 4.59375 -7.351562 4.3125 -7.125 C 4.03125 -6.894531 3.78125 -6.582031 3.5625 -6.1875 C 3.34375 -5.800781 3.15625 -5.375 3 -4.90625 C 2.851562 -4.4375 2.742188 -3.953125 2.671875 -3.453125 C 2.597656 -2.953125 2.5625 -2.484375 2.5625 -2.046875 C 2.5625 -1.597656 2.597656 -1.253906 2.671875 -1.015625 C 2.742188 -0.785156 2.84375 -0.625 2.96875 -0.53125 C 3.09375 -0.445312 3.234375 -0.40625 3.390625 -0.40625 Z M 3.390625 -0.40625 "/></g></g></g><g fill="#e1c340" fill-opacity="1"><g transform="translate(236.44027, 219.62628)"><g><path d="M 2.5 0.140625 C 1.957031 0.140625 1.550781 0.0078125 1.28125 -0.25 C 1.007812 -0.507812 0.875 -0.882812 0.875 -1.375 C 0.875 -1.613281 0.898438 -1.878906 0.953125 -2.171875 C 1.003906 -2.472656 1.066406 -2.8125 1.140625 -3.1875 L 2.453125 -9.28125 C 2.472656 -9.40625 2.492188 -9.53125 2.515625 -9.65625 C 2.535156 -9.789062 2.546875 -9.890625 2.546875 -9.953125 C 2.546875 -10.140625 2.488281 -10.273438 2.375 -10.359375 C 2.269531 -10.453125 2.082031 -10.5 1.8125 -10.5 L 1.515625 -10.5 L 1.546875 -10.640625 L 4.90625 -10.640625 L 3.125 -2.4375 C 3.070312 -2.207031 3.023438 -1.957031 2.984375 -1.6875 C 2.941406 -1.425781 2.921875 -1.21875 2.921875 -1.0625 C 2.929688 -0.820312 2.972656 -0.640625 3.046875 -0.515625 C 3.128906 -0.398438 3.273438 -0.34375 3.484375 -0.34375 C 3.671875 -0.34375 3.863281 -0.40625 4.0625 -0.53125 C 4.269531 -0.664062 4.453125 -0.804688 4.609375 -0.953125 L 4.6875 -0.828125 C 4.46875 -0.597656 4.175781 -0.378906 3.8125 -0.171875 C 3.457031 0.0351562 3.019531 0.140625 2.5 0.140625 Z M 2.5 0.140625 "/></g></g></g><g fill="#e1c340" fill-opacity="1"><g transform="translate(243.773506, 219.62628)"><g><path d="M 3.484375 0.140625 C 2.578125 0.140625 1.847656 -0.0976562 1.296875 -0.578125 C 0.742188 -1.066406 0.46875 -1.804688 0.46875 -2.796875 C 0.46875 -3.316406 0.554688 -3.859375 0.734375 -4.421875 C 0.921875 -4.992188 1.203125 -5.519531 1.578125 -6 C 1.953125 -6.488281 2.425781 -6.882812 3 -7.1875 C 3.582031 -7.488281 4.265625 -7.640625 5.046875 -7.640625 C 5.585938 -7.640625 6.078125 -7.539062 6.515625 -7.34375 C 6.960938 -7.144531 7.316406 -6.828125 7.578125 -6.390625 C 7.847656 -5.953125 7.984375 -5.390625 7.984375 -4.703125 C 7.984375 -4.203125 7.890625 -3.671875 7.703125 -3.109375 C 7.523438 -2.546875 7.253906 -2.015625 6.890625 -1.515625 C 6.523438 -1.023438 6.054688 -0.625 5.484375 -0.3125 C 4.921875 -0.0078125 4.253906 0.140625 3.484375 0.140625 Z M 3.515625 0 C 3.835938 0 4.125 -0.117188 4.375 -0.359375 C 4.632812 -0.609375 4.851562 -0.929688 5.03125 -1.328125 C 5.21875 -1.734375 5.367188 -2.179688 5.484375 -2.671875 C 5.609375 -3.160156 5.703125 -3.65625 5.765625 -4.15625 C 5.828125 -4.664062 5.859375 -5.144531 5.859375 -5.59375 C 5.859375 -6.101562 5.832031 -6.492188 5.78125 -6.765625 C 5.726562 -7.046875 5.632812 -7.238281 5.5 -7.34375 C 5.375 -7.445312 5.207031 -7.5 5 -7.5 C 4.675781 -7.5 4.382812 -7.375 4.125 -7.125 C 3.875 -6.882812 3.648438 -6.5625 3.453125 -6.15625 C 3.265625 -5.75 3.101562 -5.296875 2.96875 -4.796875 C 2.84375 -4.304688 2.75 -3.8125 2.6875 -3.3125 C 2.632812 -2.8125 2.609375 -2.351562 2.609375 -1.9375 C 2.609375 -1.238281 2.675781 -0.738281 2.8125 -0.4375 C 2.957031 -0.144531 3.191406 0 3.515625 0 Z M 3.515625 0 "/></g></g></g><g fill="#e1c340" fill-opacity="1"><g transform="translate(254.590804, 219.62628)"><g><path d="M 6.984375 0.140625 C 6.429688 0.140625 6.019531 0.00390625 5.75 -0.265625 C 5.476562 -0.535156 5.34375 -0.898438 5.34375 -1.359375 C 5.34375 -1.578125 5.359375 -1.8125 5.390625 -2.0625 C 5.429688 -2.3125 5.492188 -2.613281 5.578125 -2.96875 L 5.9375 -4.515625 C 5.96875 -4.640625 6.003906 -4.800781 6.046875 -5 C 6.085938 -5.207031 6.125 -5.421875 6.15625 -5.640625 C 6.1875 -5.867188 6.203125 -6.070312 6.203125 -6.25 C 6.203125 -6.46875 6.164062 -6.671875 6.09375 -6.859375 C 6.019531 -7.046875 5.851562 -7.140625 5.59375 -7.140625 C 5.363281 -7.140625 5.144531 -7.054688 4.9375 -6.890625 C 4.738281 -6.734375 4.554688 -6.535156 4.390625 -6.296875 C 4.234375 -6.054688 4.097656 -5.804688 3.984375 -5.546875 C 3.867188 -5.285156 3.785156 -5.046875 3.734375 -4.828125 L 2.625 0 L 0.515625 0 L 1.8125 -6.171875 C 1.832031 -6.296875 1.851562 -6.421875 1.875 -6.546875 C 1.90625 -6.679688 1.921875 -6.78125 1.921875 -6.84375 C 1.921875 -7.03125 1.859375 -7.160156 1.734375 -7.234375 C 1.617188 -7.316406 1.429688 -7.359375 1.171875 -7.359375 L 0.921875 -7.359375 L 0.9375 -7.5 L 4.21875 -7.5 L 3.90625 -5.796875 L 3.953125 -5.796875 C 4.296875 -6.460938 4.675781 -6.9375 5.09375 -7.21875 C 5.507812 -7.5 6.023438 -7.640625 6.640625 -7.640625 C 7.273438 -7.640625 7.707031 -7.484375 7.9375 -7.171875 C 8.175781 -6.867188 8.296875 -6.488281 8.296875 -6.03125 C 8.296875 -5.800781 8.269531 -5.535156 8.21875 -5.234375 C 8.164062 -4.929688 8.109375 -4.660156 8.046875 -4.421875 L 7.609375 -2.453125 C 7.546875 -2.191406 7.492188 -1.945312 7.453125 -1.71875 C 7.421875 -1.488281 7.40625 -1.265625 7.40625 -1.046875 C 7.40625 -0.578125 7.59375 -0.34375 7.96875 -0.34375 C 8.175781 -0.34375 8.378906 -0.410156 8.578125 -0.546875 C 8.785156 -0.679688 8.957031 -0.8125 9.09375 -0.9375 L 9.171875 -0.828125 C 8.941406 -0.585938 8.644531 -0.363281 8.28125 -0.15625 C 7.925781 0.0390625 7.492188 0.140625 6.984375 0.140625 Z M 6.984375 0.140625 "/></g></g></g><g fill="#e1c340" fill-opacity="1"><g transform="translate(266.401541, 219.62628)"><g><path d="M 2.890625 0.140625 C 2.117188 0.140625 1.484375 0.00390625 0.984375 -0.265625 C 0.484375 -0.535156 0.234375 -0.914062 0.234375 -1.40625 C 0.234375 -1.832031 0.375 -2.132812 0.65625 -2.3125 C 0.9375 -2.5 1.296875 -2.59375 1.734375 -2.59375 C 1.722656 -2.5 1.710938 -2.410156 1.703125 -2.328125 C 1.703125 -2.242188 1.703125 -2.164062 1.703125 -2.09375 C 1.703125 -1.375 1.832031 -0.84375 2.09375 -0.5 C 2.351562 -0.164062 2.710938 0 3.171875 0 C 3.648438 0 4.003906 -0.140625 4.234375 -0.421875 C 4.460938 -0.703125 4.578125 -1.039062 4.578125 -1.4375 C 4.578125 -1.851562 4.457031 -2.175781 4.21875 -2.40625 C 3.976562 -2.644531 3.578125 -2.890625 3.015625 -3.140625 C 2.398438 -3.390625 1.925781 -3.671875 1.59375 -3.984375 C 1.257812 -4.304688 1.09375 -4.753906 1.09375 -5.328125 C 1.09375 -6.015625 1.359375 -6.570312 1.890625 -7 C 2.421875 -7.425781 3.207031 -7.640625 4.25 -7.640625 C 4.90625 -7.640625 5.421875 -7.578125 5.796875 -7.453125 C 6.171875 -7.328125 6.4375 -7.160156 6.59375 -6.953125 C 6.75 -6.753906 6.828125 -6.546875 6.828125 -6.328125 C 6.828125 -5.953125 6.675781 -5.679688 6.375 -5.515625 C 6.082031 -5.347656 5.6875 -5.265625 5.1875 -5.265625 C 5.195312 -5.390625 5.203125 -5.503906 5.203125 -5.609375 C 5.210938 -5.710938 5.21875 -5.8125 5.21875 -5.90625 C 5.21875 -6.425781 5.132812 -6.820312 4.96875 -7.09375 C 4.8125 -7.363281 4.523438 -7.5 4.109375 -7.5 C 3.722656 -7.5 3.421875 -7.367188 3.203125 -7.109375 C 2.984375 -6.847656 2.875 -6.53125 2.875 -6.15625 C 2.875 -5.789062 2.988281 -5.492188 3.21875 -5.265625 C 3.445312 -5.046875 3.84375 -4.816406 4.40625 -4.578125 C 5.070312 -4.285156 5.550781 -3.988281 5.84375 -3.6875 C 6.132812 -3.382812 6.28125 -2.972656 6.28125 -2.453125 C 6.28125 -1.984375 6.164062 -1.550781 5.9375 -1.15625 C 5.707031 -0.757812 5.34375 -0.441406 4.84375 -0.203125 C 4.34375 0.0234375 3.691406 0.140625 2.890625 0.140625 Z M 2.890625 0.140625 "/></g></g></g><g fill="#e1c340" fill-opacity="1"><g transform="translate(160.749369, 238.32334)"><g><path d="M 2.34375 0.09375 C 1.6875 0.09375 1.179688 -0.0546875 0.828125 -0.359375 C 0.472656 -0.671875 0.296875 -1.140625 0.296875 -1.765625 C 0.296875 -2.015625 0.328125 -2.28125 0.390625 -2.5625 C 0.460938 -2.84375 0.566406 -3.117188 0.703125 -3.390625 C 0.847656 -3.671875 1.035156 -3.925781 1.265625 -4.15625 C 1.503906 -4.382812 1.789062 -4.566406 2.125 -4.703125 C 2.46875 -4.835938 2.867188 -4.90625 3.328125 -4.90625 C 3.765625 -4.90625 4.101562 -4.816406 4.34375 -4.640625 C 4.59375 -4.460938 4.71875 -4.203125 4.71875 -3.859375 C 4.71875 -3.546875 4.597656 -3.265625 4.359375 -3.015625 C 4.128906 -2.773438 3.8125 -2.582031 3.40625 -2.4375 C 3.007812 -2.300781 2.554688 -2.234375 2.046875 -2.234375 L 1.703125 -2.234375 C 1.691406 -2.171875 1.679688 -2.078125 1.671875 -1.953125 C 1.671875 -1.828125 1.671875 -1.738281 1.671875 -1.6875 C 1.671875 -1.09375 1.742188 -0.664062 1.890625 -0.40625 C 2.046875 -0.144531 2.265625 -0.015625 2.546875 -0.015625 C 2.898438 -0.015625 3.179688 -0.132812 3.390625 -0.375 C 3.597656 -0.613281 3.765625 -0.929688 3.890625 -1.328125 C 3.953125 -1.304688 4 -1.269531 4.03125 -1.21875 C 4.070312 -1.164062 4.09375 -1.082031 4.09375 -0.96875 C 4.09375 -0.8125 4.023438 -0.648438 3.890625 -0.484375 C 3.765625 -0.328125 3.570312 -0.191406 3.3125 -0.078125 C 3.0625 0.0351562 2.738281 0.09375 2.34375 0.09375 Z M 1.734375 -2.328125 L 1.875 -2.328125 C 2.164062 -2.328125 2.429688 -2.40625 2.671875 -2.5625 C 2.910156 -2.71875 3.097656 -2.925781 3.234375 -3.1875 C 3.378906 -3.445312 3.453125 -3.75 3.453125 -4.09375 C 3.453125 -4.351562 3.410156 -4.535156 3.328125 -4.640625 C 3.253906 -4.742188 3.144531 -4.796875 3 -4.796875 C 2.800781 -4.796875 2.617188 -4.6875 2.453125 -4.46875 C 2.285156 -4.257812 2.140625 -3.96875 2.015625 -3.59375 C 1.898438 -3.21875 1.804688 -2.796875 1.734375 -2.328125 Z M 1.734375 -2.328125 "/></g></g></g><g fill="#e1c340" fill-opacity="1"><g transform="translate(166.995399, 238.32334)"><g><path d="M 1.859375 0.09375 C 1.359375 0.09375 0.945312 0.00390625 0.625 -0.171875 C 0.3125 -0.347656 0.15625 -0.59375 0.15625 -0.90625 C 0.15625 -1.175781 0.242188 -1.367188 0.421875 -1.484375 C 0.597656 -1.609375 0.828125 -1.671875 1.109375 -1.671875 C 1.109375 -1.609375 1.101562 -1.546875 1.09375 -1.484375 C 1.09375 -1.429688 1.09375 -1.382812 1.09375 -1.34375 C 1.09375 -0.882812 1.175781 -0.546875 1.34375 -0.328125 C 1.519531 -0.109375 1.753906 0 2.046875 0 C 2.347656 0 2.570312 -0.0859375 2.71875 -0.265625 C 2.863281 -0.453125 2.9375 -0.671875 2.9375 -0.921875 C 2.9375 -1.191406 2.859375 -1.398438 2.703125 -1.546875 C 2.554688 -1.703125 2.300781 -1.859375 1.9375 -2.015625 C 1.539062 -2.179688 1.234375 -2.363281 1.015625 -2.5625 C 0.804688 -2.769531 0.703125 -3.054688 0.703125 -3.421875 C 0.703125 -3.867188 0.875 -4.226562 1.21875 -4.5 C 1.5625 -4.769531 2.066406 -4.90625 2.734375 -4.90625 C 3.148438 -4.90625 3.476562 -4.863281 3.71875 -4.78125 C 3.96875 -4.707031 4.140625 -4.601562 4.234375 -4.46875 C 4.335938 -4.34375 4.390625 -4.207031 4.390625 -4.0625 C 4.390625 -3.820312 4.289062 -3.648438 4.09375 -3.546875 C 3.90625 -3.441406 3.65625 -3.390625 3.34375 -3.390625 C 3.34375 -3.460938 3.34375 -3.53125 3.34375 -3.59375 C 3.351562 -3.664062 3.359375 -3.734375 3.359375 -3.796875 C 3.359375 -4.128906 3.304688 -4.382812 3.203125 -4.5625 C 3.097656 -4.738281 2.910156 -4.828125 2.640625 -4.828125 C 2.390625 -4.828125 2.191406 -4.738281 2.046875 -4.5625 C 1.910156 -4.394531 1.84375 -4.191406 1.84375 -3.953125 C 1.84375 -3.722656 1.914062 -3.535156 2.0625 -3.390625 C 2.207031 -3.242188 2.460938 -3.09375 2.828125 -2.9375 C 3.253906 -2.75 3.5625 -2.554688 3.75 -2.359375 C 3.945312 -2.171875 4.046875 -1.910156 4.046875 -1.578125 C 4.046875 -1.273438 3.96875 -0.992188 3.8125 -0.734375 C 3.664062 -0.484375 3.429688 -0.28125 3.109375 -0.125 C 2.785156 0.0195312 2.367188 0.09375 1.859375 0.09375 Z M 1.859375 0.09375 "/></g></g></g><g fill="#e1c340" fill-opacity="1"><g transform="translate(173.151432, 238.32334)"><g><path d="M 1.75 0.09375 C 1.40625 0.09375 1.128906 0.00390625 0.921875 -0.171875 C 0.710938 -0.347656 0.601562 -0.597656 0.59375 -0.921875 C 0.59375 -1.066406 0.597656 -1.203125 0.609375 -1.328125 C 0.628906 -1.453125 0.65625 -1.582031 0.6875 -1.71875 L 1.34375 -4.734375 L 0.609375 -4.734375 L 0.625 -4.828125 C 1.175781 -4.828125 1.660156 -4.945312 2.078125 -5.1875 C 2.492188 -5.425781 2.796875 -5.800781 2.984375 -6.3125 L 3.0625 -6.3125 L 2.75 -4.828125 L 3.828125 -4.828125 L 3.828125 -4.734375 L 2.734375 -4.734375 L 2.03125 -1.609375 C 2.007812 -1.472656 1.984375 -1.3125 1.953125 -1.125 C 1.921875 -0.9375 1.90625 -0.773438 1.90625 -0.640625 C 1.90625 -0.503906 1.9375 -0.382812 2 -0.28125 C 2.0625 -0.1875 2.175781 -0.140625 2.34375 -0.140625 C 2.507812 -0.140625 2.671875 -0.175781 2.828125 -0.25 C 2.992188 -0.332031 3.148438 -0.4375 3.296875 -0.5625 L 3.34375 -0.484375 C 3.09375 -0.296875 2.847656 -0.148438 2.609375 -0.046875 C 2.367188 0.046875 2.082031 0.09375 1.75 0.09375 Z M 1.75 0.09375 "/></g></g></g><g fill="#e1c340" fill-opacity="1"><g transform="translate(178.434452, 238.32334)"><g><path d="M 1.59375 0.09375 C 1.207031 0.09375 0.890625 -0.0507812 0.640625 -0.34375 C 0.398438 -0.644531 0.28125 -1.085938 0.28125 -1.671875 C 0.28125 -1.910156 0.3125 -2.171875 0.375 -2.453125 C 0.4375 -2.742188 0.535156 -3.035156 0.671875 -3.328125 C 0.804688 -3.617188 0.984375 -3.882812 1.203125 -4.125 C 1.421875 -4.363281 1.679688 -4.550781 1.984375 -4.6875 C 2.296875 -4.832031 2.660156 -4.90625 3.078125 -4.90625 C 3.273438 -4.90625 3.441406 -4.890625 3.578125 -4.859375 C 3.710938 -4.828125 3.835938 -4.78125 3.953125 -4.71875 C 3.960938 -4.789062 3.976562 -4.878906 4 -4.984375 C 4.019531 -5.097656 4.035156 -5.179688 4.046875 -5.234375 L 4.203125 -5.984375 C 4.222656 -6.066406 4.238281 -6.144531 4.25 -6.21875 C 4.257812 -6.300781 4.265625 -6.367188 4.265625 -6.421875 C 4.265625 -6.535156 4.226562 -6.617188 4.15625 -6.671875 C 4.082031 -6.722656 3.945312 -6.75 3.75 -6.75 L 3.59375 -6.75 L 3.609375 -6.84375 L 5.765625 -6.84375 L 4.703125 -1.828125 C 4.671875 -1.734375 4.640625 -1.617188 4.609375 -1.484375 C 4.585938 -1.347656 4.566406 -1.207031 4.546875 -1.0625 C 4.523438 -0.925781 4.515625 -0.816406 4.515625 -0.734375 C 4.515625 -0.378906 4.628906 -0.203125 4.859375 -0.203125 C 4.984375 -0.203125 5.109375 -0.238281 5.234375 -0.3125 C 5.359375 -0.394531 5.460938 -0.46875 5.546875 -0.53125 L 5.59375 -0.453125 C 5.414062 -0.304688 5.210938 -0.175781 4.984375 -0.0625 C 4.765625 0.0390625 4.5 0.09375 4.1875 0.09375 C 3.914062 0.09375 3.695312 0.0234375 3.53125 -0.109375 C 3.375 -0.253906 3.296875 -0.472656 3.296875 -0.765625 C 3.296875 -0.929688 3.300781 -1.070312 3.3125 -1.1875 C 3.320312 -1.3125 3.335938 -1.421875 3.359375 -1.515625 L 3.328125 -1.515625 C 3.128906 -0.910156 2.878906 -0.488281 2.578125 -0.25 C 2.285156 -0.0195312 1.957031 0.09375 1.59375 0.09375 Z M 2.171875 -0.21875 C 2.304688 -0.21875 2.4375 -0.269531 2.5625 -0.375 C 2.6875 -0.476562 2.796875 -0.613281 2.890625 -0.78125 C 2.992188 -0.945312 3.082031 -1.117188 3.15625 -1.296875 C 3.226562 -1.484375 3.285156 -1.660156 3.328125 -1.828125 L 3.921875 -4.59375 C 3.847656 -4.65625 3.757812 -4.703125 3.65625 -4.734375 C 3.5625 -4.773438 3.457031 -4.796875 3.34375 -4.796875 C 3.09375 -4.796875 2.863281 -4.691406 2.65625 -4.484375 C 2.445312 -4.273438 2.269531 -3.992188 2.125 -3.640625 C 1.976562 -3.296875 1.863281 -2.914062 1.78125 -2.5 C 1.695312 -2.082031 1.65625 -1.671875 1.65625 -1.265625 C 1.65625 -0.890625 1.707031 -0.617188 1.8125 -0.453125 C 1.914062 -0.296875 2.035156 -0.21875 2.171875 -0.21875 Z M 2.171875 -0.21875 "/></g></g></g><g fill="#e1c340" fill-opacity="1"><g transform="translate(185.751489, 238.32334)"><g/></g></g><g fill="#e1c340" fill-opacity="1"><g transform="translate(189.531501, 238.32334)"><g><path d="M -0.140625 0 L 0.03125 -0.875 L 1.875 -2.375 C 2.363281 -2.769531 2.738281 -3.148438 3 -3.515625 C 3.257812 -3.878906 3.429688 -4.226562 3.515625 -4.5625 C 3.609375 -4.90625 3.65625 -5.242188 3.65625 -5.578125 C 3.65625 -5.867188 3.609375 -6.082031 3.515625 -6.21875 C 3.421875 -6.351562 3.265625 -6.421875 3.046875 -6.421875 C 2.859375 -6.421875 2.691406 -6.359375 2.546875 -6.234375 C 2.410156 -6.117188 2.300781 -5.914062 2.21875 -5.625 C 2.144531 -5.34375 2.085938 -4.945312 2.046875 -4.4375 C 1.753906 -4.4375 1.507812 -4.5 1.3125 -4.625 C 1.113281 -4.75 1.015625 -4.945312 1.015625 -5.21875 C 1.015625 -5.445312 1.09375 -5.660156 1.25 -5.859375 C 1.414062 -6.054688 1.65625 -6.210938 1.96875 -6.328125 C 2.289062 -6.453125 2.675781 -6.515625 3.125 -6.515625 C 3.738281 -6.515625 4.210938 -6.394531 4.546875 -6.15625 C 4.878906 -5.914062 5.046875 -5.601562 5.046875 -5.21875 C 5.046875 -4.800781 4.898438 -4.421875 4.609375 -4.078125 C 4.316406 -3.734375 3.859375 -3.347656 3.234375 -2.921875 L 0.328125 -0.984375 L 3.578125 -0.984375 C 3.816406 -0.984375 3.988281 -1.03125 4.09375 -1.125 C 4.207031 -1.21875 4.296875 -1.351562 4.359375 -1.53125 L 4.46875 -1.890625 L 4.5625 -1.890625 L 4.109375 0 Z M -0.140625 0 "/></g></g></g><g fill="#e1c340" fill-opacity="1"><g transform="translate(196.092542, 238.32334)"><g><path d="M 2.203125 0.09375 C 1.648438 0.09375 1.203125 -0.09375 0.859375 -0.46875 C 0.515625 -0.851562 0.34375 -1.460938 0.34375 -2.296875 C 0.34375 -2.628906 0.375 -2.984375 0.4375 -3.359375 C 0.5 -3.734375 0.597656 -4.109375 0.734375 -4.484375 C 0.878906 -4.859375 1.0625 -5.195312 1.28125 -5.5 C 1.507812 -5.8125 1.78125 -6.0625 2.09375 -6.25 C 2.414062 -6.4375 2.785156 -6.53125 3.203125 -6.53125 C 3.523438 -6.53125 3.828125 -6.453125 4.109375 -6.296875 C 4.390625 -6.148438 4.613281 -5.910156 4.78125 -5.578125 C 4.945312 -5.242188 5.03125 -4.800781 5.03125 -4.25 C 5.03125 -3.914062 5 -3.550781 4.9375 -3.15625 C 4.875 -2.769531 4.773438 -2.382812 4.640625 -2 C 4.515625 -1.613281 4.34375 -1.265625 4.125 -0.953125 C 3.90625 -0.640625 3.632812 -0.382812 3.3125 -0.1875 C 3 0 2.628906 0.09375 2.203125 0.09375 Z M 2.203125 0.015625 C 2.410156 0.015625 2.597656 -0.0820312 2.765625 -0.28125 C 2.941406 -0.488281 3.097656 -0.757812 3.234375 -1.09375 C 3.378906 -1.4375 3.492188 -1.820312 3.578125 -2.25 C 3.671875 -2.675781 3.742188 -3.113281 3.796875 -3.5625 C 3.847656 -4.019531 3.875 -4.457031 3.875 -4.875 C 3.875 -5.300781 3.847656 -5.625 3.796875 -5.84375 C 3.753906 -6.0625 3.6875 -6.210938 3.59375 -6.296875 C 3.5 -6.390625 3.375 -6.4375 3.21875 -6.4375 C 3.019531 -6.4375 2.832031 -6.332031 2.65625 -6.125 C 2.476562 -5.914062 2.316406 -5.632812 2.171875 -5.28125 C 2.035156 -4.925781 1.914062 -4.535156 1.8125 -4.109375 C 1.71875 -3.679688 1.640625 -3.238281 1.578125 -2.78125 C 1.523438 -2.332031 1.5 -1.90625 1.5 -1.5 C 1.5 -1.101562 1.523438 -0.796875 1.578125 -0.578125 C 1.640625 -0.359375 1.722656 -0.203125 1.828125 -0.109375 C 1.929688 -0.0234375 2.054688 0.015625 2.203125 0.015625 Z M 2.203125 0.015625 "/></g></g></g><g fill="#e1c340" fill-opacity="1"><g transform="translate(202.653582, 238.32334)"><g><path d="M -0.140625 0 L 0.03125 -0.875 L 1.875 -2.375 C 2.363281 -2.769531 2.738281 -3.148438 3 -3.515625 C 3.257812 -3.878906 3.429688 -4.226562 3.515625 -4.5625 C 3.609375 -4.90625 3.65625 -5.242188 3.65625 -5.578125 C 3.65625 -5.867188 3.609375 -6.082031 3.515625 -6.21875 C 3.421875 -6.351562 3.265625 -6.421875 3.046875 -6.421875 C 2.859375 -6.421875 2.691406 -6.359375 2.546875 -6.234375 C 2.410156 -6.117188 2.300781 -5.914062 2.21875 -5.625 C 2.144531 -5.34375 2.085938 -4.945312 2.046875 -4.4375 C 1.753906 -4.4375 1.507812 -4.5 1.3125 -4.625 C 1.113281 -4.75 1.015625 -4.945312 1.015625 -5.21875 C 1.015625 -5.445312 1.09375 -5.660156 1.25 -5.859375 C 1.414062 -6.054688 1.65625 -6.210938 1.96875 -6.328125 C 2.289062 -6.453125 2.675781 -6.515625 3.125 -6.515625 C 3.738281 -6.515625 4.210938 -6.394531 4.546875 -6.15625 C 4.878906 -5.914062 5.046875 -5.601562 5.046875 -5.21875 C 5.046875 -4.800781 4.898438 -4.421875 4.609375 -4.078125 C 4.316406 -3.734375 3.859375 -3.347656 3.234375 -2.921875 L 0.328125 -0.984375 L 3.578125 -0.984375 C 3.816406 -0.984375 3.988281 -1.03125 4.09375 -1.125 C 4.207031 -1.21875 4.296875 -1.351562 4.359375 -1.53125 L 4.46875 -1.890625 L 4.5625 -1.890625 L 4.109375 0 Z M -0.140625 0 "/></g></g></g><g fill="#e1c340" fill-opacity="1"><g transform="translate(209.21462, 238.32334)"><g><path d="M 1.234375 0 L 1.234375 -0.09375 L 1.5625 -0.09375 C 1.769531 -0.09375 1.941406 -0.132812 2.078125 -0.21875 C 2.210938 -0.300781 2.304688 -0.472656 2.359375 -0.734375 L 2.578125 -1.671875 L 0.078125 -1.671875 L 0.203125 -2.234375 L 3.625 -6.421875 L 4.90625 -6.421875 L 4.015625 -2.265625 L 4.953125 -2.265625 L 4.828125 -1.671875 L 3.890625 -1.671875 L 3.703125 -0.734375 C 3.691406 -0.703125 3.679688 -0.648438 3.671875 -0.578125 C 3.660156 -0.515625 3.65625 -0.472656 3.65625 -0.453125 C 3.65625 -0.296875 3.707031 -0.195312 3.8125 -0.15625 C 3.925781 -0.113281 4.070312 -0.09375 4.25 -0.09375 L 4.40625 -0.09375 L 4.390625 0 Z M 2.703125 -5.140625 L 0.34375 -2.265625 L 2.703125 -2.265625 L 3.1875 -4.515625 C 3.25 -4.773438 3.3125 -5.054688 3.375 -5.359375 C 3.445312 -5.660156 3.53125 -5.976562 3.625 -6.3125 C 3.476562 -6.113281 3.328125 -5.914062 3.171875 -5.71875 C 3.015625 -5.53125 2.859375 -5.335938 2.703125 -5.140625 Z M 2.703125 -5.140625 "/></g></g></g></svg>